<?xml version="1.0" encoding="UTF-8"?>
<svg version="1.1" xmlns="http://www.w3.org/2000/svg" width="512" height="512">
<path d="M0 0 C1.3260601 0.27610359 1.3260601 0.27610359 2.6789093 0.55778503 C4.05444221 0.86236382 4.05444221 0.86236382 5.45776367 1.1730957 C6.43057785 1.38319778 7.40339203 1.59329987 8.40568542 1.80976868 C10.44466697 2.25412074 12.48245152 2.70399867 14.51904297 3.15917969 C17.63045137 3.84992458 20.74749167 4.50923195 23.8659668 5.16723633 C25.85531688 5.60479428 27.84426512 6.04418409 29.83276367 6.4855957 C30.75990677 6.67852707 31.68704987 6.87145844 32.64228821 7.07023621 C37.99611921 8.30239199 41.43985949 9.51766684 44.81323242 14.16137695 C44.81323242 15.48137695 44.81323242 16.80137695 44.81323242 18.16137695 C45.9450293 18.36633789 47.07682617 18.57129883 48.24291992 18.7824707 C49.72472003 19.05444667 51.20648928 19.32659082 52.68823242 19.59887695 C53.43459961 19.73358398 54.1809668 19.86829102 54.94995117 20.00708008 C60.58666992 21.0480957 60.58666992 21.0480957 62.81323242 22.16137695 C63.21541992 21.23325195 63.21541992 21.23325195 63.62573242 20.28637695 C64.81323242 18.16137695 64.81323242 18.16137695 67.81323242 16.16137695 C74.01096815 16.01472165 80.42572907 17.80169215 86.44995117 19.12231445 C87.77456108 19.40916611 87.77456108 19.40916611 89.12593079 19.70181274 C90.97770479 20.1045624 92.8289533 20.50973522 94.6796875 20.91723633 C97.50156718 21.53656016 100.32615361 22.14226155 103.15112305 22.74731445 C104.95924625 23.14232251 106.76719535 23.53812848 108.57495117 23.93481445 C109.41257492 24.11305756 110.25019867 24.29130066 111.11320496 24.47494507 C122.38450112 26.99217276 122.38450112 26.99217276 125.17602539 31.23046875 C126.10888467 35.52126401 126.05794781 39.67792101 126.00854492 44.0559082 C126.00430008 45.47694099 126.00430008 45.47694099 125.99996948 46.92668152 C125.98880429 49.94254361 125.96370631 52.95810512 125.93823242 55.97387695 C125.92819789 58.02270078 125.91907287 60.07152928 125.91088867 62.12036133 C125.88887691 67.13414843 125.85437213 72.14771178 125.81323242 77.16137695 C127.63697388 77.12210083 127.63697388 77.12210083 129.49755859 77.08203125 C134.01673923 76.99139935 138.53583986 76.93408048 143.05566406 76.88671875 C145.01022865 76.86160414 146.96469959 76.82750564 148.91894531 76.78417969 C151.7315991 76.72339261 154.54300944 76.69513713 157.35620117 76.6730957 C158.2272197 76.64728928 159.09823822 76.62148285 159.99565125 76.59489441 C164.10955608 76.59300082 166.30099409 76.84821529 169.8737793 79.0324707 C172.6977566 83.58837367 172.43991005 87.45447322 172.30151367 92.7121582 C172.29443893 93.72610153 172.2873642 94.74004486 172.28007507 95.78471375 C172.25214254 99.01519326 172.18940405 102.24392357 172.12573242 105.47387695 C172.10064817 107.66721125 172.07783523 109.86057279 172.05737305 112.05395508 C172.00231997 117.42368998 171.91870515 122.79240849 171.81323242 128.16137695 C172.68131531 128.15249451 173.54939819 128.14361206 174.44378662 128.13446045 C182.62466215 128.05431219 190.80540583 127.99341142 198.98658371 127.95412827 C203.19264219 127.93325334 207.39837627 127.90493796 211.60424805 127.85961914 C215.66319212 127.8161572 219.72182417 127.79223913 223.78098297 127.78186798 C225.32957115 127.77447716 226.87814225 127.76004444 228.4265976 127.73845673 C230.59589026 127.70941648 232.76389383 127.70542096 234.93334961 127.70727539 C236.16800964 127.69839294 237.40266968 127.6895105 238.67474365 127.68035889 C241.81323242 128.16137695 241.81323242 128.16137695 244.21087646 129.83258057 C246.20253905 132.72717875 246.31978256 134.37825439 246.33081055 137.8762207 C246.34972351 139.59820679 246.34972351 139.59820679 246.36901855 141.35498047 C246.35687317 143.20820923 246.35687317 143.20820923 246.34448242 145.09887695 C246.34830933 146.37110107 246.35213623 147.6433252 246.3560791 148.95410156 C246.35880169 151.64451523 246.35343056 154.33347566 246.3347168 157.02368164 C246.31192604 160.46732441 246.32505211 163.90972022 246.34900665 167.35331726 C246.36695794 170.64354823 246.35437963 173.9336297 246.34448242 177.22387695 C246.35257935 178.45936279 246.36067627 179.69484863 246.36901855 180.96777344 C246.35010559 182.68975952 246.35010559 182.68975952 246.33081055 184.4465332 C246.32762817 185.45594971 246.3244458 186.46536621 246.32116699 187.50537109 C245.81323242 190.16137695 245.81323242 190.16137695 241.81323242 194.16137695 C234.88323242 194.16137695 227.95323242 194.16137695 220.81323242 194.16137695 C220.81323242 268.74137695 220.81323242 343.32137695 220.81323242 420.16137695 C227.08323242 420.16137695 233.35323242 420.16137695 239.81323242 420.16137695 C244.81323242 423.16137695 244.81323242 423.16137695 245.81323242 424.16137695 C245.93910926 426.93791494 246.00190108 429.68822022 246.01635742 432.46606445 C246.0220575 433.30098419 246.02775757 434.13590393 246.03363037 434.99612427 C246.04309501 436.76652758 246.04962014 438.53694862 246.0534668 440.30737305 C246.06316714 443.01813493 246.09417387 445.72813715 246.12573242 448.4387207 C246.1322627 450.1561641 246.13751308 451.87361294 246.14135742 453.59106445 C246.15370422 454.40364716 246.16605103 455.21622986 246.17877197 456.05343628 C246.15688954 461.5755184 246.15688954 461.5755184 244.80740166 463.87609351 C241.61756702 465.93200811 238.22477712 465.57103898 234.55007935 465.53890038 C233.69319952 465.5432607 232.83631969 465.54762102 231.95347381 465.55211347 C229.05647176 465.56313966 226.15993873 465.55261357 223.26293945 465.54232788 C221.17533689 465.54578153 219.08773614 465.55054412 217.00013924 465.55650961 C211.2434636 465.56908943 205.48693623 465.56281762 199.7302599 465.55355096 C193.52977786 465.54678927 187.3293221 465.55722734 181.12884521 465.56549072 C169.67745473 465.57808751 158.2261307 465.57695675 146.77474052 465.56875632 C136.19692884 465.56121838 125.61913461 465.55923546 115.0413208 465.56282425 C114.34047092 465.5630534 113.63962105 465.56328256 112.91753329 465.56351866 C110.07276561 465.56445263 107.22799794 465.56540783 104.38323028 465.56639795 C77.68109314 465.57558103 50.97898629 465.56724495 24.27685383 465.55110726 C0.53831275 465.53686977 -23.20018005 465.53814362 -46.9387207 465.55249023 C-73.5911006 465.5685439 -100.24345372 465.57492984 -126.89583778 465.56565344 C-129.7355105 465.56469125 -132.57518323 465.56375273 -135.41485596 465.56282425 C-136.11408833 465.56258702 -136.8133207 465.56234979 -137.53374194 465.56210536 C-148.10654737 465.55868871 -158.67933347 465.56269164 -169.25213623 465.57026291 C-181.27035385 465.57882618 -193.28850196 465.57643737 -205.3067174 465.56042068 C-211.44370036 465.55251266 -217.58058511 465.54948929 -223.71756744 465.55936813 C-229.32815602 465.56826333 -234.93855472 465.56346819 -240.54912591 465.54743548 C-242.58608634 465.5440656 -244.62306259 465.54583072 -246.66001296 465.55306284 C-249.41477951 465.56209834 -252.16888342 465.55291811 -254.9236145 465.53890038 C-255.72667471 465.54592387 -256.52973492 465.55294737 -257.35713029 465.5601837 C-262.65375832 465.50578526 -262.65375832 465.50578526 -265.17895317 463.87410986 C-267.00996032 460.76239982 -266.61164987 457.17261314 -266.58520508 453.66137695 C-266.58807526 452.82928711 -266.59094543 451.99719727 -266.59390259 451.13989258 C-266.5959432 449.38142211 -266.59041351 447.62292894 -266.57788086 445.86450195 C-266.5618266 443.17127782 -266.57772903 440.47955436 -266.59692383 437.78637695 C-266.5949414 436.0780403 -266.59109772 434.36970459 -266.58520508 432.66137695 C-266.59127777 431.85506836 -266.59735046 431.04875977 -266.60360718 430.21801758 C-266.53278709 424.59464586 -266.53278709 424.59464586 -264.8500061 422.48754883 C-258.35399263 417.30799686 -248.66928356 420.16137695 -241.18676758 420.16137695 C-241.18676758 345.58137695 -241.18676758 271.00137695 -241.18676758 194.16137695 C-248.11676758 194.16137695 -255.04676758 194.16137695 -262.18676758 194.16137695 C-266.68790854 189.66023599 -266.68790854 189.66023599 -266.7043457 184.4465332 C-266.71695435 183.29854248 -266.72956299 182.15055176 -266.74255371 180.96777344 C-266.73445679 179.7322876 -266.72635986 178.49680176 -266.71801758 177.22387695 C-266.72184448 175.95165283 -266.72567139 174.67942871 -266.72961426 173.36865234 C-266.73233685 170.67823868 -266.72696572 167.98927825 -266.70825195 165.29907227 C-266.6854612 161.8554295 -266.69858726 158.41303368 -266.72254181 154.96943665 C-266.7404931 151.67920568 -266.72791478 148.38912421 -266.71801758 145.09887695 C-266.7261145 143.86339111 -266.73421143 142.62790527 -266.74255371 141.35498047 C-266.72994507 140.20698975 -266.71733643 139.05899902 -266.7043457 137.8762207 C-266.70116333 136.8668042 -266.69798096 135.8573877 -266.69470215 134.81738281 C-266.02770864 131.32965274 -265.09328522 130.18727517 -262.18676758 128.16137695 C-259.04827881 127.68035889 -259.04827881 127.68035889 -255.30688477 127.70727539 C-254.62355072 127.70669128 -253.94021667 127.70610718 -253.23617554 127.70550537 C-250.98480858 127.70828495 -248.73477726 127.73936788 -246.48364258 127.77075195 C-244.91994958 127.77821487 -243.35624721 127.78390756 -241.7925415 127.78790283 C-237.68235325 127.80315541 -233.57273286 127.84243335 -229.46276855 127.88671875 C-225.2666797 127.92767994 -221.07049885 127.94591562 -216.87426758 127.96606445 C-208.64484068 128.00892853 -200.41587483 128.07717462 -192.18676758 128.16137695 C-192.19787064 127.59618851 -192.20897369 127.03100006 -192.22041321 126.44868469 C-192.33112771 120.56018902 -192.40648442 114.67198948 -192.46142578 108.78271484 C-192.48655266 106.58565255 -192.52066004 104.38867371 -192.56396484 102.19189453 C-192.62469519 99.03177291 -192.65299591 95.87275738 -192.67504883 92.7121582 C-192.70085526 91.73177078 -192.72666168 90.75138336 -192.75325012 89.74128723 C-192.75506006 85.32935938 -192.60888036 82.84236857 -190.24731445 79.0324707 C-185.98383136 76.42595073 -182.63367731 76.52780236 -177.72973633 76.6730957 C-176.82677322 76.68017044 -175.92381012 76.68724518 -174.9934845 76.6945343 C-172.1195567 76.72244376 -169.24760286 76.78517463 -166.37426758 76.84887695 C-164.42182183 76.87396434 -162.46934543 76.89677674 -160.5168457 76.91723633 C-155.73939656 76.97225906 -150.96341632 77.05850697 -146.18676758 77.16137695 C-146.20247803 75.8902002 -146.21818848 74.61902344 -146.234375 73.30932617 C-146.28880008 68.57941052 -146.3231635 63.84952239 -146.3515625 59.11938477 C-146.36662046 57.07474101 -146.38707114 55.0301294 -146.41308594 52.9855957 C-146.44960069 50.04150443 -146.46652409 47.09784138 -146.47973633 44.15356445 C-146.49522018 43.24395966 -146.51070404 42.33435486 -146.5266571 41.39718628 C-146.52798965 36.33712658 -146.52473505 32.22233216 -143.18676758 28.16137695 C-136.29148568 25.3355478 -128.63272843 24.03666526 -121.37817383 22.43408203 C-120.24185516 22.18005112 -119.1055365 21.9260202 -117.93478394 21.66429138 C-114.20718845 20.83234642 -110.47835127 20.00615514 -106.74926758 19.1809082 C-104.80173777 18.74871907 -102.85420811 18.31652924 -100.90669727 17.88425463 C-94.79420689 16.52782399 -88.6806905 15.17608623 -82.56665039 13.82666016 C-76.28330977 12.43972017 -70.00243006 11.04200583 -63.72255421 9.63946992 C-58.30562858 8.43023706 -52.88693136 7.22917559 -47.46683788 6.03422278 C-44.24058541 5.32276471 -41.01539546 4.60700483 -37.79153442 3.88477516 C-34.19493203 3.08002748 -30.59562023 2.28869205 -26.99536133 1.50048828 C-25.94363739 1.26208221 -24.89191345 1.02367615 -23.80831909 0.77804565 C-15.81682867 -0.94912179 -8.07105017 -1.72160718 0 0 Z " fill="#020202" transform="translate(266.186767578125,23.838623046875)"/>
<path d="M0 0 C3.08261456 -0.1746397 6.16395833 -0.28094067 9.25 -0.375 C10.12269531 -0.42527344 10.99539062 -0.47554687 11.89453125 -0.52734375 C14.39706999 -0.5846538 16.5603436 -0.56970621 19 0 C21.484375 2.9609375 21.484375 2.9609375 23 6 C25.49954204 7.24977102 27.09569523 7.07912028 29.8894043 7.01489258 C30.90773849 6.9961055 31.92607269 6.97731842 32.9752655 6.95796204 C34.08042007 6.93702988 35.18557465 6.91609772 36.32421875 6.89453125 C39.87719331 6.87048813 43.43012532 6.85699748 46.9831543 6.84350586 C49.44401113 6.82290816 51.90478529 6.78268003 54.36499023 6.72241211 C74.90536644 6.24896617 74.90536644 6.24896617 80.04956055 10.54931641 C81.83999325 13.66748301 82.95599709 16.56954474 84 20 C86.51715909 23.99449851 89.87396705 27.4743166 93 31 C93.60199219 31.68578125 94.20398438 32.3715625 94.82421875 33.078125 C108.9283523 48.1306927 128.93243514 59.005194 147.8125 66.75 C148.61776123 67.08539795 149.42302246 67.4207959 150.25268555 67.76635742 C157.89522792 70.73734471 163.84609105 70.88668309 171.4934082 67.66455078 C172.2587085 67.32149902 173.02400879 66.97844727 173.8125 66.625 C174.63000732 66.26776855 175.44751465 65.91053711 176.28979492 65.54248047 C198.43148139 55.69185349 228.73146167 40.62184132 239.29836369 17.11123276 C243.32776469 8.67042473 243.32776469 8.67042473 247.72982597 6.90557098 C251.1459039 6.51955964 254.38401651 6.51427521 257.82006836 6.63769531 C259.11940843 6.63624889 260.41874849 6.63480247 261.7574625 6.63331223 C265.25847769 6.63061341 268.75452521 6.69989425 272.25437164 6.78463745 C275.54350262 6.85322444 278.83243183 6.85620728 282.12219238 6.86474609 C291.72794774 6.9275945 301.33278753 7.09513134 310.9375 7.25 C332.408125 7.4975 353.87875 7.745 376 8 C376 82.91 376 157.82 376 235 C337.885 235.495 337.885 235.495 299 236 C297.68 237.98 296.36 239.96 295 242 C292.84936523 242.76049805 292.84936523 242.76049805 290.55859375 242.76171875 C289.72779297 242.76494141 288.89699219 242.76816406 288.04101562 242.77148438 C286.75227539 242.72991211 286.75227539 242.72991211 285.4375 242.6875 C284.14295898 242.70973633 284.14295898 242.70973633 282.82226562 242.73242188 C280.42575071 242.70076628 278.32148322 242.59843963 276 242 C273.97265625 239.51953125 273.97265625 239.51953125 273 237 C271.08614588 235.08614588 267.6289211 235.82470803 265.09350586 235.79467773 C264.37159561 235.78477814 263.64968536 235.77487854 262.90589905 235.76467896 C260.50891449 235.73297701 258.11191008 235.70827241 255.71484375 235.68359375 C254.05716931 235.66303171 252.3995002 235.64203545 250.74183655 235.62062073 C246.37051705 235.5653225 241.99914963 235.51594756 237.62774658 235.46777344 C233.17040726 235.41761484 228.71313787 235.3618994 224.25585938 235.30664062 C215.5039653 235.19896432 206.75201288 235.09754055 198 235 C197.99857498 233.89388367 197.99714996 232.78776733 197.99568176 231.64813232 C197.979021 221.23014599 197.93627565 210.81255072 197.86790943 200.39477158 C197.83360087 195.03867733 197.80852343 189.6828695 197.80444336 184.32666016 C197.80016873 179.1587266 197.7717753 173.99143955 197.72656822 168.82370758 C197.71356649 166.85096246 197.70929497 164.87814008 197.71384621 162.90535736 C197.71873322 160.14420032 197.69274523 157.38494668 197.65942383 154.62402344 C197.66804947 153.80618881 197.67667511 152.98835419 197.68556213 152.14573669 C197.60899159 148.36737365 197.34440517 146.40186311 194.85174561 143.49334717 C191.53670514 141.75739068 189.44433707 141.4932571 185.71264648 141.48242188 C184.46462753 141.46981323 183.21660858 141.45720459 181.93077087 141.44421387 C180.57753939 141.45137316 179.22431308 141.45957702 177.87109375 141.46875 C176.47534414 141.46605346 175.07959635 141.46216969 173.68385315 141.45715332 C170.76439457 141.45126767 167.84542676 141.45979151 164.92602539 141.47851562 C161.18762207 141.50132691 157.4503661 141.48816405 153.71200466 141.46422577 C150.83200967 141.44975997 147.95228603 141.45437676 145.07228279 141.46473694 C143.69399949 141.46740102 142.31569138 141.4641456 140.93743706 141.45481873 C139.01094928 141.44464007 137.08437484 141.46291016 135.15795898 141.48242188 C134.06273422 141.48560425 132.96750946 141.48878662 131.83909607 141.49206543 C128.94883758 141.82398841 128.94883758 141.82398841 126.64924622 143.49334717 C124.28642597 147.08454538 124.42859883 150.46470057 124.45410156 154.62402344 C124.44370724 155.5066901 124.43331291 156.38935677 124.42260361 157.2987709 C124.3934884 160.15250094 124.39153567 163.00551113 124.390625 165.859375 C124.37662975 167.62257373 124.36085298 169.38575926 124.34326172 171.14892578 C124.29057634 177.68247872 124.27238047 184.21627297 124.25 190.75 C124.1675 205.3525 124.085 219.955 124 235 C65.26 235 6.52 235 -54 235 C-54 160.09 -54 85.18 -54 8 C-37.83 7.67 -21.66 7.34 -5 7 C-0.9254644 3.52174919 -0.9254644 3.52174919 0 0 Z " fill="#F6F4F5" transform="translate(95,210)"/>
<path d="M0 0 C0.84433594 0.44601563 1.68867188 0.89203125 2.55859375 1.3515625 C15.68747275 7.31102615 26.17825293 8.17944433 39.81640625 3.12890625 C42.80223616 2.28249578 43.79344141 2.00957076 46.55859375 3.3515625 C48.60733872 5.15757887 50.48709068 6.95042018 52.37109375 8.9140625 C52.89864258 9.45546875 53.42619141 9.996875 53.96972656 10.5546875 C55.50938184 12.14437449 57.035455 13.7460641 58.55859375 15.3515625 C59.71681641 16.55619141 59.71681641 16.55619141 60.8984375 17.78515625 C65.55859375 22.82651138 65.55859375 22.82651138 65.55859375 27.3515625 C64.31640625 29.90234375 64.31640625 29.90234375 62.68359375 32.6640625 C56.77931451 43.24720454 55.82378991 53.93277813 58.93359375 65.7265625 C61.02675803 71.90782019 64.27838802 77.17374113 67.94091797 82.53271484 C73.06362163 90.13749273 75.13326408 97.45113881 75.05859375 106.6015625 C75.05287354 107.42857666 75.04715332 108.25559082 75.04125977 109.10766602 C74.82483488 116.60966659 72.99448555 122.66478846 69.55859375 129.3515625 C69.09710938 130.31964844 68.635625 131.28773438 68.16015625 132.28515625 C54.87764734 157.67025577 27.85720343 172.65372107 2.15234375 182.7421875 C-3.30180534 184.02358397 -7.8867272 181.48069667 -12.81640625 179.2890625 C-13.51540039 178.97888184 -14.21439453 178.66870117 -14.93457031 178.34912109 C-41.06498925 166.57691481 -64.5571925 149.82974147 -75.44140625 122.3515625 C-76.00601563 120.96517578 -76.00601563 120.96517578 -76.58203125 119.55078125 C-77.71611989 115.32887856 -77.77110821 111.39115784 -77.75390625 107.0390625 C-77.77001953 106.23533203 -77.78613281 105.43160156 -77.80273438 104.60351562 C-77.81034011 95.14958993 -74.73687178 88.24331197 -69.50390625 80.5390625 C-62.16904658 69.17360864 -58.97345677 59.0820799 -60.44140625 45.3515625 C-61.967257 38.840178 -64.66122062 33.42649377 -68.68359375 28.10546875 C-68.93367187 27.52667969 -69.18375 26.94789062 -69.44140625 26.3515625 C-68.19545033 23.21173722 -66.41565356 21.03426187 -64.10546875 18.6015625 C-63.45320312 17.910625 -62.8009375 17.2196875 -62.12890625 16.5078125 C-61.10796875 15.44046875 -61.10796875 15.44046875 -60.06640625 14.3515625 C-59.39351562 13.64 -58.720625 12.9284375 -58.02734375 12.1953125 C-56.73389154 10.83056764 -55.43372526 9.47214538 -54.12597656 8.12109375 C-52.79415239 6.72209932 -51.52361041 5.2647862 -50.27734375 3.7890625 C-48.44140625 2.3515625 -48.44140625 2.3515625 -46.0078125 2.50390625 C-45.16089844 2.78363281 -44.31398437 3.06335938 -43.44140625 3.3515625 C-42.62542969 3.60035156 -41.80945313 3.84914063 -40.96875 4.10546875 C-40.11410156 4.37230469 -39.25945312 4.63914062 -38.37890625 4.9140625 C-27.44631659 7.87039866 -17.89578344 6.5473461 -7.44140625 2.3515625 C-6.59449219 1.77019531 -5.74757813 1.18882813 -4.875 0.58984375 C-2.44140625 -0.6484375 -2.44140625 -0.6484375 0 0 Z " fill="#7FB2F9" transform="translate(257.44140625,82.6484375)"/>
<path d="M0 0 C1.90749023 0.39735352 1.90749023 0.39735352 3.85351562 0.80273438 C9.14534397 1.90828483 14.43231659 3.02454325 19.703125 4.2265625 C24.03187722 5.16416673 27.16198858 5.58459458 31.5625 5.0625 C33.80134428 2.61206325 33.80134428 2.61206325 35.5625 0.0625 C38.18821335 0.53799934 40.8130304 1.01772567 43.4375 1.5 C44.18386719 1.63470703 44.93023437 1.76941406 45.69921875 1.90820312 C51.3359375 2.94921875 51.3359375 2.94921875 53.5625 4.0625 C53.871875 5.196875 54.18125 6.33125 54.5 7.5 C55.21871357 11.29466998 55.21871357 11.29466998 58.5625 13.0625 C60.55076414 13.68364483 60.55076414 13.68364483 62.75854492 14.11572266 C63.59918991 14.29575836 64.4398349 14.47579407 65.30595398 14.6612854 C66.20916885 14.84782684 67.11238373 15.03436829 68.04296875 15.2265625 C68.97095779 15.42349701 69.89894684 15.62043152 70.85505676 15.82333374 C73.81878829 16.45082349 76.78432634 17.06926132 79.75 17.6875 C81.75989117 18.11138432 83.76965849 18.53585633 85.77929688 18.9609375 C90.70542302 20.00272874 95.63388814 21.03226113 100.5625 22.0625 C100.5625 34.6025 100.5625 47.1425 100.5625 60.0625 C94.643125 60.248125 88.72375 60.43375 82.625 60.625 C80.77527588 60.70693604 78.92555176 60.78887207 77.01977539 60.87329102 C65.35888053 61.17351332 65.35888053 61.17351332 60.48583984 58.15966797 C58.22190931 55.90865573 56.39213946 53.67203043 54.5625 51.0625 C53.40819305 49.71845225 52.24347282 48.38317864 51.0625 47.0625 C50.50820313 46.41539063 49.95390625 45.76828125 49.3828125 45.1015625 C46.60579949 41.99083119 43.61482273 39.10443788 40.64453125 36.1796875 C38.86311728 34.36819337 37.22376971 32.53384437 35.625 30.5625 C33.07707045 27.47410055 32.40404031 27.14665403 28.4375 26.75 C24.29992707 27.08367524 22.15330888 28.10868634 18.59375 30.0390625 C12.12354812 33.29904883 4.23028928 34.44322422 -2.76171875 32.375 C-6.82160592 30.7207166 -9.91163721 28.79280571 -13.125 25.8125 C-15.35589616 23.81643501 -16.35589623 23.08556193 -19.3125 22.25 C-23.46825193 23.3304955 -25.93927311 25.60586675 -29.22265625 28.3046875 C-34.64946551 32.61167898 -39.76307178 33.60298914 -46.515625 33.42578125 C-52.64605665 32.66357518 -58.31303729 30.47880847 -63.4375 27.0625 C-67.76112389 26.49145533 -69.77312362 26.61958241 -73.4375 29.0625 C-76.37658663 31.82275332 -78.97389764 34.89047345 -81.5859375 37.95703125 C-83.45843689 40.08630798 -85.41533592 42.07547004 -87.4375 44.0625 C-90.73286668 47.30677572 -93.79999638 50.68252002 -96.796875 54.203125 C-97.60898438 55.12351562 -97.60898438 55.12351562 -98.4375 56.0625 C-98.95634766 56.75279297 -99.47519531 57.44308594 -100.00976562 58.15429688 C-103.47193595 60.87556832 -106.7079447 60.56390313 -110.921875 60.453125 C-111.6452002 60.44909668 -112.36852539 60.44506836 -113.11376953 60.44091797 C-115.80527256 60.4200536 -118.49641282 60.36420768 -121.1875 60.3125 C-127.21 60.23 -133.2325 60.1475 -139.4375 60.0625 C-139.4375 47.5225 -139.4375 34.9825 -139.4375 22.0625 C-136.034375 21.36125 -132.63125 20.66 -129.125 19.9375 C-112.69477962 16.52470464 -96.31634772 12.88436728 -79.96484375 9.11328125 C-76.99745064 8.4294494 -74.02998863 7.74591721 -71.0625 7.0625 C-70.32874146 6.89333069 -69.59498291 6.72416138 -68.83898926 6.54986572 C-56.97461095 3.8187918 -45.08211386 1.27093513 -33.14501953 -1.12304688 C-32.02337402 -1.34927734 -30.90172852 -1.57550781 -29.74609375 -1.80859375 C-28.76439209 -2.00380615 -27.78269043 -2.19901855 -26.77124023 -2.40014648 C-17.64087682 -4.50245111 -9.30053353 -1.9597385 0 0 Z " fill="#DF7D82" transform="translate(275.4375,41.9375)"/>
<path d="M0 0 C0.33 0 0.66 0 1 0 C1.12117188 0.56589844 1.24234375 1.13179688 1.3671875 1.71484375 C1.53476562 2.44832031 1.70234375 3.18179687 1.875 3.9375 C2.03742188 4.66839844 2.19984375 5.39929688 2.3671875 6.15234375 C2.82961523 8.20700294 2.82961523 8.20700294 5 9 C6.3680719 9.10315226 7.74091899 9.14642068 9.11282349 9.15821838 C9.97381653 9.1680072 10.83480957 9.17779602 11.72189331 9.18788147 C12.66847809 9.19363693 13.61506287 9.1993924 14.59033203 9.20532227 C15.58548828 9.21522186 16.58064453 9.22512146 17.60595703 9.23532104 C20.90655104 9.26699494 24.20715945 9.29171675 27.5078125 9.31640625 C29.79182314 9.33697069 32.07582992 9.35796702 34.35983276 9.37937927 C40.38007495 9.4346526 46.40035178 9.48403865 52.4206543 9.53222656 C58.56041559 9.58240322 64.70012639 9.63810928 70.83984375 9.69335938 C82.89318606 9.80100528 94.94657216 9.90243593 107 10 C107 14.62 107 19.24 107 24 C-52.06 24 -211.12 24 -375 24 C-375 19.38 -375 14.76 -375 10 C-373.19472713 9.99853344 -371.38945427 9.99706688 -369.52947617 9.99555588 C-326.70570235 9.95987773 -283.88199654 9.90367112 -241.05828445 9.82207905 C-235.79097246 9.81206122 -230.52366017 9.80221715 -225.25634766 9.79248047 C-224.20769111 9.7905391 -223.15903457 9.78859772 -222.07860056 9.78659752 C-205.0840412 9.75555025 -188.08949536 9.73858927 -171.09491298 9.72680578 C-153.66554374 9.71440833 -136.23624561 9.68693881 -118.80692124 9.64538693 C-108.04630688 9.62021118 -97.28581036 9.60688569 -86.52516612 9.60857043 C-79.15285795 9.60860011 -71.7806701 9.59403076 -64.40840879 9.56783572 C-60.15072783 9.55314304 -55.89329362 9.54502654 -51.63559151 9.55419731 C-47.7406684 9.56244505 -43.84624249 9.5524385 -39.9513934 9.52766338 C-38.53949868 9.52194918 -37.1275573 9.52304216 -35.71567628 9.53148755 C-33.80175935 9.54195853 -31.88775116 9.52561177 -29.9738884 9.50780869 C-28.37678469 9.50553036 -28.37678469 9.50553036 -26.74741626 9.50320601 C-23.29707189 8.87125444 -22.13854487 7.72932711 -20 5 C-19.67 4.01 -19.34 3.02 -19 2 C-12.73 2 -6.46 2 0 2 C0 1.34 0 0.68 0 0 Z " fill="#355D7C" transform="translate(390,450)"/>
<path d="M0 0 C50.49 0 100.98 0 153 0 C152.34 3.3 151.68 6.6 151 10 C150.73331603 13.45641219 150.73331603 13.45641219 150.8046875 16.6640625 C150.81113281 17.80488281 150.81757813 18.94570312 150.82421875 20.12109375 C150.84097656 21.27738281 150.85773438 22.43367188 150.875 23.625 C150.88402344 24.81996094 150.89304688 26.01492187 150.90234375 27.24609375 C150.92568923 30.16427834 150.95843344 33.08202776 151 36 C150.40309357 36.00808685 149.80618713 36.01617371 149.19119263 36.02450562 C142.9945903 36.11037197 136.79831452 36.20986693 130.60205078 36.31738281 C128.28765331 36.35573401 125.97319498 36.3905759 123.65869141 36.421875 C120.33734336 36.4673924 117.01641659 36.52540843 113.6953125 36.5859375 C112.65569366 36.59748871 111.61607483 36.60903992 110.54495239 36.62094116 C109.58410736 36.64081085 108.62326233 36.66068054 107.63330078 36.68115234 C106.78502716 36.69447601 105.93675354 36.70779968 105.06277466 36.7215271 C102.77813881 36.81776158 102.77813881 36.81776158 101 39 C100.60235737 40.98821313 100.26224651 42.98944339 100 45 C99.67 44.34 99.34 43.68 99 43 C92.73 43 86.46 43 80 43 C79.01 40.525 79.01 40.525 78 38 C75.0462593 36.52312965 72.03691741 36.82119041 68.79638672 36.79467773 C68.0548233 36.78477814 67.31325989 36.77487854 66.54922485 36.76467896 C64.09274512 36.73303637 61.63624603 36.70829569 59.1796875 36.68359375 C57.478602 36.6630266 55.77752164 36.64203019 54.07644653 36.62062073 C49.59499264 36.56537536 45.11349244 36.51597697 40.63195801 36.46777344 C35.25712508 36.4087538 29.88237695 36.34251228 24.50761414 36.27747345 C16.33846113 36.17943291 8.16925422 36.09059815 0 36 C0 24.12 0 12.24 0 0 Z " fill="#355C7B" transform="translate(15,167)"/>
<path d="M0 0 C3.68425991 0.50817378 4.89397724 1.1061918 7.39208984 3.74804688 C8.88855846 5.87451396 9.67984923 7.96399327 10.5703125 10.40625 C14.36262644 21.00853065 14.36262644 21.00853065 22.70947266 27.89892578 C29.65391165 29.78264 36.69333834 30.54178905 43.86694336 30.92016602 C47.28660825 31.63909176 48.50028331 32.76857481 50.625 35.5 C51.375 38.75 51.375 38.75 50.625 42.5 C48.86637092 44.71046829 46.94669764 46.54303619 44.859375 48.4453125 C42.05622538 51.02303401 39.63768173 53.84619456 37.16796875 56.73828125 C35.625 58.5 35.625 58.5 34.03540039 59.85668945 C32.24631969 61.94121467 32.31977564 62.85406031 32.515625 65.5546875 C32.56589844 66.33457031 32.61617188 67.11445313 32.66796875 67.91796875 C32.73628906 68.72878906 32.80460937 69.53960937 32.875 70.375 C32.92785156 71.17808594 32.98070312 71.98117188 33.03515625 72.80859375 C33.31677763 76.78403981 33.76058532 80.60304857 34.625 84.5 C35.10044716 88.93750685 35.15024793 90.77392198 32.5 94.4375 C29.06619158 96.9008843 27.76105151 96.87314378 23.625 96.5 C21.01953125 95.45849609 21.01953125 95.45849609 18.4375 94.0234375 C17.49132812 93.518125 16.54515625 93.0128125 15.5703125 92.4921875 C13.60346572 91.41224775 11.63991697 90.32628001 9.6796875 89.234375 C4.38804151 86.24325495 4.38804151 86.24325495 -1.46875 85.875 C-2.4278125 86.41125 -3.386875 86.9475 -4.375 87.5 C-5.8828501 88.22670381 -7.39355184 88.94750503 -8.90625 89.6640625 C-11.40640977 90.89625571 -13.90066264 92.13801092 -16.38671875 93.3984375 C-20.83391289 95.57607787 -24.29780428 97.2596415 -29.375 96.5 C-31.8125 94.75 -31.8125 94.75 -33.375 91.5 C-33.48452467 86.75132311 -32.7339758 82.0259153 -32.06689453 77.33203125 C-30.45175264 67.66797392 -30.45175264 67.66797392 -33.0703125 58.62890625 C-35.38348392 56.36670301 -37.79981709 54.4545598 -40.375 52.5 C-41.72456845 51.05457436 -43.04044785 49.57659167 -44.3125 48.0625 C-45.95895984 46.13579168 -47.58165936 44.29334064 -49.375 42.5 C-50.04511643 36.46895213 -50.04511643 36.46895213 -47.9296875 33.41015625 C-44.25923873 30.66573813 -40.57586337 30.1251769 -36.125 29.3125 C-34.89330078 29.0659668 -34.89330078 29.0659668 -33.63671875 28.81445312 C-32.82332031 28.65525391 -32.00992188 28.49605469 -31.171875 28.33203125 C-30.36516357 28.17250977 -29.55845215 28.01298828 -28.72729492 27.84863281 C-26.375 27.5 -26.375 27.5 -24.2043457 27.56542969 C-21.8306462 27.70291164 -21.8306462 27.70291164 -18.375 26.5 C-15.65510279 23.00416201 -13.89858325 19.13887532 -12.0625 15.125 C-11.05010544 13.01084439 -10.03335752 10.89876649 -9.01171875 8.7890625 C-8.57561279 7.84756348 -8.13950684 6.90606445 -7.69018555 5.93603516 C-5.56849085 2.00615402 -4.49697834 0.66621901 0 0 Z " fill="#020203" transform="translate(255.375,122.5)"/>
<path d="M0 0 C50.49 0 100.98 0 153 0 C153 11.88 153 23.76 153 36 C103.17 36 53.34 36 2 36 C2 27.42 2 18.84 2 10 C1.34 6.7 0.68 3.4 0 0 Z " fill="#355D7C" transform="translate(344,167)"/>
<path d="M0 0 C5.61 0 11.22 0 17 0 C17 74.91 17 149.82 17 227 C-7.42 227 -31.84 227 -57 227 C-57 226.67 -57 226.34 -57 226 C-38.19 226 -19.38 226 0 226 C0 151.42 0 76.84 0 0 Z " fill="#EAE7F9" transform="translate(454,218)"/>
<path d="M0 0 C1.00476883 -0.01606293 2.00953766 -0.03212585 3.04475403 -0.04867554 C7.64197153 -0.09307996 12.23904405 -0.13418828 16.83642578 -0.15722656 C19.26230458 -0.17379211 21.68813445 -0.20108966 24.11376953 -0.23925781 C27.60824958 -0.29397429 31.10158503 -0.31589332 34.59643555 -0.33056641 C35.67991776 -0.35323578 36.76339996 -0.37590515 37.87971497 -0.39926147 C42.41314848 -0.38652224 45.35778055 -0.26317838 49.35473633 1.97924805 C52.14959534 6.9252993 51.86567531 11.54440356 51.79956055 17.13427734 C51.8019725 18.29410629 51.80438446 19.45393524 51.80686951 20.64891052 C51.80589117 23.09743677 51.79250109 25.54598517 51.76757812 27.99438477 C51.73324415 31.745554 51.74692862 35.49437129 51.76635742 39.24560547 C51.75945984 41.6251728 51.74978825 44.00473405 51.73706055 46.38427734 C51.74202042 47.50725723 51.74698029 48.63023712 51.75209045 49.7872467 C51.72833595 51.35423561 51.72833595 51.35423561 51.70410156 52.95288086 C51.69790298 53.8704567 51.69170441 54.78803253 51.68531799 55.7334137 C50.9965416 59.02491496 49.85069769 60.20010241 47.1706543 62.19287109 C44.7111969 62.70753479 44.7111969 62.70753479 41.93066406 62.72631836 C40.88600479 62.74215469 39.84134552 62.75799103 38.76502991 62.77430725 C37.64205002 62.76934738 36.51907013 62.76438751 35.36206055 62.75927734 C34.20318832 62.76547592 33.0443161 62.7716745 31.85032654 62.77806091 C29.40006348 62.78516342 26.94975221 62.78197766 24.49951172 62.76928711 C20.75031651 62.75543451 17.00362254 62.78947474 13.25463867 62.82763672 C10.87377869 62.82858802 8.49291557 62.82672852 6.11206055 62.82177734 C4.99110489 62.83503555 3.87014923 62.84829376 2.71522522 62.86195374 C-1.91040017 62.80662557 -4.97183179 62.68018393 -9.03637695 60.37036133 C-11.75175006 55.55819071 -11.52538888 51.16300289 -11.45825195 45.72412109 C-11.46066391 44.61105591 -11.46307587 43.49799072 -11.46556091 42.35119629 C-11.46458267 40.00102165 -11.45119471 37.65082391 -11.42626953 35.30078125 C-11.39196544 31.70542039 -11.40561275 28.11251793 -11.42504883 24.51708984 C-11.41815023 22.23192314 -11.40847774 19.94676278 -11.39575195 17.66162109 C-11.40071182 16.58755005 -11.40567169 15.513479 -11.41078186 14.40686035 C-11.29336882 6.95902811 -11.29336882 6.95902811 -8.91894531 3.03857422 C-5.80723937 0.29006423 -4.06557611 0.05897996 0 0 Z " fill="#040404" transform="translate(400.829345703125,350.80712890625)"/>
<path d="M0 0 C1.11306519 -0.00241196 2.22613037 -0.00482391 3.3729248 -0.00730896 C5.72309944 -0.00633072 8.07329718 0.00705724 10.42333984 0.03198242 C14.0187007 0.06628651 17.61160317 0.0526392 21.20703125 0.03320312 C23.49219795 0.04010172 25.77735832 0.04977421 28.0625 0.0625 C29.13657104 0.05754013 30.21064209 0.05258026 31.31726074 0.04747009 C38.76509299 0.16488314 38.76509299 0.16488314 42.68554688 2.53930664 C45.43405686 5.65101259 45.66514113 7.39267585 45.72412109 11.45825195 C45.74018402 12.46302078 45.75624695 13.46778961 45.77279663 14.50300598 C45.81720105 19.10022348 45.85830938 23.697296 45.88134766 28.29467773 C45.89791321 30.72055653 45.92521075 33.1463864 45.96337891 35.57202148 C46.01809539 39.06650153 46.04001441 42.55983698 46.0546875 46.0546875 C46.07735687 47.13816971 46.10002625 48.22165192 46.12338257 49.33796692 C46.11064334 53.87140043 45.98729947 56.8160325 43.74487305 60.81298828 C38.79882179 63.6078473 34.17971754 63.32392726 28.58984375 63.2578125 C26.85010033 63.26143044 26.85010033 63.26143044 25.07521057 63.26512146 C22.62668432 63.26414312 20.17813593 63.25075304 17.72973633 63.22583008 C13.97856709 63.1914961 10.2297498 63.20518057 6.47851562 63.22460938 C4.09894829 63.21771179 1.71938704 63.20804021 -0.66015625 63.1953125 C-2.34462608 63.2027523 -2.34462608 63.2027523 -4.06312561 63.21034241 C-5.63011452 63.18658791 -5.63011452 63.18658791 -7.22875977 63.16235352 C-8.60512352 63.15305565 -8.60512352 63.15305565 -10.0092926 63.14356995 C-13.30079386 62.45479355 -14.47598132 61.30894964 -16.46875 58.62890625 C-16.9834137 56.16944885 -16.9834137 56.16944885 -17.00219727 53.38891602 C-17.0180336 52.34425674 -17.03386993 51.29959747 -17.05018616 50.22328186 C-17.04274635 48.53881203 -17.04274635 48.53881203 -17.03515625 46.8203125 C-17.04135483 45.66144028 -17.04755341 44.50256805 -17.05393982 43.30857849 C-17.06104233 40.85831543 -17.05785657 38.40800416 -17.04516602 35.95776367 C-17.03131341 32.20856846 -17.06535364 28.46187449 -17.10351562 24.71289062 C-17.10446692 22.33203064 -17.10260743 19.95116753 -17.09765625 17.5703125 C-17.11091446 16.44935684 -17.12417267 15.32840118 -17.13783264 14.17347717 C-17.08250448 9.54785178 -16.95606283 6.48642017 -14.64624023 2.421875 C-9.83406961 -0.29349811 -5.43888179 -0.06713693 0 0 Z " fill="#040404" transform="translate(76.46875,350.37109375)"/>
<path d="M0 0 C1.11306519 -0.0038269 2.22613037 -0.00765381 3.3729248 -0.01159668 C5.72307237 -0.01431514 8.07325022 -0.0069587 10.42333984 0.00976562 C14.01859049 0.03117462 17.61184269 0.00996003 21.20703125 -0.015625 C23.49219191 -0.01298171 25.77735132 -0.00785672 28.0625 0 C29.13657104 -0.00809692 30.21064209 -0.01619385 31.31726074 -0.02453613 C35.51351893 0.02813375 38.79656204 0.23545554 42.70874023 1.81054688 C45.77114613 6.38220814 45.22218411 11.22293392 45.16015625 16.59375 C45.16256821 17.77718994 45.16498016 18.96062988 45.16746521 20.17993164 C45.1664859 22.68151196 45.15307273 25.18311372 45.12817383 27.68457031 C45.09387731 31.51702379 45.10750997 35.34717117 45.12695312 39.1796875 C45.12005467 41.60938483 45.11038231 44.0390762 45.09765625 46.46875 C45.10261612 47.61674072 45.10757599 48.76473145 45.11268616 49.94750977 C45.08893166 51.54937134 45.08893166 51.54937134 45.06469727 53.18359375 C45.05849869 54.12195068 45.05230011 55.06030762 45.0459137 56.02709961 C44.36265313 59.35157583 43.24162396 60.52591744 40.53125 62.53125 C38.06506348 63.03918457 38.06506348 63.03918457 35.27539062 63.04882812 C33.70356018 63.06774109 33.70356018 63.06774109 32.09997559 63.08703613 C30.41080017 63.07489075 30.41080017 63.07489075 28.6875 63.0625 C26.94563416 63.06824036 26.94563416 63.06824036 25.1685791 63.07409668 C22.71410251 63.07681792 20.25959702 63.06944205 17.80517578 63.05273438 C14.04524159 63.03132965 10.28721841 63.05253088 6.52734375 63.078125 C4.14322494 63.07548176 1.75910733 63.07035688 -0.625 63.0625 C-1.75111694 63.07059692 -2.87723389 63.07869385 -4.03747559 63.08703613 C-5.08536255 63.07442749 -6.13324951 63.06181885 -7.21289062 63.04882812 C-8.13348267 63.04564575 -9.05407471 63.04246338 -10.00256348 63.03918457 C-13.30601201 62.35880793 -14.47483765 61.2234216 -16.46875 58.53125 C-16.9834137 56.02709961 -16.9834137 56.02709961 -17.00219727 53.18359375 C-17.0180336 52.11568604 -17.03386993 51.04777832 -17.05018616 49.94750977 C-17.04522629 48.79951904 -17.04026642 47.65152832 -17.03515625 46.46875 C-17.04135483 45.28531006 -17.04755341 44.10187012 -17.05393982 42.88256836 C-17.06104224 40.38103051 -17.05785673 37.87944543 -17.04516602 35.37792969 C-17.03130098 31.54534165 -17.065369 27.71519424 -17.10351562 23.8828125 C-17.10446679 21.4531244 -17.10260816 19.02343324 -17.09765625 16.59375 C-17.11091446 15.44575928 -17.12417267 14.29776855 -17.13783264 13.11499023 C-17.04722767 5.39482069 -17.04722767 5.39482069 -14.64624023 1.81054688 C-9.78513037 -0.14659609 -5.19487343 -0.03916174 0 0 Z " fill="#020202" transform="translate(326.46875,350.46875)"/>
<path d="M0 0 C1.11306519 -0.0038269 2.22613037 -0.00765381 3.3729248 -0.01159668 C5.72307237 -0.01431514 8.07325022 -0.0069587 10.42333984 0.00976562 C14.01859049 0.03117462 17.61184269 0.00996003 21.20703125 -0.015625 C23.49219191 -0.01298171 25.77735132 -0.00785672 28.0625 0 C29.13657104 -0.00809692 30.21064209 -0.01619385 31.31726074 -0.02453613 C35.51351893 0.02813375 38.79656204 0.23545554 42.70874023 1.81054688 C45.77114613 6.38220814 45.22218411 11.22293392 45.16015625 16.59375 C45.16256821 17.77718994 45.16498016 18.96062988 45.16746521 20.17993164 C45.1664859 22.68151196 45.15307273 25.18311372 45.12817383 27.68457031 C45.09387731 31.51702379 45.10750997 35.34717117 45.12695312 39.1796875 C45.12005467 41.60938483 45.11038231 44.0390762 45.09765625 46.46875 C45.10261612 47.61674072 45.10757599 48.76473145 45.11268616 49.94750977 C45.08893166 51.54937134 45.08893166 51.54937134 45.06469727 53.18359375 C45.05849869 54.12195068 45.05230011 55.06030762 45.0459137 56.02709961 C44.36265313 59.35157583 43.24162396 60.52591744 40.53125 62.53125 C38.06506348 63.03918457 38.06506348 63.03918457 35.27539062 63.04882812 C33.70356018 63.06774109 33.70356018 63.06774109 32.09997559 63.08703613 C30.41080017 63.07489075 30.41080017 63.07489075 28.6875 63.0625 C26.94563416 63.06824036 26.94563416 63.06824036 25.1685791 63.07409668 C22.71410251 63.07681792 20.25959702 63.06944205 17.80517578 63.05273438 C14.04524159 63.03132965 10.28721841 63.05253088 6.52734375 63.078125 C4.14322494 63.07548176 1.75910733 63.07035688 -0.625 63.0625 C-1.75111694 63.07059692 -2.87723389 63.07869385 -4.03747559 63.08703613 C-5.08536255 63.07442749 -6.13324951 63.06181885 -7.21289062 63.04882812 C-8.13348267 63.04564575 -9.05407471 63.04246338 -10.00256348 63.03918457 C-13.30601201 62.35880793 -14.47483765 61.2234216 -16.46875 58.53125 C-16.9834137 56.02709961 -16.9834137 56.02709961 -17.00219727 53.18359375 C-17.0180336 52.11568604 -17.03386993 51.04777832 -17.05018616 49.94750977 C-17.04522629 48.79951904 -17.04026642 47.65152832 -17.03515625 46.46875 C-17.04135483 45.28531006 -17.04755341 44.10187012 -17.05393982 42.88256836 C-17.06104224 40.38103051 -17.05785673 37.87944543 -17.04516602 35.37792969 C-17.03130098 31.54534165 -17.065369 27.71519424 -17.10351562 23.8828125 C-17.10446679 21.4531244 -17.10260816 19.02343324 -17.09765625 16.59375 C-17.11091446 15.44575928 -17.12417267 14.29776855 -17.13783264 13.11499023 C-17.04722767 5.39482069 -17.04722767 5.39482069 -14.64624023 1.81054688 C-9.78513037 -0.14659609 -5.19487343 -0.03916174 0 0 Z " fill="#020202" transform="translate(157.46875,350.46875)"/>
<path d="M0 0 C1.18343994 -0.00241196 2.36687988 -0.00482391 3.58618164 -0.00730896 C6.08776196 -0.00632965 8.58936372 0.00708352 11.09082031 0.03198242 C14.92327379 0.06627894 18.75342117 0.05264628 22.5859375 0.03320312 C25.01563483 0.04010158 27.4453262 0.04977394 29.875 0.0625 C31.02299072 0.05754013 32.17098145 0.05258026 33.35375977 0.04747009 C34.95562134 0.07122459 34.95562134 0.07122459 36.58984375 0.09545898 C37.52820068 0.10165756 38.46655762 0.10785614 39.43334961 0.11424255 C42.75782583 0.79750312 43.93216744 1.91853229 45.9375 4.62890625 C46.44543457 7.09509277 46.44543457 7.09509277 46.45507812 9.88476562 C46.46768677 10.93265259 46.48029541 11.98053955 46.49328613 13.06018066 C46.48518921 14.18629761 46.47709229 15.31241455 46.46875 16.47265625 C46.4725769 17.63390015 46.47640381 18.79514404 46.48034668 19.99157715 C46.48306792 22.44605374 46.47569205 24.90055923 46.45898438 27.35498047 C46.43757965 31.11491466 46.45878088 34.87293784 46.484375 38.6328125 C46.48173176 41.01693131 46.47660688 43.40104892 46.46875 45.78515625 C46.47684692 46.91127319 46.48494385 48.03739014 46.49328613 49.19763184 C46.48067749 50.2455188 46.46806885 51.29340576 46.45507812 52.37304688 C46.45030457 53.75393494 46.45030457 53.75393494 46.44543457 55.16271973 C45.76505793 58.46616826 44.6296716 59.6349939 41.9375 61.62890625 C39.43334961 62.14356995 39.43334961 62.14356995 36.58984375 62.16235352 C34.98798218 62.18610802 34.98798218 62.18610802 33.35375977 62.21034241 C32.20576904 62.20538254 31.05777832 62.20042267 29.875 62.1953125 C28.09984009 62.20461037 28.09984009 62.20461037 26.28881836 62.21409607 C23.78728051 62.22119849 21.28569543 62.21801298 18.78417969 62.20532227 C14.95159165 62.19145723 11.12144424 62.22552525 7.2890625 62.26367188 C4.8593744 62.26462304 2.42968324 62.26276441 0 62.2578125 C-1.72198608 62.27769981 -1.72198608 62.27769981 -3.47875977 62.29798889 C-11.19892931 62.20738392 -11.19892931 62.20738392 -14.78320312 59.80639648 C-16.74034609 54.94528662 -16.63291174 50.35502968 -16.59375 45.16015625 C-16.5975769 44.04709106 -16.60140381 42.93402588 -16.60534668 41.78723145 C-16.60806514 39.43708388 -16.6007087 37.08690603 -16.58398438 34.73681641 C-16.56257538 31.14156576 -16.58378997 27.54831356 -16.609375 23.953125 C-16.60673171 21.66796434 -16.60160672 19.38280493 -16.59375 17.09765625 C-16.60184692 16.02358521 -16.60994385 14.94951416 -16.61828613 13.84289551 C-16.56561625 9.64663732 -16.35829446 6.36359421 -14.78320312 2.45141602 C-10.21154186 -0.61098988 -5.37081608 -0.06202786 0 0 Z " fill="#020202" transform="translate(406.0625,270.37109375)"/>
<path d="M0 0 C1.06790771 -0.01583633 2.13581543 -0.03167267 3.23608398 -0.04798889 C4.38407471 -0.04302902 5.53206543 -0.03806915 6.71484375 -0.03295898 C7.89828369 -0.03915756 9.08172363 -0.04535614 10.30102539 -0.05174255 C12.80256324 -0.05884498 15.30414832 -0.05565946 17.80566406 -0.04296875 C21.6382521 -0.02910371 25.46839951 -0.06317174 29.30078125 -0.10131836 C31.73046935 -0.10226952 34.16016051 -0.1004109 36.58984375 -0.09545898 C37.73783447 -0.10871719 38.8858252 -0.1219754 40.06860352 -0.13563538 C47.78877306 -0.04503041 47.78877306 -0.04503041 51.37304688 2.35595703 C53.33018984 7.2170669 53.22275549 11.80732383 53.18359375 17.00219727 C53.18742065 18.11526245 53.19124756 19.22832764 53.19519043 20.37512207 C53.19790889 22.72526963 53.19055245 25.07544748 53.17382812 27.42553711 C53.15241913 31.02078776 53.17363372 34.61403995 53.19921875 38.20922852 C53.19657546 40.49438917 53.19145047 42.77954859 53.18359375 45.06469727 C53.19169067 46.13876831 53.1997876 47.21283936 53.20812988 48.31945801 C53.15546 52.5157162 52.94813821 55.79875931 51.37304688 59.7109375 C46.80138561 62.7733434 41.96065983 62.22438137 36.58984375 62.16235352 C34.81468384 62.16597145 34.81468384 62.16597145 33.00366211 62.16966248 C30.50208179 62.16868317 28.00048003 62.15527 25.49902344 62.13037109 C21.66656996 62.09607458 17.83642258 62.10970724 14.00390625 62.12915039 C11.57420892 62.12225194 9.14451755 62.11257957 6.71484375 62.09985352 C5.56685303 62.10481339 4.4188623 62.10977325 3.23608398 62.11488342 C2.16817627 62.09904709 1.10026855 62.08321075 0 62.06689453 C-0.93835693 62.06069595 -1.87671387 62.05449738 -2.84350586 62.04811096 C-6.16798208 61.36485039 -7.34232369 60.24382123 -9.34765625 57.53344727 C-9.85559082 55.06726074 -9.85559082 55.06726074 -9.86523438 52.27758789 C-9.87784302 51.22970093 -9.89045166 50.18181396 -9.90344238 49.10217285 C-9.89534546 47.97605591 -9.88724854 46.84993896 -9.87890625 45.68969727 C-9.88273315 44.52845337 -9.88656006 43.36720947 -9.89050293 42.17077637 C-9.89322417 39.71629977 -9.8858483 37.26179428 -9.86914062 34.80737305 C-9.8477359 31.04743885 -9.86893713 27.28941568 -9.89453125 23.52954102 C-9.89188801 21.14542221 -9.88676313 18.76130459 -9.87890625 16.37719727 C-9.88700317 15.25108032 -9.8951001 14.12496338 -9.90344238 12.96472168 C-9.89083374 11.91683472 -9.8782251 10.86894775 -9.86523438 9.78930664 C-9.862052 8.8687146 -9.85886963 7.94812256 -9.85559082 6.99963379 C-8.72108443 1.49123856 -5.23666855 0.03459227 0 0 Z " fill="#050506" transform="translate(69.34765625,270.466552734375)"/>
<path d="M0 0 C1.60197487 -0.01902626 1.60197487 -0.01902626 3.23631287 -0.03843689 C4.38946487 -0.03550125 5.54261688 -0.03256561 6.73071289 -0.02954102 C8.50799522 -0.03740379 8.50799522 -0.03740379 10.32118225 -0.04542542 C12.82869686 -0.05185333 15.33624158 -0.05049874 17.84375 -0.04199219 C21.68487166 -0.03348822 25.5245041 -0.06222613 29.36547852 -0.09399414 C31.79972286 -0.09560631 34.23396984 -0.09502832 36.66821289 -0.09204102 C38.39490456 -0.10889198 38.39490456 -0.10889198 40.15647888 -0.12608337 C41.22761429 -0.11670242 42.29874969 -0.10732147 43.40234375 -0.09765625 C44.81440346 -0.097407 44.81440346 -0.097407 46.25498962 -0.09715271 C49.59172713 0.56890514 50.75779378 1.68603842 52.76586914 4.40405273 C53.27380371 6.87023926 53.27380371 6.87023926 53.28344727 9.65991211 C53.29605591 10.70779907 53.30866455 11.75568604 53.32165527 12.83532715 C53.31355835 13.96144409 53.30546143 15.08756104 53.29711914 16.24780273 C53.30094604 17.40904663 53.30477295 18.57029053 53.30871582 19.76672363 C53.31143706 22.22120023 53.30406119 24.67570572 53.28735352 27.13012695 C53.26594879 30.89006115 53.28715002 34.64808432 53.31274414 38.40795898 C53.3101009 40.79207779 53.30497602 43.17619541 53.29711914 45.56030273 C53.30521606 46.68641968 53.31331299 47.81253662 53.32165527 48.97277832 C53.30904663 50.02066528 53.29643799 51.06855225 53.28344727 52.14819336 C53.27867371 53.52908142 53.27867371 53.52908142 53.27380371 54.93786621 C52.59331242 58.2418714 51.45959508 59.4110086 48.76586914 61.40405273 C46.25498962 61.9119873 46.25498962 61.9119873 43.40234375 61.92163086 C42.33120834 61.9342395 41.26007294 61.94684814 40.15647888 61.95983887 C39.0053511 61.95174194 37.85422333 61.94364502 36.66821289 61.93530273 C35.48240128 61.93912964 34.29658966 61.94295654 33.07484436 61.94689941 C30.56909333 61.94962063 28.06331399 61.94224497 25.55761719 61.92553711 C21.71428398 61.90411358 17.87281633 61.92534362 14.02954102 61.95092773 C11.59659417 61.94828487 9.16364848 61.94316075 6.73071289 61.93530273 C5.00098488 61.94744812 5.00098488 61.94744812 3.23631287 61.95983887 C2.16832962 61.94723022 1.10034637 61.93462158 0 61.92163086 C-0.94057755 61.91844849 -1.88115509 61.91526611 -2.85023499 61.9119873 C-5.23413086 61.40405273 -5.23413086 61.40405273 -7.03700256 59.70692444 C-8.47017661 56.9499802 -8.61445196 55.14158336 -8.62231445 52.04052734 C-8.63177094 50.96939194 -8.64122742 49.89825653 -8.65097046 48.79466248 C-8.64489777 47.6435347 -8.63882507 46.49240692 -8.63256836 45.30639648 C-8.63543854 44.12058487 -8.63830872 42.93477325 -8.64126587 41.71302795 C-8.64330677 39.2072807 -8.63777513 36.70151753 -8.62524414 34.19580078 C-8.60917766 30.35274803 -8.6251003 26.5107448 -8.64428711 22.66772461 C-8.64230496 20.23477957 -8.63846188 17.80183519 -8.63256836 15.36889648 C-8.63864105 14.21574448 -8.64471375 13.06259247 -8.65097046 11.87449646 C-8.64151398 10.80651321 -8.6320575 9.73852997 -8.62231445 8.63818359 C-8.61992767 7.69760605 -8.61754089 6.7570285 -8.61508179 5.78794861 C-8.23413086 3.40405273 -8.23413086 3.40405273 -7.03700256 1.60217285 C-4.59661644 -0.01961516 -2.92203791 0.01678514 0 0 Z " fill="#030405" transform="translate(318.234130859375,270.595947265625)"/>
<path d="M0 0 C1.09123169 -0.00938095 2.18246338 -0.0187619 3.3067627 -0.02842712 C4.48492554 -0.01719315 5.66308838 -0.00595917 6.87695312 0.00561523 C8.08637573 0.00416 9.29579834 0.00270477 10.54187012 0.00120544 C13.1006918 0.00286656 15.65952326 0.01445137 18.21826172 0.03515625 C22.1426828 0.06409454 26.0657527 0.05577175 29.99023438 0.04272461 C32.47331388 0.04896214 34.95638911 0.0573532 37.43945312 0.06811523 C39.20669739 0.06371178 39.20669739 0.06371178 41.00964355 0.05921936 C42.64649109 0.07824562 42.64649109 0.07824562 44.31640625 0.09765625 C45.27776489 0.10305923 46.23912354 0.10846222 47.22961426 0.11402893 C49.65820312 0.50170898 49.65820312 0.50170898 51.46681213 1.6998291 C53.08010203 4.13979602 53.04549835 5.81861247 53.06225586 8.73583984 C53.07494003 9.80382309 53.08762421 10.87180634 53.10069275 11.97215271 C53.09775711 13.12530472 53.09482147 14.27845673 53.09179688 15.46655273 C53.09703873 16.65140762 53.10228058 17.83626251 53.10768127 19.05702209 C53.11410919 21.5645367 53.1127546 24.07208143 53.10424805 26.57958984 C53.09574408 30.4207115 53.12448199 34.26034394 53.15625 38.10131836 C53.15786217 40.5355627 53.15728418 42.96980969 53.15429688 45.40405273 C53.17114784 47.1307444 53.17114784 47.1307444 53.18833923 48.89231873 C53.17426781 50.49902184 53.17426781 50.49902184 53.15991211 52.13818359 C53.15974594 53.07955673 53.15957977 54.02092987 53.15940857 54.99082947 C52.49335072 58.32756697 51.37621744 59.49363362 48.65820312 61.50170898 C46.1920166 62.00964355 46.1920166 62.00964355 43.40234375 62.01928711 C41.83051331 62.03820007 41.83051331 62.03820007 40.22692871 62.05749512 C38.5377533 62.04534973 38.5377533 62.04534973 36.81445312 62.03295898 C35.07258728 62.03869934 35.07258728 62.03869934 33.29553223 62.04455566 C30.84105563 62.0472769 28.38655014 62.03990103 25.93212891 62.02319336 C22.17219471 62.00178864 18.41417153 62.02298986 14.65429688 62.04858398 C12.27017807 62.04594075 9.88606045 62.04081586 7.50195312 62.03295898 C6.37583618 62.04105591 5.24971924 62.04915283 4.08947754 62.05749512 C3.04159058 62.04488647 1.99370361 62.03227783 0.9140625 62.01928711 C-0.00652954 62.01610474 -0.92712158 62.01292236 -1.87561035 62.00964355 C-5.17635153 61.32982452 -6.34818191 60.18989777 -8.34179688 57.50170898 C-8.84300232 55.03552246 -8.84300232 55.03552246 -8.84350586 52.24584961 C-8.85288681 51.19796265 -8.86226776 50.15007568 -8.87193298 49.07043457 C-8.86069901 47.94431763 -8.84946503 46.81820068 -8.83789062 45.65795898 C-8.83934586 44.49671509 -8.84080109 43.33547119 -8.84230042 42.13903809 C-8.84064086 39.68454478 -8.82907342 37.23004114 -8.80834961 34.77563477 C-8.77940619 31.01590835 -8.78773839 27.25759251 -8.80078125 23.49780273 C-8.79454361 21.11368129 -8.78615247 18.7295643 -8.77539062 16.34545898 C-8.77832626 15.21934204 -8.7812619 14.0932251 -8.7842865 12.9329834 C-8.77160233 11.88509644 -8.75891815 10.83720947 -8.74584961 9.75756836 C-8.74044662 8.83697632 -8.73504364 7.91638428 -8.72947693 6.96789551 C-7.85581925 1.41021261 -5.38577256 0.00093092 0 0 Z " fill="#030405" transform="translate(149.341796875,270.498291015625)"/>
<path d="M0 0 C14.52 0 29.04 0 44 0 C44 26.07 44 52.14 44 79 C29.48 79 14.96 79 0 79 C0 52.93 0 26.86 0 0 Z " fill="#E17E83" transform="translate(234,366)"/>
<path d="M0 0 C11.14390368 -0.11291211 22.28742815 -0.20466487 33.43177414 -0.25906086 C38.60642479 -0.28516681 43.78066419 -0.32058331 48.95507812 -0.37719727 C53.94770607 -0.43148111 58.93993819 -0.46141302 63.93283844 -0.47438622 C65.83869917 -0.48363261 67.74453797 -0.50168871 69.65023041 -0.52865028 C72.31775402 -0.56489292 74.98363741 -0.56994744 77.65136719 -0.56762695 C78.4411496 -0.58560333 79.23093201 -0.60357971 80.04464722 -0.62210083 C83.96280953 -0.5851646 85.6126966 -0.38118517 88.45635986 2.41755676 C92.42459917 9.05624962 94.06727699 15.23385682 93 23 C90.21505376 32.78494624 90.21505376 32.78494624 88 35 C85.2611158 35.09516211 82.54752059 35.12554594 79.80834961 35.11352539 C78.94988937 35.11367142 78.09142914 35.11381744 77.20695496 35.1139679 C74.35539262 35.11326847 71.50389475 35.1054747 68.65234375 35.09765625 C66.68079158 35.09579218 64.70923895 35.09436822 62.73768616 35.09336853 C57.53773733 35.08954251 52.33781625 35.07971152 47.13787842 35.06866455 C41.83606339 35.05845222 36.5342439 35.05387129 31.23242188 35.04882812 C20.82160041 35.03808932 10.41080685 35.02049185 0 35 C0 23.45 0 11.9 0 0 Z " fill="#BDD7FA" transform="translate(90,117)"/>
<path d="M0 0 C0.79697296 0.00719055 1.59394592 0.0143811 2.41506958 0.02178955 C3.2541687 0.0214975 4.09326782 0.02120544 4.95779419 0.02090454 C7.73906699 0.022301 10.52007389 0.03787698 13.30130005 0.05352783 C15.22658136 0.05725684 17.15186456 0.06010434 19.07714844 0.06210327 C24.15053525 0.06974857 29.22380799 0.08940473 34.29714966 0.11151123 C39.47169451 0.13195038 44.64625774 0.14110085 49.8208313 0.15118408 C59.97844163 0.17264981 70.13593727 0.20783923 80.29348755 0.24884033 C80.29348755 11.79884033 80.29348755 23.34884033 80.29348755 35.24884033 C51.25348755 35.24884033 22.21348755 35.24884033 -7.70651245 35.24884033 C-11.82367623 25.98522183 -13.89263938 17.40993835 -10.87057495 7.51055908 C-8.09200835 1.7967398 -6.30719095 0.02387299 0 0 Z " fill="#BDD7FA" transform="translate(341.7065124511719,116.75115966796875)"/>
<path d="M0 0 C2.04874497 1.80601637 3.92849693 3.59885768 5.8125 5.5625 C6.60382324 6.37460938 6.60382324 6.37460938 7.41113281 7.203125 C8.95078809 8.79281199 10.47686125 10.3945016 12 12 C12.77214844 12.80308594 13.54429687 13.60617188 14.33984375 14.43359375 C19 19.47494888 19 19.47494888 19 24 C17.7578125 26.55078125 17.7578125 26.55078125 16.125 29.3125 C10.22072076 39.89564204 9.26519616 50.58121563 12.375 62.375 C14.46816428 68.55625769 17.71979427 73.82217863 21.38232422 79.18115234 C26.50502788 86.78593023 28.57467033 94.09957631 28.5 103.25 C28.49427979 104.07701416 28.48855957 104.90402832 28.48266602 105.75610352 C28.26624113 113.25810409 26.4358918 119.31322596 23 126 C22.53851563 126.96808594 22.07703125 127.93617188 21.6015625 128.93359375 C8.32573013 154.30593327 -18.80568539 169.50559073 -44.6015625 179.390625 C-47 180 -47 180 -50 179 C-48.90042969 178.3709375 -47.80085938 177.741875 -46.66796875 177.09375 C-22.17688349 162.96758737 0.6403564 145.6470988 9.30859375 117.62109375 C13.10411044 103.23244009 11.07479467 89.92979715 4 77 C3.34 77 2.68 77 2 77 C1.71125 75.865625 1.4225 74.73125 1.125 73.5625 C0.75375 72.386875 0.3825 71.21125 0 70 C-0.99 69.505 -0.99 69.505 -2 69 C-7.03560046 58.67150562 -7.97770805 46.82477432 -4.25 35.9375 C-2.97282093 32.84946346 -1.66978408 30.52302145 0.25 27.75 C2.54712884 24.1402261 2.49855739 22.23328645 2 18 C0.29696098 15.61868164 -1.19473787 13.8233099 -3.25 11.8125 C-3.98669922 11.05163086 -3.98669922 11.05163086 -4.73828125 10.27539062 C-6.14135599 8.83302979 -7.57017441 7.41584685 -9 6 C-10.16789062 4.83017578 -10.16789062 4.83017578 -11.359375 3.63671875 C-11.90078125 3.09660156 -12.4421875 2.55648437 -13 2 C-11.5882217 1.46605821 -10.17029756 0.94834896 -8.75 0.4375 C-7.96109375 0.14746094 -7.1721875 -0.14257812 -6.359375 -0.44140625 C-3.59830072 -1.0951043 -2.58474648 -1.17266381 0 0 Z " fill="#60A0F6" transform="translate(304,86)"/>
<path d="M0 0 C14.52 0 29.04 0 44 0 C44 26.07 44 52.14 44 79 C29.48 79 14.96 79 0 79 C0 52.93 0 26.86 0 0 Z M1 1 C1 26.41 1 51.82 1 78 C9.58 78 18.16 78 27 78 C27 52.59 27 27.18 27 1 C18.42 1 9.84 1 1 1 Z " fill="#C2616A" transform="translate(234,366)"/>
<path d="M0 0 C0.66 0 1.32 0 2 0 C2.77923828 1.48113281 2.77923828 1.48113281 3.57421875 2.9921875 C4.2778593 4.28688611 4.9823302 5.58113368 5.6875 6.875 C6.19700195 7.85146484 6.19700195 7.85146484 6.71679688 8.84765625 C8.28628707 11.69327399 9.49008798 13.70765044 12.34375 15.34375 C13.65859375 15.66859375 13.65859375 15.66859375 15 16 C16.09957031 16.28101563 17.19914062 16.56203125 18.33203125 16.8515625 C20.05486328 17.23441406 20.05486328 17.23441406 21.8125 17.625 C22.97394531 17.88539063 24.13539063 18.14578125 25.33203125 18.4140625 C26.21246094 18.60742188 27.09289062 18.80078125 28 19 C26.53417985 22.42280517 24.61937745 24.56480483 21.9375 27.125 C19.08428067 29.77905 19.08428067 29.77905 17 33 C16.95410661 34.94306657 16.95410661 34.94306657 17.12109375 37.1328125 C17.16943359 37.93847656 17.21777344 38.74414062 17.26757812 39.57421875 C17.35168945 40.83685547 17.35168945 40.83685547 17.4375 42.125 C17.51581055 43.39923828 17.51581055 43.39923828 17.59570312 44.69921875 C17.72551378 46.79979124 17.8621174 48.89994191 18 51 C14.63697425 50.44820821 12.11821014 49.65890659 9.1875 47.9375 C5.0602271 45.85852053 1.56529 44.95866112 -3 46 C-7.45403799 47.77341444 -11.73442758 49.81519461 -16 52 C-16.1361509 44.78400227 -16.1361509 44.78400227 -15.53125 41.30078125 C-14.54647636 35.78444229 -14.54647636 35.78444229 -16.3515625 30.66015625 C-18.13460739 28.62293262 -19.98161754 26.8021272 -22 25 C-22.804375 24.175 -23.60875 23.35 -24.4375 22.5 C-24.953125 22.005 -25.46875 21.51 -26 21 C-25.505 19.515 -25.505 19.515 -25 18 C-23.90300781 17.87625 -22.80601562 17.7525 -21.67578125 17.625 C-13.78059107 16.81896215 -13.78059107 16.81896215 -6.96484375 13.265625 C-5.73158219 11.21944183 -4.85052048 9.23007285 -4 7 C-3.24926441 5.65524803 -2.47948905 4.32087666 -1.6875 3 C-1.130625 2.01 -0.57375 1.02 0 0 Z " fill="#F9DA7A" transform="translate(255,147)"/>
<path d="M0 0 C10.89 0 21.78 0 33 0 C33 10.56 33 21.12 33 32 C22.11 32 11.22 32 0 32 C0 21.44 0 10.88 0 0 Z " fill="#91B6E6" transform="translate(324,366)"/>
<path d="M0 0 C10.89 0 21.78 0 33 0 C33 10.56 33 21.12 33 32 C22.11 32 11.22 32 0 32 C0 21.44 0 10.88 0 0 Z " fill="#91B6E6" transform="translate(155,366)"/>
<path d="M0 0 C10.56 0 21.12 0 32 0 C32 10.89 32 21.78 32 33 C21.44 33 10.88 33 0 33 C0 22.11 0 11.22 0 0 Z " fill="#93B7E7" transform="translate(405,285)"/>
<path d="M0 0 C10.56 0 21.12 0 32 0 C32 10.56 32 21.12 32 32 C21.44 32 10.88 32 0 32 C0 21.44 0 10.88 0 0 Z " fill="#99C0F1" transform="translate(405,366)"/>
<path d="M0 0 C10.56 0 21.12 0 32 0 C32 10.56 32 21.12 32 32 C21.44 32 10.88 32 0 32 C0 21.44 0 10.88 0 0 Z " fill="#97BEF1" transform="translate(75,366)"/>
<path d="M0 0 C10.23 0 20.46 0 31 0 C31 10.23 31 20.46 31 31 C20.77 31 10.54 31 0 31 C0 20.77 0 10.54 0 0 Z " fill="#9DC6FB" transform="translate(325,286)"/>
<path d="M0 0 C10.23 0 20.46 0 31 0 C31 10.23 31 20.46 31 31 C20.77 31 10.54 31 0 31 C0 20.77 0 10.54 0 0 Z " fill="#9DC6FB" transform="translate(156,286)"/>
<path d="M0 0 C10.23 0 20.46 0 31 0 C31 10.23 31 20.46 31 31 C20.77 31 10.54 31 0 31 C0 20.77 0 10.54 0 0 Z " fill="#9DC6FB" transform="translate(75,286)"/>
<path d="M0 0 C50.49 0 100.98 0 153 0 C153 11.88 153 23.76 153 36 C103.17 36 53.34 36 2 36 C2 35.67 2 35.34 2 35 C46.22 35 90.44 35 136 35 C136 23.78 136 12.56 136 1 C91.12 1 46.24 1 0 1 C0 0.67 0 0.34 0 0 Z " fill="#294962" transform="translate(344,167)"/>
<path d="M0 0 C8.415 1.485 8.415 1.485 17 3 C17 15.54 17 28.08 17 41 C4.79 41 -7.42 41 -20 41 C-20 40.67 -20 40.34 -20 40 C-13.4 40 -6.8 40 0 40 C0 26.8 0 13.6 0 0 Z " fill="#C5626B" transform="translate(359,61)"/>
<path d="M0 0 C5.28 0 10.56 0 16 0 C16 11.55 16 23.1 16 35 C10.72 35 5.44 35 0 35 C0 23.45 0 11.9 0 0 Z " fill="#9DC6FB" transform="translate(406,117)"/>
<path d="M0 0 C4.95 0 9.9 0 15 0 C15 10.23 15 20.46 15 31 C10.05 31 5.1 31 0 31 C0 20.77 0 10.54 0 0 Z " fill="#BDD7FB" transform="translate(325,367)"/>
<path d="M0 0 C4.95 0 9.9 0 15 0 C15 10.23 15 20.46 15 31 C10.05 31 5.1 31 0 31 C0 20.77 0 10.54 0 0 Z " fill="#BDD7FB" transform="translate(156,367)"/>
<path d="M0 0 C4.95 0 9.9 0 15 0 C15 10.23 15 20.46 15 31 C10.05 31 5.1 31 0 31 C0 20.77 0 10.54 0 0 Z " fill="#BDD7FB" transform="translate(75,367)"/>
<path d="M0 0 C4.95 0 9.9 0 15 0 C15 10.23 15 20.46 15 31 C10.05 31 5.1 31 0 31 C0 20.77 0 10.54 0 0 Z " fill="#BDD7FB" transform="translate(325,286)"/>
<path d="M0 0 C4.95 0 9.9 0 15 0 C15 10.23 15 20.46 15 31 C10.05 31 5.1 31 0 31 C0 20.77 0 10.54 0 0 Z " fill="#BDD7FB" transform="translate(156,286)"/>
<path d="M0 0 C4.95 0 9.9 0 15 0 C15 10.23 15 20.46 15 31 C10.05 31 5.1 31 0 31 C0 20.77 0 10.54 0 0 Z " fill="#BDD7FB" transform="translate(75,286)"/>
<path d="M0 0 C4.62 0 9.24 0 14 0 C14 10.23 14 20.46 14 31 C9.38 31 4.76 31 0 31 C0 20.77 0 10.54 0 0 Z " fill="#BED8FB" transform="translate(406,367)"/>
<path d="M0 0 C4.62 0 9.24 0 14 0 C14 10.23 14 20.46 14 31 C9.38 31 4.76 31 0 31 C0 20.77 0 10.54 0 0 Z " fill="#BED8FB" transform="translate(406,286)"/>
</svg>
