<?xml version="1.0" encoding="UTF-8"?>
<svg version="1.1" xmlns="http://www.w3.org/2000/svg" width="512" height="512">
<path d="M0 0 C1.30051968 -0.00445668 1.30051968 -0.00445668 2.62731248 -0.0090034 C5.53201308 -0.01767367 8.43667238 -0.01919724 11.34138489 -0.02069092 C13.42439359 -0.0253203 15.50740145 -0.03034512 17.59040833 -0.03573608 C23.24969379 -0.04885106 28.90896739 -0.05530336 34.56826568 -0.05974674 C38.10533988 -0.06267909 41.64241084 -0.06678422 45.17948341 -0.07125092 C56.2501153 -0.08492384 67.32073979 -0.09459134 78.39137954 -0.09845281 C91.16332054 -0.10293236 103.93515446 -0.1204764 116.7070629 -0.1494534 C126.58409824 -0.17108324 136.46110348 -0.1811578 146.33816224 -0.18249393 C152.23498643 -0.18354107 158.13170992 -0.18942966 164.02850914 -0.20731354 C169.5779254 -0.22381651 175.12716551 -0.22593883 180.6765976 -0.21717453 C182.70906611 -0.21640534 184.74154418 -0.22073128 186.77398872 -0.23063278 C211.70606548 -0.34493428 211.70606548 -0.34493428 220.68830872 8.23809814 C226.57902654 14.86345515 227.74511372 21.39920714 227.66096497 30.03497314 C227.01348816 37.18419625 223.5287092 43.21531698 218.37971497 48.14044189 C212.73534072 51.71426679 209.20285147 53.14044189 202.37971497 53.14044189 C202.37971497 64.69044189 202.37971497 76.24044189 202.37971497 88.14044189 C206.36154846 88.11949463 210.34338196 88.09854736 214.44587708 88.07696533 C227.60939329 88.01065348 240.77290701 87.96628571 253.93654537 87.93319321 C261.91679353 87.91259676 269.89688308 87.88453228 277.87702942 87.83868408 C284.83519922 87.7987266 291.79325412 87.77298788 298.75153548 87.76408792 C302.43353066 87.75888815 306.1151972 87.74672854 309.79708672 87.71752167 C313.91453807 87.68512674 318.03142358 87.68448817 322.14900208 87.68634033 C323.36029282 87.67195923 324.57158356 87.65757813 325.81958008 87.64276123 C334.55306411 87.68520433 340.36921963 89.51819494 347.62971497 94.26544189 C353.54131168 100.44574755 355.69477393 106.19886267 355.94221497 114.76544189 C355.7282272 120.83046655 354.91371846 125.20268788 351.37971497 130.14044189 C350.82283997 131.02731689 350.26596497 131.91419189 349.69221497 132.82794189 C347.43242538 135.08773148 345.5230734 136.2772624 342.73518372 137.78497314 C341.92073792 138.22816895 341.10629211 138.67136475 340.26716614 139.12799072 C339.64430725 139.46209961 339.02144836 139.7962085 338.37971497 140.14044189 C338.37751513 141.11531445 338.37751513 141.11531445 338.37527084 142.1098814 C338.33821437 157.92593839 338.27921532 173.74173842 338.19581223 189.55761242 C338.15600779 197.20607542 338.1236225 204.85443532 338.10871887 212.50299072 C338.09570955 219.16971665 338.06876358 225.83621586 338.0251019 232.50281411 C338.00247051 236.03257948 337.98680526 239.56206505 337.98783112 243.09190941 C337.98871532 247.03304413 337.95848393 250.97360688 337.9256134 254.91461182 C337.93064377 256.08417923 337.93567413 257.25374664 337.94085693 258.45875549 C337.83904994 266.32851362 337.83904994 266.32851362 335.53309631 270.40455627 C333.37971497 272.14044189 333.37971497 272.14044189 330.37971497 272.14044189 C330.37971497 278.41044189 330.37971497 284.68044189 330.37971497 291.14044189 C332.02971497 291.80044189 333.67971497 292.46044189 335.37971497 293.14044189 C337.69714197 296.61658239 337.63258451 297.95231105 337.64041138 302.05497742 C337.64749619 303.29020142 337.65458099 304.52542542 337.66188049 305.79808044 C337.6595866 307.16928137 337.6570769 308.54048195 337.65437317 309.91168213 C337.65871975 311.3538947 337.66390272 312.79610496 337.66986084 314.23831177 C337.68326802 318.15772514 337.68382761 322.07704219 337.68129754 325.99647403 C337.68022898 329.26694742 337.68510825 332.53740124 337.68990296 335.80787045 C337.70100411 343.52266498 337.70143216 351.23741082 337.69538879 358.95220947 C337.68934757 366.91443929 337.70166234 374.87649246 337.72295886 382.83869213 C337.74056448 389.67189107 337.74657787 396.50503372 337.74332112 403.33825451 C337.74150643 407.42069077 337.74416279 411.50300104 337.75803566 415.58541679 C337.77059254 419.42433092 337.76869042 423.26296933 337.75562477 427.10187912 C337.75325473 428.51119008 337.75600897 429.92052032 337.76424789 431.32980919 C337.77467987 433.25282181 337.76483185 435.17591267 337.75393677 437.09892273 C337.75418838 438.71359011 337.75418838 438.71359011 337.75444508 440.36087704 C337.32759704 443.52702717 336.6098461 444.88244414 334.37971497 447.14044189 C330.78581569 448.33840832 327.51826758 448.28087266 323.77807808 448.27186966 C322.99270914 448.27392229 322.2073402 448.27597493 321.3981722 448.27808976 C318.74455353 448.2837817 316.0909864 448.28229982 313.43736267 448.28088379 C311.52442899 448.28346616 309.61149585 448.28647896 307.69856346 448.28988719 C302.42466163 448.29797534 297.1507734 448.29974777 291.8768661 448.30048466 C286.19578481 448.30233204 280.51471062 448.30987771 274.83363342 448.31661987 C262.40412064 448.33021605 249.97461108 448.33622976 237.54509211 448.34063053 C229.78916893 448.34339048 222.03324701 448.34762734 214.27732468 448.3521347 C192.81758997 448.36432847 171.3578569 448.37466335 149.89811897 448.3780098 C148.51013064 448.37823143 147.12214231 448.37845321 145.73415398 448.37867515 C144.34278603 448.37889579 142.95141808 448.37911627 141.56005013 448.3793366 C138.76865586 448.37977915 135.97726158 448.38022627 133.18586731 448.38067627 C132.14771048 448.38084036 132.14771048 448.38084036 131.08858078 448.38100776 C108.63872437 448.38463973 86.18890023 448.40056508 63.73905618 448.42386663 C40.01251342 448.44844838 16.28599449 448.46217511 -7.44056237 448.46337771 C-20.37786698 448.46429583 -33.31512933 448.47008238 -46.25242233 448.48819733 C-57.26633072 448.50356445 -68.2801838 448.50873883 -79.29410087 448.50045922 C-84.91692268 448.49654083 -90.53963301 448.49754011 -96.16244125 448.51151657 C-101.30559077 448.52418427 -106.44854421 448.52312114 -111.59169318 448.51092586 C-113.45641953 448.50895644 -115.32115944 448.51210419 -117.1858667 448.52077022 C-119.71314077 448.53177572 -122.23971212 448.52443707 -124.76696587 448.51237869 C-125.86260138 448.52377148 -125.86260138 448.52377148 -126.98037094 448.53539443 C-131.35631573 448.49006505 -134.13914723 447.83195783 -137.62028503 445.14044189 C-138.87004076 442.64093044 -138.73945084 440.97665775 -138.73101711 438.17904282 C-138.73032457 437.12329205 -138.72963202 436.06754129 -138.72891849 434.97979808 C-138.7230754 433.81075915 -138.71723231 432.64172021 -138.71121216 431.43725586 C-138.70909448 430.20246404 -138.7069768 428.96767222 -138.70479494 427.69546247 C-138.69950712 424.97628739 -138.69239103 422.2571856 -138.6822834 419.53803062 C-138.6659269 415.11433443 -138.6565016 410.69063978 -138.64823914 406.266922 C-138.6390618 401.50452404 -138.62946235 396.74212908 -138.61766136 391.9797368 C-138.58866921 380.16864883 -138.57711019 368.35763082 -138.57623291 356.54650879 C-138.5761392 355.6930865 -138.57604549 354.83966421 -138.57594895 353.96038064 C-138.57522695 346.93061848 -138.57522374 339.90085636 -138.57544903 332.87109417 C-138.57561028 326.53525804 -138.57509809 320.1994224 -138.57365417 313.86358643 C-138.57345618 312.96013502 -138.57325819 312.05668361 -138.5730542 311.12585488 C-138.56885575 296.48647802 -138.53229273 281.84734127 -138.48469799 267.20804903 C-138.43668426 252.18548843 -138.42661857 237.16323628 -138.45103747 222.14061761 C-138.46484029 212.87045126 -138.44846191 203.60133352 -138.3935693 194.33131513 C-138.35871383 187.97831857 -138.36039966 181.62599324 -138.39095425 175.27297702 C-138.40748447 171.60579856 -138.40767826 167.94050879 -138.36431313 164.27350807 C-138.31771781 160.29866137 -138.34831859 156.32654771 -138.38650513 152.3515625 C-138.36058554 151.19144645 -138.33466596 150.03133041 -138.30796093 148.83605933 C-138.37638868 145.63301048 -138.5157906 143.15023904 -139.62028503 140.14044189 C-142.03639439 137.97588033 -144.32504499 136.63900989 -147.25605208 135.2628262 C-150.2029505 133.86383016 -151.54836285 132.24853567 -153.18278503 129.45294189 C-153.6378241 128.70657471 -154.09286316 127.96020752 -154.56169128 127.19122314 C-158.02224961 120.48718948 -157.75968126 111.35898695 -155.81950378 104.17559814 C-152.61777413 97.03497085 -147.15202814 91.88113392 -139.83227348 89.06953621 C-136.64994448 88.14902114 -134.14822827 87.8936972 -130.8495636 87.89993286 C-129.72223312 87.89718353 -128.59490265 87.8944342 -127.43341064 87.89160156 C-125.60029579 87.90238739 -125.60029579 87.90238739 -123.73014832 87.91339111 C-122.43204727 87.91309906 -121.13394623 87.91280701 -119.79650879 87.9125061 C-116.24940069 87.91193378 -112.70242867 87.92366849 -109.15535212 87.93765402 C-105.4437902 87.95018151 -101.73222494 87.95133347 -98.02064514 87.95370483 C-90.99782866 87.95991368 -83.97507466 87.97631641 -76.95228565 87.99640381 C-68.95472585 88.01878137 -60.95716303 88.02976091 -52.95957971 88.03979468 C-36.51310583 88.06068319 -20.066718 88.09735196 -3.62028503 88.14044189 C-3.62028503 76.59044189 -3.62028503 65.04044189 -3.62028503 53.14044189 C-6.26028503 53.14044189 -8.90028503 53.14044189 -11.62028503 53.14044189 C-17.70271267 51.8089652 -22.66798641 48.99270257 -26.22184753 43.80059814 C-30.99203098 36.10274287 -32.50806868 30.24022424 -31.62028503 21.14044189 C-29.40116942 13.39765808 -25.11596553 7.40005442 -18.12028503 3.32794189 C-12.22189507 0.11913468 -6.61206533 -0.00709603 0 0 Z " fill="#010101" transform="translate(156.6202850341797,31.85955810546875)"/>
<path d="M0 0 C57.42 0 114.84 0 174 0 C174 125.07 174 250.14 174 379 C165.75 379 157.5 379 149 379 C148.67 342.04 148.34 305.08 148 267 C144.71759967 266.17939992 142.474139 265.87449707 139.17332458 265.87301636 C137.72013824 265.86878662 137.72013824 265.86878662 136.2375946 265.86447144 C135.18135391 265.86649567 134.12511322 265.8685199 133.03686523 265.87060547 C131.91943939 265.86885315 130.80201355 265.86710083 129.65072632 265.86529541 C125.95333305 265.86089041 122.25598752 265.86380997 118.55859375 265.8671875 C115.99316906 265.86651412 113.42774442 265.86554381 110.86231995 265.86428833 C105.4847853 265.86281323 100.10726864 265.86486488 94.72973633 265.86962891 C88.51196583 265.87507368 82.2942281 265.87330603 76.07645839 265.8678025 C70.09423713 265.86271938 64.1120319 265.86325519 58.12980843 265.86618423 C55.58402565 265.86685263 53.03824205 265.86602811 50.49246025 265.86370468 C46.93953082 265.86117363 43.38666492 265.86502511 39.83374023 265.87060547 C38.77547531 265.86858124 37.71721039 265.86655701 36.62687683 265.86447144 C35.66090576 265.86729126 34.69493469 265.87011108 33.69969177 265.87301636 C32.85960288 265.87339338 32.01951399 265.87377041 31.15396786 265.87415886 C28.81500385 265.91702153 28.81500385 265.91702153 26 267 C25.67 303.96 25.34 340.92 25 379 C16.75 379 8.5 379 0 379 C0 253.93 0 128.86 0 0 Z " fill="#F7F5F6" transform="translate(169,85)"/>
<path d="M0 0 C39.93 0 79.86 0 121 0 C121.02578125 9.20519531 121.0515625 18.41039062 121.078125 27.89453125 C121.10328114 33.71421421 121.1294405 39.53386376 121.16015625 45.35351562 C121.20875887 54.59773554 121.25317767 63.84184428 121.27099609 73.08618164 C121.28399064 79.81807715 121.31089859 86.54974752 121.35461307 93.28151625 C121.37727786 96.84698799 121.39290771 100.41218154 121.39188385 103.9777317 C121.39100212 107.95519551 121.42117934 111.93208883 121.45410156 115.90942383 C121.4490712 117.09553253 121.44404083 118.28164124 121.43885803 119.50369263 C121.45277084 120.58482834 121.46668365 121.66596405 121.48101807 122.77986145 C121.48470524 123.72101209 121.48839241 124.66216272 121.49219131 125.63183308 C121.79740823 128.13699721 121.79740823 128.13699721 123.84493637 129.76375866 C126.06433798 131.13130858 126.06433798 131.13130858 129 132 C129 138.27 129 144.54 129 151 C127.02 151.99 125.04 152.98 123 154 C121.28374661 155.71625339 121.85676738 157.97710328 121.84178162 160.32130432 C121.8319928 161.47541809 121.82220398 162.62953186 121.81211853 163.81861877 C121.80636307 165.09607468 121.8006076 166.37353058 121.79467773 167.68969727 C121.78510436 169.03958439 121.77509461 170.38946848 121.76467896 171.73934937 C121.73756517 175.41477343 121.71659079 179.09021042 121.69667697 182.7656796 C121.6748572 186.60275729 121.64744896 190.43979485 121.62062073 194.27684021 C121.57063946 201.54768307 121.52572087 208.81854814 121.48259836 216.08943456 C121.42405669 225.91116001 121.35774074 235.73283271 121.29184818 245.55451107 C121.18818852 261.03630522 121.09495592 276.51814436 121 292 C81.07 292 41.14 292 0 292 C0 195.64 0 99.28 0 0 Z " fill="#BCB7DB" transform="translate(358,172)"/>
<path d="M0 0 C39.93 0 79.86 0 121 0 C121 96.36 121 192.72 121 292 C81.07 292 41.14 292 0 292 C0 195.64 0 99.28 0 0 Z " fill="#BCB7DB" transform="translate(33,172)"/>
<path d="M0 0 C57.42 0 114.84 0 174 0 C174 125.07 174 250.14 174 379 C167.73 379 161.46 379 155 379 C154.99761165 377.16472653 154.99522329 375.32945307 154.99276257 373.43856525 C154.93543423 329.89776004 154.86272616 286.35700315 154.77101372 242.81625615 C154.75974521 237.46010525 154.74860681 232.10395408 154.73754883 226.74780273 C154.7342433 225.14829585 154.7342433 225.14829585 154.730871 223.5164757 C154.69547408 206.23806917 154.67062347 188.95966269 154.64965298 171.68123332 C154.62790999 153.95919562 154.5948739 136.23720508 154.55129844 118.51520747 C154.52475582 107.57496557 154.50707969 96.63478246 154.50065396 85.69450995 C154.49540806 78.19793254 154.479218 70.70142918 154.45433434 63.20489142 C154.44029195 58.87624129 154.43115872 54.5477238 154.43499184 50.21904945 C154.43839302 46.25815206 154.4280898 42.29753835 154.40676448 38.33669909 C154.40148043 36.90190526 154.40127857 35.46708209 154.40660437 34.03228841 C154.41309739 32.08506964 154.39945023 30.13781464 154.38476086 28.19064045 C154.38286225 27.10805779 154.38096365 26.02547513 154.37900752 24.91008693 C153.94533786 21.58029441 152.97934982 19.68980114 151 17 C148.2852518 15.6426259 146.14342978 15.85966723 143.10287476 15.84178162 C141.21818733 15.82709839 141.21818733 15.82709839 139.29542542 15.81211853 C137.89535561 15.80621396 136.4952854 15.80040354 135.09521484 15.79467773 C133.62695539 15.78510181 132.15869871 15.7750919 130.69044495 15.76467896 C126.6969068 15.73759287 122.70335679 15.7166034 118.70977736 15.69667697 C114.53905025 15.67484022 110.36835986 15.64744025 106.19766235 15.62062073 C98.29644672 15.57066253 90.39521075 15.52573532 82.49395525 15.48259836 C73.50010174 15.43325268 64.50628505 15.37832467 55.51246715 15.32291877 C37.00834541 15.20905073 18.5041884 15.10242023 0 15 C0 10.05 0 5.1 0 0 Z " fill="#DDDAEC" transform="translate(169,85)"/>
<path d="M0 0 C0.77916779 -0.0066568 1.55833557 -0.0133136 2.3611145 -0.02017212 C4.00683234 -0.03027991 5.652591 -0.03498972 7.29833984 -0.03466797 C9.80505573 -0.03903592 12.31000228 -0.07535767 14.81640625 -0.11328125 C16.41926485 -0.11915106 18.02213176 -0.12311935 19.625 -0.125 C20.74091019 -0.14655655 20.74091019 -0.14655655 21.87936401 -0.16854858 C27.04623464 -0.12360392 30.02124838 0.99000166 33.9453125 4.3359375 C36.19398473 7.46683692 36.18096692 10.1844217 36.140625 13.9765625 C36.13417969 15.04648438 36.12773437 16.11640625 36.12109375 17.21875 C36.09595703 18.88550781 36.09595703 18.88550781 36.0703125 20.5859375 C36.06128906 21.71257812 36.05226563 22.83921875 36.04296875 24 C36.01941908 26.77886115 35.9865293 29.5572914 35.9453125 32.3359375 C36.67645264 32.30975342 37.40759277 32.28356934 38.16088867 32.2565918 C41.48464332 32.15243606 44.80805444 32.08755129 48.1328125 32.0234375 C49.28330078 31.98154297 50.43378906 31.93964844 51.61914062 31.89648438 C59.98639323 31.77521984 59.98639323 31.77521984 62.82666016 33.43603516 C64.18359375 34.79296875 64.18359375 34.79296875 65.9453125 37.3359375 C66.2753125 37.6659375 66.6053125 37.9959375 66.9453125 38.3359375 C67.23799065 43.82050366 67.25941542 49.30768767 67.29541016 54.79931641 C67.31194887 56.65003045 67.33921149 58.50068116 67.37744141 60.35107422 C67.43228213 63.01824103 67.45409669 65.68390736 67.46875 68.3515625 C67.49141937 69.17569641 67.51408875 69.99983032 67.53744507 70.84893799 C67.52148399 75.20151913 67.36000607 76.8193997 64.53759766 80.33496094 C60.84103539 83.18832544 59.11094452 83.45786188 54.5 83.43359375 C52.88544922 83.42875977 52.88544922 83.42875977 51.23828125 83.42382812 C50.11035156 83.41544922 48.98242188 83.40707031 47.8203125 83.3984375 C46.11681641 83.39166992 46.11681641 83.39166992 44.37890625 83.38476562 C41.56765612 83.37295365 38.7565102 83.35648257 35.9453125 83.3359375 C35.96102295 84.03678467 35.9767334 84.73763184 35.99291992 85.4597168 C36.05543662 88.64754101 36.09435631 91.83523601 36.1328125 95.0234375 C36.15794922 96.12623047 36.18308594 97.22902344 36.20898438 98.36523438 C36.21865234 99.43193359 36.22832031 100.49863281 36.23828125 101.59765625 C36.2539917 102.57694092 36.26970215 103.55622559 36.28588867 104.56518555 C35.80119264 108.5084223 34.45006742 111.15358209 31.30444336 113.62524414 C27.64704807 114.72704252 23.98644346 114.68216461 20.19921875 114.70703125 C19.35109116 114.71605972 18.50296356 114.7250882 17.62913513 114.73439026 C15.83799766 114.74887651 14.04680747 114.75777546 12.25561523 114.76147461 C9.5204137 114.77338264 6.78746079 114.82259067 4.05273438 114.87304688 C2.30990681 114.88251044 0.56706544 114.88974579 -1.17578125 114.89453125 C-1.990504 114.91406357 -2.80522675 114.93359589 -3.64463806 114.95372009 C-7.96704603 114.91949246 -9.55821312 114.73576606 -13.04711914 111.92602539 C-15.91009058 108.23232917 -16.17662586 106.50422601 -16.15234375 101.890625 C-16.14912109 100.81425781 -16.14589844 99.73789063 -16.14257812 98.62890625 C-16.13419922 97.50097656 -16.12582031 96.37304688 -16.1171875 95.2109375 C-16.11267578 94.07527344 -16.10816406 92.93960938 -16.10351562 91.76953125 C-16.09170365 88.95828112 -16.07523257 86.1471352 -16.0546875 83.3359375 C-17.15139771 83.37521362 -17.15139771 83.37521362 -18.27026367 83.4152832 C-21.59401832 83.51943894 -24.91742944 83.58432371 -28.2421875 83.6484375 C-29.39267578 83.69033203 -30.54316406 83.73222656 -31.72851562 83.77539062 C-40.06490228 83.89620782 -40.06490228 83.89620782 -42.93603516 82.27099609 C-46.70712293 78.57590001 -47.18246606 75.55512012 -47.27058411 70.44389343 C-47.28166451 69.23609978 -47.28166451 69.23609978 -47.29296875 68.00390625 C-47.3010405 67.17514481 -47.30911224 66.34638336 -47.31742859 65.49250793 C-47.33126971 63.73648165 -47.34199174 61.98042846 -47.34985352 60.22436523 C-47.36705401 57.54423741 -47.41093676 54.86534722 -47.45507812 52.18554688 C-47.46520629 50.47917574 -47.47372201 48.77279411 -47.48046875 47.06640625 C-47.49797684 46.26728317 -47.51548492 45.4681601 -47.53352356 44.64482117 C-47.51812431 40.67624074 -47.34184351 38.78641372 -45.15307617 35.3527832 C-41.83008811 32.1589258 -39.90360274 32.21548843 -35.390625 32.23828125 C-34.26914063 32.24150391 -33.14765625 32.24472656 -31.9921875 32.24804688 C-30.8165625 32.25642578 -29.6409375 32.26480469 -28.4296875 32.2734375 C-27.24632812 32.27794922 -26.06296875 32.28246094 -24.84375 32.28710938 C-21.91401243 32.29892283 -18.98437478 32.31539492 -16.0546875 32.3359375 C-16.07563477 31.64032715 -16.09658203 30.9447168 -16.11816406 30.22802734 C-16.2016573 27.05581292 -16.25345279 23.88383019 -16.3046875 20.7109375 C-16.35496094 19.06931641 -16.35496094 19.06931641 -16.40625 17.39453125 C-16.48267003 11.08987898 -16.49961908 7.01399486 -12.0546875 2.3359375 C-8.3369292 -0.22244825 -4.34917755 0.01294102 0 0 Z " fill="#030303" transform="translate(246.0546875,120.6640625)"/>
<path d="M0 0 C39.93 0 79.86 0 121 0 C121.02578125 9.20519531 121.0515625 18.41039062 121.078125 27.89453125 C121.10328114 33.71421421 121.1294405 39.53386376 121.16015625 45.35351562 C121.20875887 54.59773554 121.25317767 63.84184428 121.27099609 73.08618164 C121.28399064 79.81807715 121.31089859 86.54974752 121.35461307 93.28151625 C121.37727786 96.84698799 121.39290771 100.41218154 121.39188385 103.9777317 C121.39100212 107.95519551 121.42117934 111.93208883 121.45410156 115.90942383 C121.4490712 117.09553253 121.44404083 118.28164124 121.43885803 119.50369263 C121.45277084 120.58482834 121.46668365 121.66596405 121.48101807 122.77986145 C121.48470524 123.72101209 121.48839241 124.66216272 121.49219131 125.63183308 C121.79740823 128.13699721 121.79740823 128.13699721 123.84493637 129.76375866 C126.06433798 131.13130858 126.06433798 131.13130858 129 132 C129 138.27 129 144.54 129 151 C127.02 151.99 125.04 152.98 123 154 C121.28374661 155.71625339 121.85676738 157.97710328 121.84178162 160.32130432 C121.8319928 161.47541809 121.82220398 162.62953186 121.81211853 163.81861877 C121.80636307 165.09607468 121.8006076 166.37353058 121.79467773 167.68969727 C121.78510436 169.03958439 121.77509461 170.38946848 121.76467896 171.73934937 C121.73756517 175.41477343 121.71659079 179.09021042 121.69667697 182.7656796 C121.6748572 186.60275729 121.64744896 190.43979485 121.62062073 194.27684021 C121.57063946 201.54768307 121.52572087 208.81854814 121.48259836 216.08943456 C121.43327233 224.36502202 121.37833707 232.64056923 121.32291877 240.91611779 C121.20901533 257.94404158 121.10239358 274.97200324 121 292 C115.06 292 109.12 292 103 292 C102.99761165 290.60095019 102.99522329 289.20190039 102.99276257 287.76045513 C102.93544196 254.57346035 102.86273947 221.38653586 102.77101372 188.19961847 C102.75974513 184.11769843 102.74860674 180.03577804 102.73754883 175.95385742 C102.73534514 175.14119714 102.73314146 174.32853685 102.730871 173.49125049 C102.69546803 160.32097277 102.67062085 147.15069512 102.64965298 133.98038741 C102.62791478 120.47329652 102.59488332 106.96626754 102.55129844 93.45922929 C102.52474746 85.12007035 102.50707752 76.78098862 102.50065396 68.44178949 C102.49541057 62.72858352 102.47922915 57.01547482 102.45433434 51.30232092 C102.44028305 48.00273179 102.43277937 44.70335243 102.43499184 41.40372849 C102.4366316 37.83125769 102.42005619 34.25933182 102.39872742 30.68693542 C102.40357499 29.63733601 102.40842257 28.5877366 102.41341704 27.50633115 C102.4039605 26.5528744 102.39450396 25.59941766 102.38476086 24.61706829 C102.38286225 23.79193601 102.38096365 22.96680374 102.37900752 22.11666745 C102.12878771 19.5573824 102.12878771 19.5573824 99 17 C66.66 16.67 34.32 16.34 1 16 C1 107.08 1 198.16 1 292 C0.67 292 0.34 292 0 292 C0 195.64 0 99.28 0 0 Z " fill="#A29DCC" transform="translate(358,172)"/>
<path d="M0 0 C39.93 0 79.86 0 121 0 C121 96.36 121 192.72 121 292 C117.04 292 113.08 292 109 292 C108.99503478 289.92599977 108.99503478 289.92599977 108.98996925 287.81010056 C108.91099183 255.00577483 108.82178727 222.20149327 108.71994839 189.39723061 C108.70742916 185.36166309 108.69499645 181.3260953 108.68261719 177.29052734 C108.68015119 176.48710121 108.6776852 175.68367508 108.67514448 174.8559027 C108.63539523 161.8382653 108.60265749 148.82061919 108.57250018 135.80295643 C108.54141204 122.45068438 108.50281399 109.09844936 108.45720994 95.74621892 C108.42929605 87.50381253 108.40727562 79.26143329 108.39273749 71.01899227 C108.38221451 65.37074139 108.36441246 59.72254303 108.34083296 54.07433167 C108.32743514 50.8131373 108.31837502 47.55203109 108.31578636 44.29080772 C108.31247899 40.75820125 108.29704273 37.22585263 108.2784729 33.69329834 C108.281375 32.14077775 108.281375 32.14077775 108.28433573 30.55689311 C108.27687024 29.61189551 108.26940475 28.6668979 108.26171303 27.69326401 C108.25943471 26.87762474 108.25715638 26.06198547 108.25480902 25.22162986 C107.96185114 22.66738757 107.43716537 21.13385418 106 19 C74.68227339 3.3411367 36.01256671 16.34665908 1 16 C1 107.08 1 198.16 1 292 C0.67 292 0.34 292 0 292 C0 195.64 0 99.28 0 0 Z " fill="#A09BC9" transform="translate(33,172)"/>
<path d="M0 0 C1.23848606 0.00027654 1.23848606 0.00027654 2.50199205 0.00055867 C3.37249328 -0.00311801 4.24299452 -0.0067947 5.13987458 -0.0105828 C8.08015104 -0.02166619 11.02039223 -0.02547135 13.9606865 -0.02927226 C16.05944763 -0.03553346 18.15820764 -0.04217995 20.25696641 -0.04918498 C25.97613206 -0.06662818 31.69528933 -0.07715601 37.41447502 -0.08539051 C40.98499827 -0.09053417 44.55551889 -0.09661022 48.12604028 -0.10290164 C59.28958044 -0.12196392 70.45311395 -0.13619221 81.61666727 -0.14451361 C94.51720039 -0.15428748 107.41756198 -0.18060669 120.31803465 -0.2210145 C130.27900183 -0.25114753 140.23991978 -0.26597986 150.20093167 -0.26929462 C156.15473242 -0.27164856 162.10835015 -0.28065349 168.06210214 -0.30575579 C173.6640186 -0.32899186 179.26563098 -0.33328763 184.8675831 -0.32299441 C186.92430965 -0.32249783 188.98105094 -0.32885402 191.03773195 -0.34255046 C193.84511408 -0.36020056 196.6513969 -0.35319701 199.45877916 -0.3400175 C200.68053481 -0.35647137 200.68053481 -0.35647137 201.92697239 -0.37325764 C207.16984769 -0.31381001 210.11903486 0.70587045 214.29784471 4.14772969 C216.64847284 7.3531317 216.69592385 10.24655407 216.29784471 14.14772969 C214.91153087 17.45947941 213.77030719 18.85011943 210.72625047 20.76761037 C206.49296813 22.47173619 203.0817729 22.57207393 198.56835252 22.54213887 C197.26844314 22.55127553 197.26844314 22.55127553 195.94227296 22.56059676 C193.0450378 22.57721558 190.14824266 22.57245256 187.25096971 22.56765157 C185.17117177 22.57499244 183.09137792 22.58357872 181.01158983 22.59331685 C175.3670581 22.61553703 169.72267234 22.61846336 164.07810289 22.61656934 C159.36617181 22.61644969 154.65427172 22.62501147 149.94234926 22.63334686 C138.82775381 22.6525819 127.71323348 22.65546399 116.59862596 22.64870626 C105.12981961 22.64206162 93.66133457 22.66494681 82.1925934 22.70201999 C72.34615677 22.7326949 62.49982363 22.74407952 52.65334016 22.74018317 C46.77225136 22.7381138 40.89141271 22.74362461 35.01036912 22.76807576 C29.48135114 22.7903043 23.9528567 22.78849721 18.42383653 22.76814824 C16.39452536 22.76473158 14.36517921 22.7698554 12.33591539 22.78413182 C9.56577596 22.80227629 6.79742185 22.78961136 4.0273369 22.76918966 C3.22402562 22.7817075 2.42071435 22.79422535 1.59306031 22.80712253 C-4.15879542 22.71618876 -6.68283119 21.27764443 -10.70215529 17.14772969 C-12.43713645 13.67776737 -12.3100971 9.93265774 -11.70215529 6.14772969 C-9.26465529 3.14772969 -9.26465529 3.14772969 -6.70215529 1.14772969 C-4.89381077 -0.66061482 -2.4084106 0.01443563 0 0 Z " fill="#EA5367" transform="translate(152.70215529203415,47.85227030515671)"/>
<path d="M0 0 C1.05947342 -0.01073296 1.05947342 -0.01073296 2.14035034 -0.02168274 C4.46459518 -0.03853024 6.78690041 -0.01919544 9.11108398 0.00219727 C10.73103495 0.00136828 12.35098582 -0.00109222 13.97093201 -0.00511169 C17.36125086 -0.00796683 20.75090801 0.00670448 24.14111328 0.03417969 C28.48483644 0.06829003 32.82737881 0.06223297 37.17115879 0.04351711 C40.51439748 0.03294546 43.85736171 0.04188582 47.20057487 0.05690193 C48.80213544 0.06208121 50.4037247 0.061605 52.00528145 0.05535698 C54.24373086 0.04990135 56.48049295 0.0702863 58.71875 0.09765625 C60.62806053 0.10695412 60.62806053 0.10695412 62.57594299 0.11643982 C65.79467773 0.63110352 65.79467773 0.63110352 68.20358276 2.35316467 C70.06723232 5.02131446 70.3050467 6.38248457 70.328125 9.61157227 C70.34396133 10.59939697 70.35979767 11.58722168 70.37611389 12.60498047 C70.37115402 13.66547607 70.36619415 14.72597168 70.36108398 15.81860352 C70.36728256 16.91325928 70.37348114 18.00791504 70.37986755 19.13574219 C70.38696807 21.44896556 70.38378775 23.76224001 70.37109375 26.07543945 C70.35722751 29.61838599 70.39129928 33.15869258 70.42944336 36.70141602 C70.43039453 38.9488125 70.42853587 41.19621229 70.42358398 43.44360352 C70.43684219 44.50409912 70.4501004 45.56459473 70.46376038 46.65722656 C70.44496071 48.13896362 70.44496071 48.13896362 70.42578125 49.65063477 C70.42481949 50.51793213 70.42385773 51.38522949 70.42286682 52.27880859 C69.48484603 55.7912885 67.88046773 56.80028824 64.79467773 58.63110352 C61.49365234 59.15249634 61.49365234 59.15249634 57.69702148 59.18041992 C56.65458786 59.19575272 56.65458786 59.19575272 55.59109497 59.21139526 C53.30443441 59.23909171 51.01898559 59.23728256 48.73217773 59.23266602 C47.13703974 59.24044426 45.54190588 59.2491145 43.94677734 59.25863647 C40.60785475 59.27353932 37.26935521 59.27299393 33.93041992 59.26245117 C29.65599989 59.25085194 25.38331044 59.28475135 21.10917664 59.33114052 C17.81650713 59.36063154 14.524254 59.36235699 11.23147583 59.35612106 C9.65581834 59.35714634 8.0801372 59.3676009 6.50460815 59.3877449 C4.29937798 59.41248499 2.09751206 59.39890042 -0.10766602 59.37573242 C-1.3605542 59.37699127 -2.61344238 59.37825012 -3.90429688 59.37954712 C-8.41628033 58.35654222 -9.74197753 56.46178401 -12.20532227 52.63110352 C-12.84024048 50.15892029 -12.84024048 50.15892029 -12.85229492 47.71484375 C-12.86805573 46.79046005 -12.88381653 45.86607635 -12.90005493 44.91368103 C-12.88993378 43.93226639 -12.87981262 42.95085175 -12.86938477 41.93969727 C-12.8741684 40.91683121 -12.87895203 39.89396515 -12.88388062 38.84010315 C-12.88727381 36.68423926 -12.87811218 34.52832351 -12.85717773 32.37255859 C-12.83037761 29.07541199 -12.85696079 25.7816611 -12.88891602 22.48461914 C-12.88561236 20.38630435 -12.87920703 18.28799167 -12.86938477 16.18969727 C-12.87950592 15.20625839 -12.88962708 14.22281952 -12.90005493 13.20957947 C-12.88429413 12.28834793 -12.86853333 11.36711639 -12.85229492 10.41796875 C-12.84831696 9.61221909 -12.84433899 8.80646942 -12.84024048 7.9763031 C-11.03251617 1.29910562 -6.27520084 0.00473847 0 0 Z " fill="#020203" transform="translate(389.205322265625,289.368896484375)"/>
<path d="M0 0 C0.69495575 -0.0071553 1.3899115 -0.01431061 2.10592651 -0.02168274 C4.39291018 -0.03853011 6.67792231 -0.01919377 8.96484375 0.00219727 C10.55997886 0.00136819 12.15511388 -0.00109268 13.75024414 -0.00511169 C17.08929232 -0.00796695 20.4276687 0.00670384 23.76660156 0.03417969 C28.04073046 0.06826284 32.31365845 0.06224214 36.58784485 0.04351711 C39.8805131 0.03293452 43.17290324 0.04189621 46.46554565 0.05690193 C48.0411598 0.06207501 49.61680311 0.06161254 51.19241333 0.05535698 C53.3971371 0.04988916 55.60015796 0.07032605 57.8046875 0.09765625 C59.05757568 0.10385483 60.31046387 0.11005341 61.60131836 0.11643982 C65.54250005 0.73091044 67.211274 1.70760201 69.90234375 4.63110352 C70.53726196 6.98339844 70.53726196 6.98339844 70.54931641 9.61157227 C70.56507721 10.59939697 70.58083801 11.58722168 70.59707642 12.60498047 C70.58695526 13.66547607 70.57683411 14.72597168 70.56640625 15.81860352 C70.57118988 16.91325928 70.57597351 18.00791504 70.5809021 19.13574219 C70.58430296 21.44898923 70.57508767 23.76228422 70.55419922 26.07543945 C70.52743879 29.61852063 70.55394335 33.15843351 70.5859375 36.70141602 C70.58263344 38.94881885 70.57622729 41.19621971 70.56640625 43.44360352 C70.58158798 45.03434692 70.58158798 45.03434692 70.59707642 46.65722656 C70.58131561 47.64505127 70.56555481 48.63287598 70.54931641 49.65063477 C70.54334946 50.95158081 70.54334946 50.95158081 70.53726196 52.27880859 C69.5899448 55.78850372 67.9896489 56.80149803 64.90234375 58.63110352 C61.59458923 59.13903809 61.59458923 59.13903809 57.78881836 59.14868164 C57.09225632 59.15569092 56.39569427 59.1627002 55.67802429 59.16992188 C53.38650083 59.18745921 51.09622246 59.17589693 48.8046875 59.16235352 C47.207156 59.16504938 45.60962611 59.1689326 44.01210022 59.1739502 C40.66895885 59.17983915 37.32624578 59.171301 33.9831543 59.15258789 C29.6999939 59.12977967 25.41783507 59.14293626 21.13471127 59.16687775 C17.83781902 59.18133654 14.54116402 59.1767298 11.2442646 59.16636658 C9.66502323 59.16370045 8.08576024 59.16696509 6.50654411 59.17628479 C4.29927419 59.18645446 2.09362397 59.17094748 -0.11352539 59.14868164 C-1.36863419 59.14549927 -2.62374298 59.14231689 -3.91688538 59.13903809 C-7.66241877 58.54091707 -8.80370749 57.58341542 -11.09765625 54.63110352 C-12.27653706 52.27334189 -12.24904448 50.79920928 -12.29052734 48.16894531 C-12.30659027 47.24425949 -12.3226532 46.31957367 -12.33920288 45.36686707 C-12.38363669 41.13602404 -12.42471693 36.90533816 -12.44775391 32.67431641 C-12.4643164 30.44243952 -12.49161006 28.21061574 -12.52978516 25.97900391 C-12.58453219 22.76249654 -12.60642496 19.54723271 -12.62109375 16.33032227 C-12.64376312 15.33433517 -12.6664325 14.33834808 -12.68978882 13.31217957 C-12.68693878 12.37803726 -12.68408875 11.44389496 -12.68115234 10.48144531 C-12.6892392 9.66363083 -12.69732605 8.84581635 -12.70565796 8.0032196 C-11.00016599 1.34924993 -6.21996887 0.00477467 0 0 Z " fill="#020202" transform="translate(389.09765625,199.368896484375)"/>
<path d="M0 0 C0.70456329 -0.00861557 1.40912659 -0.01723114 2.13504028 -0.02610779 C4.45962465 -0.04877494 6.78300406 -0.042028 9.10766602 -0.03295898 C10.72665261 -0.03819462 12.34563614 -0.04447088 13.96461487 -0.05174255 C17.35660156 -0.06214832 20.74816879 -0.05758357 24.14013672 -0.04296875 C28.48278497 -0.02578766 32.82410928 -0.04926547 37.16660976 -0.08445835 C40.50987991 -0.1064417 43.85283378 -0.10498861 47.19615364 -0.09669304 C48.79691074 -0.09587388 50.39769115 -0.10273069 51.99838066 -0.11746407 C54.23932588 -0.13492733 56.47789931 -0.1203571 58.71875 -0.09765625 C60.62925392 -0.09621361 60.62925392 -0.09621361 62.57835388 -0.09474182 C66.849346 0.70717583 68.32599442 2.1001293 70.92407227 5.53344727 C71.55226135 7.88537598 71.55226135 7.88537598 71.55517578 10.33618164 C71.56770889 11.26064087 71.580242 12.1851001 71.59315491 13.13757324 C71.5798967 14.12414917 71.56663849 15.1107251 71.55297852 16.12719727 C71.55539047 17.15147827 71.55780243 18.17575928 71.56028748 19.2310791 C71.5593096 21.3929431 71.54593036 23.55483231 71.52099609 25.71655273 C71.48668827 29.02226986 71.50034114 32.32531319 71.51977539 35.63110352 C71.51287674 37.73397946 71.5032042 39.83684851 71.49047852 41.93969727 C71.49791832 43.41956116 71.49791832 43.41956116 71.50550842 44.92932129 C71.43048098 49.30911115 71.35105969 51.84066358 69.01367188 55.63305664 C65.42162089 58.89985474 63.05039117 58.67246396 58.25878906 58.71044922 C57.57402496 58.71702042 56.88926086 58.72359161 56.18374634 58.73036194 C53.91359348 58.75010088 51.64350681 58.76175904 49.37329102 58.77172852 C48.21043548 58.77784181 48.21043548 58.77784181 47.02408791 58.7840786 C42.92052094 58.80494232 38.81698745 58.81924245 34.71337891 58.82861328 C30.47630097 58.83967588 26.23974848 58.87407264 22.00285625 58.91378498 C18.74372893 58.93994051 15.48472697 58.94830416 12.22550392 58.95189476 C10.66380071 58.95676386 9.10210323 58.96838716 7.54050255 58.98693275 C5.35242568 59.01130215 3.16571031 59.01036409 0.97753906 59.00341797 C-0.8887188 59.01221733 -0.8887188 59.01221733 -2.79267883 59.02119446 C-6.73685535 58.43526233 -8.3875764 57.45661447 -11.07592773 54.53344727 C-11.70411682 52.18115234 -11.70411682 52.18115234 -11.70703125 49.55297852 C-11.71956436 48.56515381 -11.73209747 47.5773291 -11.74501038 46.55957031 C-11.73175217 45.49907471 -11.71849396 44.4385791 -11.70483398 43.34594727 C-11.70724594 42.2512915 -11.7096579 41.15663574 -11.71214294 40.02880859 C-11.7111639 37.7155393 -11.69775681 35.40224675 -11.67285156 33.08911133 C-11.63855227 29.54631028 -11.65218889 26.00600386 -11.67163086 22.46313477 C-11.66473237 20.2157283 -11.65505996 17.96832829 -11.64233398 15.72094727 C-11.64729385 14.66045166 -11.65225372 13.59995605 -11.65736389 12.50732422 C-11.64152756 11.51949951 -11.62569122 10.5316748 -11.609375 9.51391602 C-11.60317642 8.64661865 -11.59697784 7.77932129 -11.59059143 6.88574219 C-10.19697545 0.516154 -5.80279847 0.02825818 0 0 Z " fill="#020203" transform="translate(64.075927734375,289.466552734375)"/>
<path d="M0 0 C0.69641602 -0.00379669 1.39283203 -0.00759338 2.11035156 -0.01150513 C4.40736246 -0.01890138 6.70310196 0.00245688 9 0.02490234 C10.59895682 0.02728748 12.19791648 0.02819194 13.796875 0.02767944 C17.14601213 0.03080585 20.49472068 0.04735817 23.84375 0.07421875 C28.13455743 0.10819849 32.42489409 0.11584721 36.71582031 0.11432838 C40.01697271 0.11487251 43.31802241 0.12584655 46.61914062 0.14033127 C48.20116397 0.14669102 49.78319894 0.15063624 51.36523438 0.15211868 C53.57702406 0.15646053 55.78831724 0.17397989 58 0.1953125 C59.258125 0.2029361 60.51625 0.21055969 61.8125 0.21841431 C64.85241304 0.47345756 66.5183199 0.76617592 69 2.48583984 C71.11681358 5.66106021 71.25170389 6.44294754 71.25878906 10.07739258 C71.26509338 11.00523056 71.27139771 11.93306854 71.27789307 12.88902283 C71.2738446 13.88905838 71.26979614 14.88909393 71.265625 15.91943359 C71.26753845 16.94891617 71.2694519 17.97839874 71.27142334 19.03907776 C71.27278479 21.21705367 71.26909117 23.39503771 71.26074219 25.57299805 C71.25005316 28.90676124 71.26063339 32.2399842 71.2734375 35.57373047 C71.27211568 37.68896603 71.26955284 39.80420126 71.265625 41.91943359 C71.26967346 42.91744492 71.27372192 43.91545624 71.27789307 44.94371033 C71.26843658 46.34019554 71.26843658 46.34019554 71.25878906 47.76489258 C71.25719788 48.58191147 71.25560669 49.39893036 71.25396729 50.2407074 C70.96351643 52.8083635 70.44533625 54.34219848 69 56.48583984 C65.57652331 58.98491096 62.12998721 58.75134157 58 58.77636719 C57.30358398 58.78308441 56.60716797 58.78980164 55.88964844 58.79672241 C53.59302595 58.81568396 51.29669583 58.81962523 49 58.82177734 C47.40104045 58.82820518 45.80208208 58.83493353 44.203125 58.84194946 C40.85413891 58.85391659 37.50525596 58.85763073 34.15625 58.85644531 C29.86528763 58.85624183 25.57498543 58.88357573 21.28417969 58.91798973 C17.983042 58.94022441 14.68206428 58.94428397 11.38085938 58.94322586 C9.79880492 58.94558578 8.21674631 58.95443136 6.63476562 58.96989059 C4.42270548 58.98948801 2.2120833 58.98373943 0 58.97167969 C-1.258125 58.97452972 -2.51625 58.97737976 -3.8125 58.98031616 C-7 58.48583984 -7 58.48583984 -9.40515137 56.76675415 C-11.27452368 54.09322265 -11.50570365 52.74154027 -11.51757812 49.50537109 C-11.53018677 48.51754639 -11.54279541 47.52972168 -11.55578613 46.51196289 C-11.54768921 45.45146729 -11.53959229 44.39097168 -11.53125 43.29833984 C-11.5350769 42.20368408 -11.53890381 41.10902832 -11.54284668 39.98120117 C-11.54556736 37.66795939 -11.53819534 35.35468693 -11.52148438 33.04150391 C-11.5000784 29.49881462 -11.52128226 25.95815348 -11.546875 22.41552734 C-11.54423175 20.16812703 -11.53910684 17.92072798 -11.53125 15.67333984 C-11.53934692 14.61284424 -11.54744385 13.55234863 -11.55578613 12.4597168 C-11.54317749 11.47189209 -11.53056885 10.48406738 -11.51757812 9.46630859 C-11.51439575 8.59901123 -11.51121338 7.73171387 -11.50793457 6.83813477 C-10.13726169 0.49041395 -5.77798877 -0.01308891 0 0 Z " fill="#020202" transform="translate(64,199.51416015625)"/>
<path d="M0 0 C0.71592316 -0.0071553 1.43184631 -0.01431061 2.16946411 -0.02168274 C4.53159767 -0.03856619 6.89183216 -0.01917211 9.25390625 0.00219727 C10.89770667 0.00136852 12.54150702 -0.00109108 14.18530273 -0.00511169 C17.62867203 -0.00796942 21.07139076 0.0067282 24.51464844 0.03417969 C28.92677605 0.06826313 33.33774041 0.06224443 37.74992371 0.04351711 C41.14377525 0.03294468 44.53735645 0.04188701 47.93118286 0.05690193 C49.55786333 0.06208247 51.18457205 0.06160348 52.81124878 0.05535698 C55.08572005 0.04990153 57.35853054 0.07028706 59.6328125 0.09765625 C61.57329468 0.10695412 61.57329468 0.10695412 63.55297852 0.11643982 C66.81640625 0.63110352 66.81640625 0.63110352 69.23402405 2.35217285 C71.0941956 5.0311729 71.31749732 6.39110232 71.31811523 9.62744141 C71.32749619 10.6184938 71.33687714 11.6095462 71.34654236 12.63063049 C71.33530838 13.69426315 71.3240744 14.75789581 71.3125 15.85375977 C71.31395523 16.9507872 71.31541046 18.04781464 71.31690979 19.17808533 C71.3152507 21.49554095 71.30368847 23.81300759 71.28295898 26.13037109 C71.25398599 29.6838237 71.26235425 33.23578658 71.27539062 36.78930664 C71.2691539 39.03996495 71.26076347 41.29061855 71.25 43.54125977 C71.25293564 44.60691666 71.25587128 45.67257355 71.25889587 46.77052307 C71.2462117 47.75842331 71.23352753 48.74632355 71.22045898 49.76416016 C71.215056 50.63367813 71.20965302 51.50319611 71.2040863 52.39906311 C70.81640625 54.63110352 70.81640625 54.63110352 69.73876953 56.40904236 C66.76216428 58.30129326 64.15376528 58.02859868 60.65454102 58.05102539 C59.92901031 58.05949493 59.20347961 58.06796448 58.45596313 58.07669067 C56.05640153 58.10009949 53.65747968 58.10108196 51.2578125 58.09985352 C49.59016156 58.10695286 47.92251308 58.11465152 46.25486755 58.1229248 C42.75862845 58.13637856 39.26261518 58.13793447 35.76635742 58.13208008 C31.28575808 58.12618348 26.80624214 58.15676862 22.32585239 58.19719696 C18.88142559 58.2230464 15.4372606 58.22595392 11.99275017 58.2223053 C10.34091405 58.2239992 8.68906618 58.23366774 7.03732491 58.25144958 C4.72670122 58.27358649 2.41828213 58.26396739 0.10766602 58.24633789 C-1.20676987 58.24839233 -2.52120575 58.25044678 -3.87547302 58.25256348 C-7.18359375 57.63110352 -7.18359375 57.63110352 -9.60694885 55.39282227 C-11.23634079 52.53870954 -11.68842103 51.06886009 -11.70117188 47.82836914 C-11.71378052 46.90390991 -11.72638916 45.97945068 -11.73937988 45.02697754 C-11.73128296 44.04040161 -11.72318604 43.05382568 -11.71484375 42.03735352 C-11.71867065 41.01307251 -11.72249756 39.9887915 -11.72644043 38.93347168 C-11.72915785 36.77163712 -11.72180861 34.60976958 -11.70507812 32.44799805 C-11.68366693 29.14240081 -11.70488644 25.83897704 -11.73046875 22.53344727 C-11.72782544 20.43057789 -11.72270041 18.32770987 -11.71484375 16.22485352 C-11.72294067 15.23827759 -11.7310376 14.25170166 -11.73937988 13.23522949 C-11.72677124 12.31077026 -11.7141626 11.38631104 -11.70117188 10.43383789 C-11.6979895 9.62507202 -11.69480713 8.81630615 -11.69152832 7.98303223 C-10.22645825 1.19920502 -6.40784465 0.00476388 0 0 Z " fill="#010102" transform="translate(388.18359375,379.368896484375)"/>
<path d="M0 0 C0.70456329 -0.00861557 1.40912659 -0.01723114 2.13504028 -0.02610779 C4.45962465 -0.04877494 6.78300406 -0.042028 9.10766602 -0.03295898 C10.72665261 -0.03819462 12.34563614 -0.04447088 13.96461487 -0.05174255 C17.35660156 -0.06214832 20.74816879 -0.05758357 24.14013672 -0.04296875 C28.48278497 -0.02578766 32.82410928 -0.04926547 37.16660976 -0.08445835 C40.50987991 -0.1064417 43.85283378 -0.10498861 47.19615364 -0.09669304 C48.79691074 -0.09587388 50.39769115 -0.10273069 51.99838066 -0.11746407 C54.23932588 -0.13492733 56.47789931 -0.1203571 58.71875 -0.09765625 C60.62925392 -0.09621361 60.62925392 -0.09621361 62.57835388 -0.09474182 C66.849346 0.70717583 68.32599442 2.1001293 70.92407227 5.53344727 C71.55226135 7.88537598 71.55226135 7.88537598 71.55517578 10.33618164 C71.56770889 11.26064087 71.580242 12.1851001 71.59315491 13.13757324 C71.5798967 14.12414917 71.56663849 15.1107251 71.55297852 16.12719727 C71.55539047 17.15147827 71.55780243 18.17575928 71.56028748 19.2310791 C71.5593096 21.3929431 71.54593036 23.55483231 71.52099609 25.71655273 C71.48668827 29.02226986 71.50034114 32.32531319 71.51977539 35.63110352 C71.51287674 37.73397946 71.5032042 39.83684851 71.49047852 41.93969727 C71.49791832 43.41956116 71.49791832 43.41956116 71.50550842 44.92932129 C71.48967209 45.85378052 71.47383575 46.77823975 71.45751953 47.73071289 C71.45132095 48.53947876 71.44512238 49.34824463 71.43873596 50.18151855 C70.69535558 53.57864501 69.47408437 55.17721757 66.92407227 57.53344727 C63.61595154 58.15490723 63.61595154 58.15490723 59.6328125 58.14868164 C58.54188797 58.15700516 58.54188797 58.15700516 57.42892456 58.16549683 C55.02949747 58.1772898 52.63196041 58.1530269 50.23266602 58.12719727 C48.56405219 58.12548616 46.89543567 58.12555184 45.2268219 58.12731934 C41.73216996 58.12566638 38.23815975 58.10697178 34.74365234 58.07543945 C30.26206093 58.0357307 25.78130883 58.03139774 21.29957485 58.03890228 C17.85517167 58.04196997 14.41095758 58.02985925 10.96660042 58.01277161 C9.31397754 58.00573624 7.66133324 58.00261772 6.0086956 58.00346375 C3.70071452 58.00166815 1.39374406 57.98030951 -0.9140625 57.95336914 C-2.22770279 57.94494995 -3.54134308 57.93653076 -4.89479065 57.92785645 C-8.07592773 57.53344727 -8.07592773 57.53344727 -9.99829102 56.31138611 C-11.41310037 53.97716302 -11.4630382 52.39307273 -11.47998047 49.66650391 C-11.49266464 48.67860367 -11.50534882 47.69070343 -11.51841736 46.67286682 C-11.51548172 45.60720993 -11.51254608 44.54155304 -11.50952148 43.44360352 C-11.51476334 42.34753281 -11.52000519 41.2514621 -11.52540588 40.12217712 C-11.53183255 37.80297697 -11.53048081 35.48374424 -11.52197266 33.16455078 C-11.5134688 29.61309809 -11.54220727 26.06325633 -11.57397461 22.51196289 C-11.5755868 20.26001025 -11.57500875 18.00805475 -11.57202148 15.75610352 C-11.58325546 14.69247086 -11.59448944 13.6288382 -11.60606384 12.53297424 C-11.59668289 11.54192184 -11.58730194 10.55086945 -11.57763672 9.52978516 C-11.57747055 8.65947159 -11.57730438 7.78915802 -11.57713318 6.89247131 C-10.22118038 0.51040726 -5.79341602 0.02821249 0 0 Z " fill="#010102" transform="translate(64.075927734375,379.466552734375)"/>
<path d="M0 0 C13.53 0 27.06 0 41 0 C41 32.67 41 65.34 41 99 C27.47 99 13.94 99 0 99 C0 66.33 0 33.66 0 0 Z " fill="#B1E4F9" transform="translate(208,365)"/>
<path d="M0 0 C13.2 0 26.4 0 40 0 C40 32.67 40 65.34 40 99 C26.8 99 13.6 99 0 99 C0 66.33 0 33.66 0 0 Z " fill="#B0E3F9" transform="translate(263,365)"/>
<path d="M0 0 C7.26 0 14.52 0 22 0 C22.02578125 1.90265625 22.0515625 3.8053125 22.078125 5.765625 C22.13439902 8.26043983 22.1917465 10.75523061 22.25 13.25 C22.26417969 14.50425781 22.27835937 15.75851563 22.29296875 17.05078125 C22.32519531 18.25605469 22.35742188 19.46132812 22.390625 20.703125 C22.41157227 21.81333008 22.43251953 22.92353516 22.45410156 24.06738281 C23.13069436 27.70210224 23.98635282 28.88366061 27 31 C29.88873888 31.63828469 29.88873888 31.63828469 33.078125 31.609375 C34.81835938 31.65771484 34.81835938 31.65771484 36.59375 31.70703125 C38.40359375 31.72830078 38.40359375 31.72830078 40.25 31.75 C41.47203125 31.77964844 42.6940625 31.80929688 43.953125 31.83984375 C46.96839445 31.91051413 49.98420161 31.95752397 53 32 C53 38.93 53 45.86 53 53 C50.12861328 53.05607422 50.12861328 53.05607422 47.19921875 53.11328125 C44.69529245 53.17892726 42.19138709 53.24537506 39.6875 53.3125 C37.79354492 53.34633789 37.79354492 53.34633789 35.86132812 53.38085938 C34.65283203 53.41630859 33.44433594 53.45175781 32.19921875 53.48828125 C31.08377686 53.51446533 29.96833496 53.54064941 28.8190918 53.56762695 C26.04542034 53.80552989 26.04542034 53.80552989 24.14453125 55.14453125 C22.48188975 57.83993983 22.56225119 60.04809914 22.48828125 63.19921875 C22.45283203 64.40771484 22.41738281 65.61621094 22.38085938 66.86132812 C22.35830078 68.12396484 22.33574219 69.38660156 22.3125 70.6875 C22.27833984 71.96173828 22.24417969 73.23597656 22.20898438 74.54882812 C22.12639805 77.69890643 22.06152609 80.84943999 22 84 C14.74 84 7.48 84 0 84 C-0.02578125 82.08574219 -0.0515625 80.17148438 -0.078125 78.19921875 C-0.13439308 75.69528929 -0.19174069 73.19138392 -0.25 70.6875 C-0.26417969 69.42486328 -0.27835938 68.16222656 -0.29296875 66.86132812 C-0.32519531 65.65283203 -0.35742188 64.44433594 -0.390625 63.19921875 C-0.41157227 62.08377686 -0.43251953 60.96833496 -0.45410156 59.8190918 C-0.75994358 56.94966332 -0.75994358 56.94966332 -2.65820312 55.14453125 C-5.5948364 53.70927929 -7.81253932 53.56832011 -11.078125 53.48828125 C-12.23828125 53.45283203 -13.3984375 53.41738281 -14.59375 53.38085938 C-15.8003125 53.35830078 -17.006875 53.33574219 -18.25 53.3125 C-19.47203125 53.27833984 -20.6940625 53.24417969 -21.953125 53.20898438 C-24.96842746 53.1265347 -27.98419936 53.06159029 -31 53 C-31 46.07 -31 39.14 -31 32 C-29.16953125 31.97421875 -27.3390625 31.9484375 -25.453125 31.921875 C-23.05205929 31.86560002 -20.65101855 31.80825256 -18.25 31.75 C-17.0434375 31.73582031 -15.836875 31.72164062 -14.59375 31.70703125 C-13.43359375 31.67480469 -12.2734375 31.64257812 -11.078125 31.609375 C-10.00981445 31.58842773 -8.94150391 31.56748047 -7.84082031 31.54589844 C-4.26305292 30.85838659 -3.09011218 29.96899328 -1 27 C-0.36085024 24.01312126 -0.36085024 24.01312126 -0.390625 20.703125 C-0.35839844 19.49785156 -0.32617188 18.29257813 -0.29296875 17.05078125 C-0.27878906 15.79652344 -0.26460937 14.54226562 -0.25 13.25 C-0.20552734 11.34541016 -0.20552734 11.34541016 -0.16015625 9.40234375 C-0.08946966 6.26857164 -0.04246994 3.1342815 0 0 Z " fill="#E0374D" transform="translate(245,136)"/>
<path d="M0 0 C1.1091275 -0.00412399 2.218255 -0.00824799 3.36099243 -0.01249695 C4.5679628 -0.00171112 5.77493317 0.00907471 7.01847839 0.02018738 C8.29692627 0.0197493 9.57537415 0.01931122 10.89256287 0.01885986 C14.39021629 0.01800036 17.88756005 0.03561854 21.38514161 0.05658174 C25.04331527 0.07535617 28.70149629 0.07709958 32.35971069 0.08065796 C39.28343413 0.08997619 46.20701518 0.1145869 53.13067597 0.14470643 C61.01453958 0.1782574 68.89841005 0.19473819 76.78232729 0.20979273 C92.99679079 0.24113672 109.21110201 0.29449827 125.42546082 0.36076355 C125.42546082 7.95076355 125.42546082 15.54076355 125.42546082 23.36076355 C108.46614719 23.49976183 91.50706166 23.60678384 74.54730892 23.67163658 C66.6722669 23.70255165 58.79758568 23.74468649 50.92277527 23.81340027 C44.05764682 23.87327515 37.19277971 23.9119298 30.32739741 23.92529452 C26.69334812 23.9331049 23.06004637 23.95140974 19.42623711 23.99514389 C15.3656664 24.04361613 11.30638838 24.04469829 7.24552917 24.04191589 C5.44585945 24.07427338 5.44585945 24.07427338 3.60983276 24.10728455 C-2.84812119 24.05937896 -6.73896839 23.54550873 -11.39557552 18.88163185 C-13.9321025 15.60950091 -13.95861617 12.35664142 -13.57453918 8.36076355 C-11.14372037 2.14867103 -6.43362547 -0.01850515 0 0 Z " fill="#E05063" transform="translate(28.574539184570313,134.6392364501953)"/>
<path d="M0 0 C16.84625318 -0.06947634 33.69244905 -0.1229989 50.53881264 -0.15543652 C58.36104843 -0.17089886 66.18319352 -0.19197622 74.00537109 -0.22631836 C80.82397631 -0.25624016 87.64251582 -0.27557961 94.46118486 -0.28226548 C98.07092255 -0.28617306 101.68047229 -0.29534302 105.29014969 -0.31719017 C109.32193555 -0.34139366 113.35339561 -0.34196821 117.38525391 -0.34057617 C118.57927826 -0.351362 119.77330261 -0.36214783 121.00350952 -0.3732605 C131.17231074 -0.33520903 131.17231074 -0.33520903 136 3 C138.79611547 6.06670728 139.23639043 8.47376782 139.0625 12.5 C138.55109365 15.98686147 137.76293399 17.7231635 135.0625 20 C131.13268643 22.56640886 129.45313658 23.124714 124.82418823 23.12025452 C123.72759888 23.12162918 122.63100952 23.12300385 121.50119019 23.12442017 C120.29278473 23.12082489 119.08437927 23.11722961 117.83935547 23.11352539 C116.57109924 23.11367142 115.30284302 23.11381744 113.99615479 23.1139679 C110.51289915 23.11425548 107.02967777 23.108365 103.54643011 23.10139394 C99.90824398 23.09515397 96.27005711 23.09455609 92.63186646 23.09336853 C85.73997823 23.09025712 78.84810582 23.08204628 71.95622456 23.07201904 C64.11110593 23.06085202 56.26598656 23.05534597 48.42086196 23.05032361 C32.28056511 23.03986352 16.1402852 23.02206693 0 23 C0 15.41 0 7.82 0 0 Z " fill="#EA5367" transform="translate(358,135)"/>
<path d="M0 0 C17.49 0 34.98 0 53 0 C53 9.24 53 18.48 53 28 C35.51 28 18.02 28 0 28 C0 18.76 0 9.52 0 0 Z " fill="#B0E3F9" transform="translate(392,305)"/>
<path d="M0 0 C17.49 0 34.98 0 53 0 C53 9.24 53 18.48 53 28 C35.51 28 18.02 28 0 28 C0 18.76 0 9.52 0 0 Z " fill="#B0E3F9" transform="translate(67,305)"/>
<path d="M0 0 C17.49 0 34.98 0 53 0 C53 9.24 53 18.48 53 28 C35.51 28 18.02 28 0 28 C0 18.76 0 9.52 0 0 Z " fill="#AEE2F7" transform="translate(392,215)"/>
<path d="M0 0 C17.49 0 34.98 0 53 0 C53 9.24 53 18.48 53 28 C35.51 28 18.02 28 0 28 C0 18.76 0 9.52 0 0 Z " fill="#AEE2F7" transform="translate(67,215)"/>
<path d="M0 0 C17.49 0 34.98 0 53 0 C53.020625 4.434375 53.04125 8.86875 53.0625 13.4375 C53.071604 14.83798584 53.08070801 16.23847168 53.09008789 17.68139648 C53.09258545 18.77524658 53.09508301 19.86909668 53.09765625 20.99609375 C53.10289307 22.12200928 53.10812988 23.2479248 53.11352539 24.40795898 C53 27 53 27 52 28 C50.37325222 28.09340434 48.74245949 28.11745171 47.11303711 28.11352539 C46.07203354 28.11344986 45.03102997 28.11337433 43.95848083 28.11329651 C42.8262056 28.10813522 41.69393036 28.10297394 40.52734375 28.09765625 C39.37456436 28.0962413 38.22178497 28.09482635 37.03407288 28.09336853 C33.33518936 28.08775005 29.63636536 28.07519442 25.9375 28.0625 C23.43684983 28.05748738 20.93619871 28.05292406 18.43554688 28.04882812 C12.29032295 28.0386235 6.14522845 28.01905169 0 28 C0 18.76 0 9.52 0 0 Z " fill="#B0E3F9" transform="translate(392,395)"/>
<path d="M0 0 C17.49 0 34.98 0 53 0 C53 9.24 53 18.48 53 28 C45.61267325 28.02290249 38.22546868 28.04283157 30.83813477 28.05493164 C28.32283105 28.05997363 25.80753028 28.06680703 23.29223633 28.07543945 C19.68570225 28.08751094 16.07920677 28.09322949 12.47265625 28.09765625 C10.77424339 28.10539818 10.77424339 28.10539818 9.04151917 28.11329651 C8.00051559 28.11337204 6.95951202 28.11344757 5.88696289 28.11352539 C4.96540909 28.115746 4.04385529 28.11796661 3.09437561 28.12025452 C1 28 1 28 0 27 C-0.08758003 25.00035018 -0.10696576 22.9976389 -0.09765625 20.99609375 C-0.09515869 19.90224365 -0.09266113 18.80839355 -0.09008789 17.68139648 C-0.08098389 16.28091064 -0.07187988 14.8804248 -0.0625 13.4375 C-0.041875 9.003125 -0.02125 4.56875 0 0 Z " fill="#B0E3F9" transform="translate(67,395)"/>
<path d="M0 0 C1.98 0 3.96 0 6 0 C6.46477447 1.45629333 6.92134089 2.91520585 7.375 4.375 C7.63023437 5.18710938 7.88546875 5.99921875 8.1484375 6.8359375 C10.5674221 15.82390782 11.28631216 24.12315391 11.1875 33.4375 C11.18685547 34.58798828 11.18621094 35.73847656 11.18554688 36.92382812 C11.10031718 53.63831924 7.74846752 67.43596739 2 83 C1.01 83 0.02 83 -1 83 C-1.0093457 82.19780029 -1.01869141 81.39560059 -1.02832031 80.5690918 C-1.08193742 76.94126361 -1.16560298 73.31473708 -1.25 69.6875 C-1.26417969 68.42486328 -1.27835938 67.16222656 -1.29296875 65.86132812 C-1.32519531 64.65283203 -1.35742188 63.44433594 -1.390625 62.19921875 C-1.41157227 61.08377686 -1.43251953 59.96833496 -1.45410156 58.8190918 C-1.75994358 55.94966332 -1.75994358 55.94966332 -3.65820312 54.14453125 C-6.5948364 52.70927929 -8.81253932 52.56832011 -12.078125 52.48828125 C-13.23828125 52.45283203 -14.3984375 52.41738281 -15.59375 52.38085938 C-16.8003125 52.35830078 -18.006875 52.33574219 -19.25 52.3125 C-20.47203125 52.27833984 -21.6940625 52.24417969 -22.953125 52.20898438 C-25.96842746 52.1265347 -28.98419936 52.06159029 -32 52 C-32 45.07 -32 38.14 -32 31 C-30.16953125 30.97421875 -28.3390625 30.9484375 -26.453125 30.921875 C-24.05205929 30.86560002 -21.65101855 30.80825256 -19.25 30.75 C-18.0434375 30.73582031 -16.836875 30.72164062 -15.59375 30.70703125 C-14.43359375 30.67480469 -13.2734375 30.64257812 -12.078125 30.609375 C-11.00981445 30.58842773 -9.94150391 30.56748047 -8.84082031 30.54589844 C-5.3626612 29.87752754 -4.19369844 28.72079719 -2 26 C-0.71394339 23.42788678 -0.78956059 21.43093034 -0.68359375 18.5546875 C-0.64169922 17.47832031 -0.59980469 16.40195313 -0.55664062 15.29296875 C-0.51732422 14.16503906 -0.47800781 13.03710938 -0.4375 11.875 C-0.39431641 10.73933594 -0.35113281 9.60367188 -0.30664062 8.43359375 C-0.2003396 5.62252232 -0.09830595 2.81136055 0 0 Z " fill="#E95367" transform="translate(246,137)"/>
<path d="M0 0 C13.2 0 26.4 0 40 0 C40 32.67 40 65.34 40 99 C37.36 99 34.72 99 32 99 C32 69.3 32 39.6 32 9 C21.77 8.67 11.54 8.34 1 8 C1 38.03 1 68.06 1 99 C0.67 99 0.34 99 0 99 C0 66.33 0 33.66 0 0 Z " fill="#73C6ED" transform="translate(263,365)"/>
<path d="M0 0 C0.99832352 -0.01051392 0.99832352 -0.01051392 2.01681519 -0.02124023 C4.21158884 -0.03881043 6.40506729 -0.02720127 8.59985352 -0.01367188 C10.12915799 -0.01636743 11.65846079 -0.02025038 13.1877594 -0.02526855 C16.39145236 -0.03116249 19.59469884 -0.02260578 22.79833984 -0.00390625 C26.89872321 0.01886462 30.99805821 0.00577242 35.09840298 -0.01819611 C38.25637155 -0.0326738 41.41409301 -0.02803888 44.57206917 -0.01768494 C46.083498 -0.01502206 47.59494948 -0.01827198 49.10635185 -0.02760315 C51.2225441 -0.03779993 53.33705734 -0.022227 55.453125 0 C57.25703957 0.00477356 57.25703957 0.00477356 59.09739685 0.00964355 C62.93597379 0.62010993 64.60868395 1.7400787 67.29125977 4.51757812 C67.91625977 8.01757812 67.91625977 8.01757812 67.29125977 11.51757812 C64.60868395 14.29507755 62.93597379 15.41504632 59.09739685 16.0255127 C57.29348228 16.03028625 57.29348228 16.03028625 55.453125 16.03515625 C54.78582367 16.04216553 54.11852234 16.0491748 53.43099976 16.05639648 C51.23685447 16.07392657 49.04401069 16.06237451 46.84985352 16.04882812 C45.31958266 16.0515242 43.78931347 16.05540758 42.25904846 16.0604248 C39.05713538 16.06631276 35.85566957 16.05777895 32.65380859 16.0390625 C28.55223537 16.01625335 24.45170802 16.02941185 20.350173 16.05335236 C17.19224682 16.06781328 14.03456827 16.06320348 10.8766346 16.05284119 C9.36437925 16.05017568 7.85210132 16.05343752 6.33987236 16.0627594 C4.22597639 16.07293286 2.11377023 16.05741757 0 16.03515625 C-1.80272118 16.03038269 -1.80272118 16.03038269 -3.64186096 16.0255127 C-7.324802 15.41554637 -8.51427944 14.49407303 -10.70874023 11.51757812 C-11.26022766 7.65716614 -11.44895083 5.52157559 -9.0967865 2.33117676 C-5.92370936 -0.07861256 -3.96312616 0.01049426 0 0 Z " fill="#020202" transform="translate(227.708740234375,258.482421875)"/>
<path d="M0 0 C0.6461879 -0.00554901 1.29237579 -0.01109802 1.95814514 -0.01681519 C4.08288998 -0.02857527 6.20548423 -0.0043788 8.33007812 0.02148438 C9.81310936 0.02319659 11.29614363 0.02312867 12.7791748 0.0213623 C15.88286411 0.02301345 18.98582929 0.04167196 22.08935547 0.07324219 C26.0606948 0.11291997 30.03108643 0.11728634 34.00258636 0.10977936 C37.06362537 0.10670468 40.1244527 0.11884772 43.18544006 0.13591003 C44.64940564 0.14292386 46.11339519 0.14606653 47.57737732 0.1452179 C49.62624169 0.1470228 51.67398643 0.16846072 53.72265625 0.1953125 C55.46875183 0.20794128 55.46875183 0.20794128 57.25012207 0.2208252 C60.69311002 0.65729453 62.5937738 1.55494568 65.36132812 3.61523438 C66.78174633 6.45607079 66.67585085 8.47000715 66.36132812 11.61523438 C64.15664795 14.60778287 62.95415305 15.51846135 59.24975586 16.12316895 C58.02716064 16.12635132 56.80456543 16.12953369 55.54492188 16.1328125 C54.868013 16.13982178 54.19110413 16.14683105 53.49368286 16.15405273 C51.26164425 16.17162262 49.03087906 16.1600151 46.79882812 16.14648438 C45.24470782 16.14917962 43.69058915 16.15306231 42.13647461 16.15808105 C38.88150964 16.16397468 35.62698415 16.15541804 32.37207031 16.13671875 C28.20209268 16.11392865 24.03314481 16.12705255 19.86320496 16.15100861 C16.6546657 16.16547062 13.44637013 16.16085889 10.23782349 16.15049744 C8.70044838 16.14783123 7.16305107 16.15109622 5.6257019 16.16041565 C3.47578427 16.17058867 1.32752837 16.15507325 -0.82226562 16.1328125 C-2.04486084 16.12963013 -3.26745605 16.12644775 -4.52709961 16.12316895 C-8.23156053 15.51845094 -9.41473665 14.58841072 -11.63867188 11.61523438 C-12.20117188 8.67773438 -12.20117188 8.67773438 -11.63867188 5.61523438 C-8.01410036 1.07998118 -5.75979326 -0.0101654 0 0 Z " fill="#070707" transform="translate(228.638671875,293.384765625)"/>
<path d="M0 0 C2.37625177 -0.10883596 4.74743976 -0.18766696 7.125 -0.25 C7.79015625 -0.28351562 8.4553125 -0.31703125 9.140625 -0.3515625 C14.27764086 -0.4522883 17.04609433 0.79638366 21 4 C23.35062814 7.205402 23.39807915 10.09882438 23 14 C21.61435056 17.31016255 20.47142398 18.70236635 17.43092918 20.62198353 C13.17959581 22.32951146 9.76078472 22.40979874 5.23013306 22.36076355 C3.92387358 22.36460846 3.92387358 22.36460846 2.59122503 22.36853105 C-0.32006966 22.37346338 -3.23084311 22.35698502 -6.14208984 22.34057617 C-8.23161812 22.33972978 -10.32114729 22.34020528 -12.41067505 22.34190369 C-18.07963863 22.34276459 -23.74841188 22.3251232 -29.41733122 22.30418181 C-35.34304051 22.28543104 -41.26875414 22.28366583 -47.19448853 22.28010559 C-58.41410924 22.27078044 -69.63364229 22.24616023 -80.8532244 22.21605712 C-93.62698967 22.1825278 -106.40075912 22.16603078 -119.17455745 22.15097082 C-145.44975357 22.11961115 -171.72487188 22.06684144 -198 22 C-198 21.67 -198 21.34 -198 21 C-132.66 20.67 -67.32 20.34 0 20 C1.65948267 15.85129333 2.27602515 14.16402395 2.25 10 C2.25515625 9.175 2.2603125 8.35 2.265625 7.5 C1.9695592 4.71349838 1.14543046 2.54540103 0 0 Z " fill="#D93C51" transform="translate(346,48)"/>
<path d="M0 0 C16.84624856 -0.07011205 33.69245152 -0.1229989 50.53881264 -0.15543652 C58.36104843 -0.17089886 66.18319352 -0.19197622 74.00537109 -0.22631836 C80.82397631 -0.25624016 87.64251582 -0.27557961 94.46118486 -0.28226548 C98.07092255 -0.28617306 101.68047229 -0.29534302 105.29014969 -0.31719017 C109.32193555 -0.34139366 113.35339561 -0.34196821 117.38525391 -0.34057617 C118.57927826 -0.351362 119.77330261 -0.36214783 121.00350952 -0.3732605 C131.17231074 -0.33520903 131.17231074 -0.33520903 136 3 C138.79611547 6.06670728 139.23639043 8.47376782 139.0625 12.5 C138.55109365 15.98686147 137.76293399 17.7231635 135.0625 20 C131.13268643 22.56640886 129.45313658 23.124714 124.82418823 23.12025452 C123.72759888 23.12162918 122.63100952 23.12300385 121.50119019 23.12442017 C120.29278473 23.12082489 119.08437927 23.11722961 117.83935547 23.11352539 C116.57109924 23.11367142 115.30284302 23.11381744 113.99615479 23.1139679 C110.51289915 23.11425548 107.02967777 23.108365 103.54643011 23.10139394 C99.90824398 23.09515397 96.27005711 23.09455609 92.63186646 23.09336853 C85.73997823 23.09025712 78.84810582 23.08204628 71.95622456 23.07201904 C64.11110593 23.06085202 56.26598656 23.05534597 48.42086196 23.05032361 C32.28056537 23.03986352 16.1402847 23.02226774 0 23 C0 22.67 0 22.34 0 22 C39.27 22 78.54 22 119 22 C121.44666218 13.43668237 121.85580335 9.56741006 119 1 C79.73 1 40.46 1 0 1 C0 0.67 0 0.34 0 0 Z " fill="#B93345" transform="translate(358,135)"/>
<path d="M0 0 C17.49 0 34.98 0 53 0 C53 9.24 53 18.48 53 28 C35.51 28 18.02 28 0 28 C0 18.76 0 9.52 0 0 Z M1 8 C1 14.27 1 20.54 1 27 C17.83 27 34.66 27 52 27 C52 20.73 52 14.46 52 8 C35.17 8 18.34 8 1 8 Z " fill="#72C0E5" transform="translate(392,305)"/>
<path d="M0 0 C17.49 0 34.98 0 53 0 C53 9.24 53 18.48 53 28 C35.51 28 18.02 28 0 28 C0 18.76 0 9.52 0 0 Z M1 8 C1 14.27 1 20.54 1 27 C17.83 27 34.66 27 52 27 C52 20.73 52 14.46 52 8 C35.17 8 18.34 8 1 8 Z " fill="#72C0E4" transform="translate(67,305)"/>
<path d="M0 0 C17.49 0 34.98 0 53 0 C53.020625 4.434375 53.04125 8.86875 53.0625 13.4375 C53.071604 14.83798584 53.08070801 16.23847168 53.09008789 17.68139648 C53.09258545 18.77524658 53.09508301 19.86909668 53.09765625 20.99609375 C53.10289307 22.12200928 53.10812988 23.2479248 53.11352539 24.40795898 C53 27 53 27 52 28 C50.37325222 28.09340434 48.74245949 28.11745171 47.11303711 28.11352539 C46.07203354 28.11344986 45.03102997 28.11337433 43.95848083 28.11329651 C42.8262056 28.10813522 41.69393036 28.10297394 40.52734375 28.09765625 C39.37456436 28.0962413 38.22178497 28.09482635 37.03407288 28.09336853 C33.33518936 28.08775005 29.63636536 28.07519442 25.9375 28.0625 C23.43684983 28.05748738 20.93619871 28.05292406 18.43554688 28.04882812 C12.29032295 28.0386235 6.14522845 28.01905169 0 28 C0 18.76 0 9.52 0 0 Z M1 8 C1 14.27 1 20.54 1 27 C17.83 27 34.66 27 52 27 C52 20.73 52 14.46 52 8 C35.17 8 18.34 8 1 8 Z " fill="#6FBCE0" transform="translate(392,395)"/>
<path d="M0 0 C17.49 0 34.98 0 53 0 C53 9.24 53 18.48 53 28 C45.61267325 28.02290249 38.22546868 28.04283157 30.83813477 28.05493164 C28.32283105 28.05997363 25.80753028 28.06680703 23.29223633 28.07543945 C19.68570225 28.08751094 16.07920677 28.09322949 12.47265625 28.09765625 C10.77424339 28.10539818 10.77424339 28.10539818 9.04151917 28.11329651 C8.00051559 28.11337204 6.95951202 28.11344757 5.88696289 28.11352539 C4.96540909 28.115746 4.04385529 28.11796661 3.09437561 28.12025452 C1 28 1 28 0 27 C-0.08758003 25.00035018 -0.10696576 22.9976389 -0.09765625 20.99609375 C-0.09515869 19.90224365 -0.09266113 18.80839355 -0.09008789 17.68139648 C-0.08098389 16.28091064 -0.07187988 14.8804248 -0.0625 13.4375 C-0.041875 9.003125 -0.02125 4.56875 0 0 Z M1 8 C1 14.27 1 20.54 1 27 C17.83 27 34.66 27 52 27 C52 20.73 52 14.46 52 8 C35.17 8 18.34 8 1 8 Z " fill="#6FBBDF" transform="translate(67,395)"/>
<path d="M0 0 C13.53 0 27.06 0 41 0 C41 32.67 41 65.34 41 99 C40.67 99 40.34 99 40 99 C40 68.97 40 38.94 40 8 C27.13 8 14.26 8 1 8 C1 38.03 1 68.06 1 99 C0.67 99 0.34 99 0 99 C0 66.33 0 33.66 0 0 Z " fill="#69A9C7" transform="translate(208,365)"/>
<path d="M0 0 C17.49 0 34.98 0 53 0 C53 9.24 53 18.48 53 28 C52.67 28 52.34 28 52 28 C52 21.4 52 14.8 52 8 C35.17 8 18.34 8 1 8 C1 14.6 1 21.2 1 28 C0.67 28 0.34 28 0 28 C0 18.76 0 9.52 0 0 Z " fill="#70C2E8" transform="translate(392,215)"/>
<path d="M0 0 C17.49 0 34.98 0 53 0 C53 9.24 53 18.48 53 28 C52.67 28 52.34 28 52 28 C52 21.4 52 14.8 52 8 C35.17 8 18.34 8 1 8 C1 14.6 1 21.2 1 28 C0.67 28 0.34 28 0 28 C0 18.76 0 9.52 0 0 Z " fill="#70C1E7" transform="translate(67,215)"/>
<path d="M0 0 C3.63 0 7.26 0 11 0 C11 6.93 11 13.86 11 21 C7.37 21 3.74 21 0 21 C0 14.07 0 7.14 0 0 Z " fill="#E5384F" transform="translate(142,136)"/>
</svg>
