<?xml version="1.0" encoding="UTF-8"?>
<svg version="1.1" xmlns="http://www.w3.org/2000/svg" width="512" height="512">
<path d="M0 0 C0.8725078 -0.00453111 1.74501561 -0.00906223 2.64396304 -0.01373065 C5.56719519 -0.02638947 8.49024139 -0.02475331 11.41349792 -0.02310181 C13.5096053 -0.02908614 15.60571048 -0.03589147 17.70181274 -0.04345703 C23.39609886 -0.06113422 29.09032488 -0.06581315 34.78463578 -0.0670886 C39.538572 -0.06898762 44.29249422 -0.07634522 49.04642504 -0.08343279 C60.26319093 -0.099721 71.4799247 -0.10460136 82.69670105 -0.10317993 C94.26593842 -0.10197847 105.83498924 -0.12308024 117.40417939 -0.15466726 C127.33808991 -0.18082266 137.27193947 -0.19154753 147.20588416 -0.19026911 C153.13843986 -0.18975925 159.07082981 -0.19545595 165.00335121 -0.21662521 C170.58400148 -0.23599495 176.16432767 -0.2361405 181.7449894 -0.22159195 C183.79119846 -0.21950118 185.83742774 -0.22422068 187.88360214 -0.23631287 C190.68132634 -0.25177327 193.47793422 -0.24245184 196.27563477 -0.22705078 C197.48455917 -0.24248147 197.48455917 -0.24248147 198.7179063 -0.25822389 C205.3729725 -0.17750219 210.54661534 1.82982313 215.57048035 6.23226929 C216.10930847 6.88324585 216.6481366 7.53422241 217.20329285 8.20492554 C217.75758972 8.85332397 218.3118866 9.50172241 218.88298035 10.16976929 C221.91258536 14.56679062 222.57655728 18.32544934 222.55534363 23.61825562 C222.55519257 24.87918533 222.5550415 26.14011505 222.55488586 27.43925476 C222.54467421 28.80515706 222.53424224 30.17105773 222.52360535 31.53695679 C222.51987225 32.94228412 222.51702668 34.34761407 222.51502991 35.75294495 C222.50741674 39.44042221 222.48778837 43.12774036 222.46562195 46.81515503 C222.44511344 50.58242643 222.43601751 54.3497237 222.4259491 58.11703491 C222.4045401 65.50057077 222.37043239 72.8839758 222.32829285 80.26742554 C223.17532776 80.26189478 223.17532776 80.26189478 224.03947449 80.25625229 C237.80345974 80.16777038 251.56739491 80.10190816 265.331604 80.06017685 C271.98801231 80.03931618 278.64416049 80.01102582 285.30046082 79.96566772 C291.72601844 79.92215677 298.15137855 79.89827695 304.57707214 79.88791656 C307.02664803 79.88053472 309.47621331 79.86611973 311.92570496 79.84450531 C315.36091846 79.81540266 318.79531934 79.81147256 322.2306366 79.81332397 C323.23980637 79.79894287 324.24897614 79.78456177 325.28872681 79.76974487 C332.63690442 79.81250303 337.99156581 81.34342955 343.57048035 86.23226929 C344.37872253 87.20873413 344.37872253 87.20873413 345.20329285 88.20492554 C345.75758972 88.85332397 346.3118866 89.50172241 346.88298035 90.16976929 C351.36241382 96.67100111 351.00293013 103.6388347 350.32829285 111.26742554 C348.65779591 117.88597671 343.88317905 122.52438698 338.32829285 126.26742554 C337.00829285 126.59742554 335.68829285 126.92742554 334.32829285 127.26742554 C334.32829285 235.83742554 334.32829285 344.40742554 334.32829285 456.26742554 C335.97829285 456.59742554 337.62829285 456.92742554 339.32829285 457.26742554 C343.64583934 459.43966307 347.46763389 462.61427643 349.6603241 466.99008179 C351.47260659 473.1687993 351.62446705 480.02469996 349.2228241 486.03305054 C346.19230229 490.94038343 342.65999368 493.96819018 337.32829285 496.26742554 C334.46874299 496.63708424 332.00652576 496.80551852 329.1591711 496.76799679 C327.96198122 496.77626804 327.96198122 496.77626804 326.74060568 496.78470638 C324.06736522 496.79829701 321.39505529 496.78340696 318.72183228 496.76863098 C316.78553152 496.772524 314.84923362 496.77816444 312.91294247 496.78540188 C307.59290188 496.80017421 302.27315673 496.78996462 296.9531256 496.77566516 C291.21550572 496.76456951 285.47792776 496.77649329 279.74031067 496.7855072 C268.50090957 496.79945097 257.26162072 496.79187518 246.02222496 496.77683162 C232.93886476 496.75998539 219.85553263 496.76318001 206.77216495 496.7669257 C182.7265117 496.77298402 158.68091624 496.75719382 134.63527805 496.73173807 C112.68177524 496.70862029 90.72833829 496.70323584 68.77482605 496.71347046 C63.15268933 496.71607245 57.5305526 496.71865745 51.90841579 496.72106838 C51.21627579 496.72136583 50.5241358 496.72166328 49.81102186 496.72196974 C31.46887425 496.72958322 13.12673269 496.72311467 -5.21541256 496.71237236 C-7.84415908 496.71084649 -10.47290561 496.70932614 -13.10165215 496.70781136 C-14.39511067 496.70705354 -15.6885692 496.70629573 -17.02122344 496.70551495 C-26.14561927 496.70076804 -35.27000023 496.70262642 -44.39439583 496.70687675 C-55.50993294 496.7117982 -66.62540187 496.70584225 -77.74092335 496.68598246 C-83.41451963 496.67609607 -89.08801199 496.67101991 -94.76161385 496.67887497 C-99.95216399 496.68591434 -105.14250413 496.67916799 -110.33302652 496.66127134 C-112.21379588 496.65721554 -114.09458428 496.65824558 -115.97534663 496.66479021 C-118.52662617 496.67291034 -121.0771929 496.66266501 -123.62842655 496.64774227 C-124.36310155 496.65447992 -125.09777655 496.66121757 -125.85471442 496.6681594 C-131.92990316 496.59917223 -135.7983278 494.87940312 -140.35920715 490.95492554 C-145.28069358 485.23536023 -146.22061146 480.66822876 -146.0271759 473.24398804 C-145.39843723 467.97916531 -143.57706261 463.8921741 -139.52326965 460.43539429 C-137.38447531 458.37118664 -137.38447531 458.37118664 -137.49201965 455.34945679 C-137.59256653 454.27051147 -137.6931134 453.19156616 -137.79670715 452.07992554 C-137.97722622 446.12948219 -137.10526947 442.77804853 -133.46076965 438.07992554 C-130.72863295 435.31199665 -128.24693602 433.81893995 -124.67170715 432.26742554 C-123.68170715 432.26742554 -122.69170715 432.26742554 -121.67170715 432.26742554 C-121.67539433 431.32412478 -121.6790815 430.38082403 -121.6828804 429.40893841 C-121.77177385 406.43077848 -121.83745533 383.45264091 -121.87895584 360.47434521 C-121.89955986 349.36209683 -121.92763919 338.24996221 -121.97346497 327.13778687 C-122.01339883 317.44968901 -122.03915566 307.76167356 -122.04806113 298.07349569 C-122.05326477 292.94612728 -122.06545022 287.81899458 -122.09462738 282.69170189 C-122.12189997 277.85967302 -122.13012829 273.02797561 -122.12413788 268.19587708 C-122.12523283 266.42827868 -122.13311586 264.66066851 -122.14852905 262.89313698 C-122.26435805 248.91759966 -120.68806394 237.7598072 -110.67170715 227.26742554 C-99.30874721 216.4199874 -89.86065267 216.26742554 -73.67170715 216.26742554 C-73.67170715 187.22742554 -73.67170715 158.18742554 -73.67170715 128.26742554 C-91.41218864 128.42541026 -91.41218864 128.42541026 -109.1521759 128.6277771 C-111.3878452 128.63946729 -113.62352305 128.64965833 -115.85920715 128.65805054 C-117.00582825 128.6785144 -118.15244934 128.69897827 -119.33381653 128.72006226 C-127.31319916 128.72351953 -132.74338012 127.70984453 -138.91389465 122.30258179 C-139.45272278 121.65160522 -139.9915509 121.00062866 -140.54670715 120.32992554 C-141.10100403 119.6815271 -141.6553009 119.03312866 -142.22639465 118.36508179 C-146.70582812 111.86384997 -146.34634444 104.89601637 -145.67170715 97.26742554 C-143.99085133 90.6078322 -139.20792393 86.08195107 -133.67170715 82.26742554 C-128.82060962 79.66329166 -124.00784891 79.99960548 -118.64900208 80.04037476 C-117.14098022 80.03993668 -117.14098022 80.03993668 -115.60249329 80.03948975 C-112.28563247 80.04088101 -108.96899739 80.05643287 -105.6521759 80.07211304 C-103.35003787 80.07584388 -101.04789825 80.07869052 -98.74575806 80.08068848 C-92.69095972 80.08831927 -86.63625757 80.10796311 -80.58149719 80.13009644 C-74.40129396 80.15056672 -68.22107516 80.15969273 -62.04084778 80.16976929 C-49.91775868 80.19120943 -37.79474092 80.22533879 -25.67170715 80.26742554 C-25.6805896 79.49592163 -25.68947205 78.72441772 -25.69862366 77.92953491 C-25.77901491 70.63285475 -25.83979526 63.33639154 -25.87895584 56.03938293 C-25.89976613 52.28854364 -25.92796182 48.53807252 -25.97346497 44.78744507 C-26.01715965 41.16289692 -26.04089351 37.53870127 -26.05121613 33.91390991 C-26.05856547 32.5360866 -26.07291662 31.15828099 -26.09462738 29.78060913 C-26.23266801 20.65204155 -25.92640482 14.12268689 -19.7068634 7.02523804 C-19.05588684 6.48640991 -18.40491028 5.94758179 -17.73420715 5.39242554 C-17.08580872 4.83812866 -16.43741028 4.28383179 -15.7693634 3.71273804 C-10.70982369 0.22664922 -6.00356833 -0.02288127 0 0 Z M-33.67170715 128.26742554 C-33.67170715 157.30742554 -33.67170715 186.34742554 -33.67170715 216.26742554 C-29.38170715 216.92742554 -25.09170715 217.58742554 -20.67170715 218.26742554 C-9.56969534 222.83884217 -1.81499562 229.26013303 3.32829285 240.26742554 C5.18124298 245.62682645 5.72262844 250.59689709 5.95329285 256.20492554 C6.01130066 257.37378296 6.01130066 257.37378296 6.07048035 258.56625366 C6.16373412 260.46629932 6.24705247 262.36682832 6.32829285 264.26742554 C7.23450378 264.28160522 8.14071472 264.29578491 9.0743866 264.31039429 C17.6760028 264.64717714 24.77719259 265.35197649 30.86222839 271.92416382 C34.95970392 277.28332536 37.60764785 282.84952244 40.14079285 289.07992554 C40.53460144 290.02029663 40.92841003 290.96066772 41.33415222 291.92953491 C45.19498243 301.19420295 47.34628113 310.31758247 44.4571991 320.26742554 C41.79682989 325.98939995 38.35653787 329.52089003 33.32829285 333.26742554 C34.26254845 339.23106091 35.77406134 344.89926236 37.71110535 350.61117554 C49.62064029 385.86114851 49.62064029 385.86114851 42.58610535 401.94711304 C37.23551367 411.81745918 29.92982022 419.03192567 19.1603241 422.55648804 C14.91004048 423.62345579 10.69953104 424.07778397 6.32829285 424.26742554 C6.32829285 426.90742554 6.32829285 429.54742554 6.32829285 432.26742554 C6.99216003 432.53555054 7.65602722 432.80367554 8.3400116 433.07992554 C15.10108535 436.08046046 18.30541087 438.441563 21.32829285 445.26742554 C21.82329285 450.71242554 21.82329285 450.71242554 22.32829285 456.26742554 C51.36829285 456.26742554 80.40829285 456.26742554 110.32829285 456.26742554 C110.32829285 348.02742554 110.32829285 239.78742554 110.32829285 128.26742554 C62.80829285 128.26742554 15.28829285 128.26742554 -33.67170715 128.26742554 Z M6.32829285 336.26742554 C6.32829285 360.02742554 6.32829285 383.78742554 6.32829285 408.26742554 C16.78821912 406.17544028 21.31077122 404.45794108 27.32829285 396.26742554 C33.38072425 383.4341899 27.05320579 369.47108779 22.89079285 357.01742554 C22.27128221 355.11041584 21.6534302 353.20286648 21.03727722 351.29476929 C19.08138182 343.22002494 19.08138182 343.22002494 15.32829285 336.26742554 C12.35829285 336.26742554 9.38829285 336.26742554 6.32829285 336.26742554 Z " fill="#000000" transform="translate(153.6717071533203,7.732574462890625)"/>
<path d="M0 0 C63.36 0 126.72 0 192 0 C192 108.24 192 216.48 192 328 C128.64 328 65.28 328 0 328 C0 219.76 0 111.52 0 0 Z " fill="#EBEBEB" transform="translate(280,136)"/>
<path d="M0 0 C0.67453043 -0.00638882 1.34906087 -0.01277764 2.04403162 -0.01936007 C4.29766372 -0.03458527 6.54953056 -0.01416828 8.80310059 0.00622559 C10.42132652 0.0027236 12.039549 -0.00293586 13.65776062 -0.0105896 C18.04838486 -0.02483627 22.43838272 -0.00777747 26.82894707 0.01569557 C31.42437378 0.03580428 36.01977448 0.029925 40.61523438 0.02758789 C48.33242115 0.02764146 56.04936309 0.04739822 63.76647949 0.07946777 C72.68759387 0.11636058 81.6083875 0.12514332 90.5295682 0.11817026 C99.11262625 0.11186423 107.69557436 0.12262141 116.27861023 0.14213562 C119.93081733 0.15030875 123.58296823 0.15301933 127.23518372 0.15144348 C131.53625924 0.1505643 135.83703013 0.16478968 140.13802528 0.19067001 C141.71622046 0.19782995 143.29444804 0.19991626 144.87265587 0.19655228 C147.02765731 0.19283514 149.18177086 0.20759174 151.33666992 0.22705078 C153.14516544 0.23264385 153.14516544 0.23264385 154.99019623 0.23834991 C158.47968144 0.65899135 160.37295768 1.52661727 163.16833496 3.62145996 C164.45010675 6.18500355 164.29999364 8.00618649 164.30877686 10.8775177 C164.314487 11.99212372 164.32019714 13.10672974 164.32608032 14.25511169 C164.32775711 16.09801537 164.32775711 16.09801537 164.32946777 17.97814941 C164.33443268 19.26763489 164.33939758 20.55712036 164.34451294 21.88568115 C164.35764556 25.42917334 164.36408371 28.97264657 164.3685236 32.5161593 C164.37145327 34.72968505 164.3755579 36.9432056 164.38002777 39.15672874 C164.39370571 46.08134764 164.4033706 53.00595469 164.40722966 59.93058616 C164.41170965 67.92571221 164.42925342 75.92066722 164.45823026 83.91574126 C164.47984592 90.09415612 164.4899339 96.27252285 164.49127078 102.45097512 C164.49231901 106.14167773 164.49823024 109.83221964 164.51609039 113.52288246 C164.53563032 117.64088949 164.53128259 121.75853868 164.52478027 125.87658691 C164.53399506 127.09911667 164.54320984 128.32164642 164.55270386 129.58122253 C164.54435013 131.26582077 164.54435013 131.26582077 164.53582764 132.98445129 C164.5372942 133.95803243 164.53876076 134.93161356 164.54027176 135.93469715 C164.09417569 139.15716489 163.11820115 141.03240215 161.16833496 143.62145996 C157.76347822 144.75641221 155.16186989 144.75306399 151.57044983 144.76190186 C150.89692268 144.76487298 150.22339553 144.7678441 149.52945846 144.77090526 C147.26787678 144.77959138 145.00634803 144.78110041 142.74475098 144.78259277 C141.1252023 144.78722092 139.50565471 144.79224558 137.8861084 144.79763794 C133.48326574 144.81076221 129.08043833 144.81720668 124.67757916 144.8216486 C121.92819275 144.82457862 119.17881051 144.82868324 116.42942619 144.83315277 C107.83092345 144.84682632 99.23243025 144.85649429 90.63391739 144.86035466 C80.70086854 144.8648385 70.76795709 144.88240207 60.83495003 144.91135526 C53.16100231 144.93294915 45.48709332 144.94305768 37.81311554 144.94439578 C33.22765221 144.94544524 28.64231807 144.95138317 24.05688667 144.96921539 C19.74523011 144.98565703 15.4338004 144.98787071 11.12212372 144.97907639 C9.53865134 144.97830397 7.95516696 144.98267557 6.37172508 144.99253464 C4.21194566 145.00519496 2.05297694 144.99941048 -0.10679626 144.98895264 C-1.31597938 144.9904192 -2.52516249 144.99188576 -3.77098751 144.99339676 C-7.11465522 144.58707069 -8.4853603 143.9996775 -10.83166504 141.62145996 C-11.85273251 138.55825754 -11.96716168 136.45379102 -11.98556519 133.24514771 C-11.99416565 132.12916702 -12.00276611 131.01318634 -12.0116272 129.86338806 C-12.01588715 128.63838089 -12.02014709 127.41337372 -12.02453613 126.15124512 C-12.03271362 124.86161362 -12.04089111 123.57198212 -12.04931641 122.24327087 C-12.07550471 117.96570925 -12.09083819 113.68813798 -12.10510254 109.41052246 C-12.11046303 107.93745289 -12.11584054 106.46438338 -12.12123489 104.99131393 C-12.14285657 98.86454682 -12.16159404 92.73778231 -12.17285728 86.61098671 C-12.18910363 77.8317316 -12.22230554 69.05291853 -12.27925813 60.27383006 C-12.31794678 54.09964477 -12.3374885 47.92557779 -12.34277785 41.75127447 C-12.3464321 38.06380603 -12.35846047 34.37680941 -12.39088058 30.6894722 C-12.42652883 26.57620138 -12.42259322 22.46388241 -12.41516113 18.35046387 C-12.43156647 17.12950516 -12.4479718 15.90854645 -12.46487427 14.65058899 C-12.45655579 13.52896866 -12.4482373 12.40734833 -12.43966675 11.2517395 C-12.44463197 9.79331603 -12.44463197 9.79331603 -12.44969749 8.30542946 C-10.90195983 1.58396904 -6.32593466 -0.00373843 0 0 Z " fill="#75D7FE" transform="translate(299.8316650390625,199.3785400390625)"/>
<path d="M0 0 C0.83857809 -0.00568326 1.67715619 -0.01136651 2.54114574 -0.01722199 C5.34978971 -0.03013628 8.1569957 -0.007326 10.96556091 0.0153656 C12.97949018 0.01350174 14.99341843 0.00946553 17.00733948 0.00341797 C22.47634327 -0.00656698 27.94482982 0.01463025 33.41375852 0.04189801 C39.13340345 0.06570673 44.85303774 0.0627829 50.57272339 0.0632019 C60.17722851 0.06783161 69.78153554 0.0914855 79.38597107 0.12767029 C90.49627085 0.16941654 101.60639223 0.18698577 112.71676594 0.19029003 C124.53728151 0.19388751 136.35773272 0.21275939 148.17822146 0.23741031 C151.58807892 0.24364371 154.99793148 0.24727701 158.40779305 0.25044441 C163.76185294 0.25633861 169.11578493 0.27263402 174.46979141 0.29704857 C176.43703791 0.30449851 178.40430051 0.30856114 180.37156105 0.30902863 C183.0522019 0.31028338 185.73250378 0.32380551 188.41308594 0.34057617 C189.58695959 0.33695355 189.58695959 0.33695355 190.78454787 0.33325773 C197.59545673 0.40019049 197.59545673 0.40019049 200.64305115 2.61473083 C203.1522799 6.37857397 202.92452456 9.33671411 202.90184021 13.69456482 C202.90709717 14.92916443 202.90709717 14.92916443 202.91246033 16.18870544 C202.9212716 18.91283065 202.91543009 21.63669668 202.90867615 24.36082458 C202.9100231 26.25267588 202.91196389 28.14452684 202.91447449 30.03637695 C202.91742504 34.00336499 202.91313079 37.97026302 202.90379333 41.9372406 C202.89240664 47.02282355 202.89895376 52.10819523 202.91093826 57.19377041 C202.91816535 61.10138541 202.91586489 65.00895034 202.91068268 68.91656685 C202.90934813 70.79166247 202.91098709 72.66676263 202.91564178 74.54185295 C202.92072005 77.16319187 202.91297812 79.78418886 202.90184021 82.40550232 C202.90588867 83.18122086 202.90993713 83.95693939 202.91410828 84.75616455 C202.85929014 91.7193404 202.85929014 91.7193404 200.64305115 94.61473083 C196.8794373 97.22615015 192.80556417 96.89955183 188.40635681 96.88215637 C187.56863314 96.88668748 186.73090947 96.8912186 185.86780024 96.89588702 C183.05649992 96.90856267 180.24539253 96.90690862 177.43406677 96.90525818 C175.42028554 96.91124135 173.40650661 96.9180464 171.39273071 96.9256134 C165.91972081 96.94329953 160.44677343 96.94796981 154.97373772 96.94924498 C150.4083593 96.95114256 145.8429955 96.95849827 141.2776227 96.96558917 C130.51026451 96.98187973 119.74293977 96.98675741 108.97557068 96.9853363 C97.85786114 96.98413385 86.74034542 97.00525485 75.62268496 97.03682363 C66.08460718 97.06294485 56.54659288 97.07370539 47.0084796 97.07242548 C41.30854196 97.07191474 35.60877661 97.07766021 29.90887451 97.09878159 C24.55067568 97.11809469 19.19281476 97.11833603 13.83460426 97.10374832 C11.86573101 97.10165067 9.89683698 97.10641762 7.9279995 97.11846924 C5.24484652 97.13383251 2.56287183 97.12467331 -0.12025452 97.10920715 C-0.90351907 97.11949428 -1.68678363 97.12978141 -2.49378347 97.14038026 C-6.03579679 97.09510749 -7.97130183 96.91445292 -10.80924225 94.70882607 C-13.72915701 90.75809046 -13.52382207 87.42310036 -13.54981995 82.66429138 C-13.55799744 81.84297729 -13.56617493 81.02166321 -13.57460022 80.17546082 C-13.59946269 77.45079786 -13.61597211 74.72618703 -13.63038635 72.00144958 C-13.63571003 71.07175669 -13.64103371 70.14206379 -13.64651871 69.18419838 C-13.67325361 64.26367136 -13.69262768 59.34316974 -13.70704651 54.42259216 C-13.72369808 49.33797549 -13.76847902 44.25400651 -13.81941795 39.16963482 C-13.85305903 35.26198576 -13.86462047 31.35449104 -13.87027359 27.44671059 C-13.87699444 25.57239136 -13.89223813 23.69808259 -13.9161644 21.82390404 C-13.94775312 19.19984894 -13.94786262 16.57754887 -13.94044495 13.95335388 C-13.95685028 13.17965958 -13.97325562 12.40596527 -13.99015808 11.60882568 C-13.94739632 7.91179748 -13.57160329 5.90225864 -11.34125805 2.91473007 C-7.54786821 -0.00882548 -4.59877235 -0.07779011 0 0 Z " fill="#EBEAEA" transform="translate(157.35694885253906,23.385269165039063)"/>
<path d="M0 0 C1.15179749 -0.0127597 2.30359497 -0.02551941 3.49029541 -0.03866577 C5.345065 -0.04200424 5.345065 -0.04200424 7.23730469 -0.04541016 C8.51845154 -0.05206696 9.79959839 -0.05872375 11.11956787 -0.06558228 C13.82958341 -0.07753504 16.5394717 -0.08126536 19.24951172 -0.08007812 C22.70039046 -0.07987546 26.15044081 -0.10713052 29.60112381 -0.14162254 C32.91736111 -0.16938988 36.23345293 -0.16804494 39.54980469 -0.17041016 C41.39242889 -0.19196671 41.39242889 -0.19196671 43.27227783 -0.21395874 C51.66522965 -0.16960651 58.21478417 0.9242417 64.71777344 6.47412109 C65.3378125 7.21791016 65.95785156 7.96169922 66.59667969 8.72802734 C67.23476562 9.46923828 67.87285156 10.21044922 68.53027344 10.97412109 C71.90528861 15.77360311 72.44803851 20.04484219 72.39968872 25.80122375 C72.40139757 26.54870241 72.40310642 27.29618106 72.40486705 28.06631058 C72.40815613 30.56603371 72.39716793 33.06548723 72.38623047 35.56518555 C72.38566623 37.35900364 72.38598316 39.15282219 72.38711548 40.94664001 C72.38768949 45.81399776 72.37592725 50.68125701 72.36196756 55.54859185 C72.34946837 60.63616452 72.34829034 65.72373942 72.34591675 70.81132507 C72.3396996 80.44432345 72.32328559 90.07727645 72.30321777 99.71025485 C72.276687 112.72805251 72.26588802 125.74586258 72.25421333 138.76368046 C72.23540518 159.27266341 72.19556104 179.78155061 72.15917969 200.29052734 C40.47917969 200.29052734 8.79917969 200.29052734 -23.84082031 200.29052734 C-24.00203245 154.97200442 -24.00203245 154.97200442 -24.03613281 135.98583984 C-24.05987016 122.8747736 -24.08778023 109.76381016 -24.14257812 96.65283203 C-24.18246758 87.10429828 -24.20825831 77.5558479 -24.21717429 68.00723314 C-24.22238544 62.95205901 -24.23461887 57.89712339 -24.26374054 52.84202576 C-24.29094286 48.08141239 -24.29925554 43.32113521 -24.29325104 38.56045151 C-24.29434912 36.81578111 -24.30227428 35.07109918 -24.31764221 33.32649612 C-24.46690104 15.50417826 -24.46690104 15.50417826 -17.65722656 7.82958984 C-16.54154297 6.88212891 -16.54154297 6.88212891 -15.40332031 5.91552734 C-14.66210938 5.26841797 -13.92089844 4.62130859 -13.15722656 3.95458984 C-8.89026717 0.8892868 -5.21240804 0.03934854 0 0 Z " fill="#B43B32" transform="translate(71.8408203125,239.70947265625)"/>
<path d="M0 0 C0.67453043 -0.00638882 1.34906087 -0.01277764 2.04403162 -0.01936007 C4.29766372 -0.03458527 6.54953056 -0.01416828 8.80310059 0.00622559 C10.42132652 0.0027236 12.039549 -0.00293586 13.65776062 -0.0105896 C18.04838486 -0.02483627 22.43838272 -0.00777747 26.82894707 0.01569557 C31.42437378 0.03580428 36.01977448 0.029925 40.61523438 0.02758789 C48.33242115 0.02764146 56.04936309 0.04739822 63.76647949 0.07946777 C72.68759387 0.11636058 81.6083875 0.12514332 90.5295682 0.11817026 C99.11262625 0.11186423 107.69557436 0.12262141 116.27861023 0.14213562 C119.93081733 0.15030875 123.58296823 0.15301933 127.23518372 0.15144348 C131.53625924 0.1505643 135.83703013 0.16478968 140.13802528 0.19067001 C141.71622046 0.19782995 143.29444804 0.19991626 144.87265587 0.19655228 C147.02765731 0.19283514 149.18177086 0.20759174 151.33666992 0.22705078 C153.14516544 0.23264385 153.14516544 0.23264385 154.99019623 0.23834991 C158.47968144 0.65899135 160.37295768 1.52661727 163.16833496 3.62145996 C164.45010675 6.18500355 164.29999364 8.00618649 164.30877686 10.8775177 C164.314487 11.99212372 164.32019714 13.10672974 164.32608032 14.25511169 C164.32775711 16.09801537 164.32775711 16.09801537 164.32946777 17.97814941 C164.33443268 19.26763489 164.33939758 20.55712036 164.34451294 21.88568115 C164.35764556 25.42917334 164.36408371 28.97264657 164.3685236 32.5161593 C164.37145327 34.72968505 164.3755579 36.9432056 164.38002777 39.15672874 C164.39370571 46.08134764 164.4033706 53.00595469 164.40722966 59.93058616 C164.41170965 67.92571221 164.42925342 75.92066722 164.45823026 83.91574126 C164.47984592 90.09415612 164.4899339 96.27252285 164.49127078 102.45097512 C164.49231901 106.14167773 164.49823024 109.83221964 164.51609039 113.52288246 C164.53563032 117.64088949 164.53128259 121.75853868 164.52478027 125.87658691 C164.53399506 127.09911667 164.54320984 128.32164642 164.55270386 129.58122253 C164.54435013 131.26582077 164.54435013 131.26582077 164.53582764 132.98445129 C164.5372942 133.95803243 164.53876076 134.93161356 164.54027176 135.93469715 C164.09417569 139.15716489 163.11820115 141.03240215 161.16833496 143.62145996 C157.76347822 144.75641221 155.16186989 144.75306399 151.57044983 144.76190186 C150.89692268 144.76487298 150.22339553 144.7678441 149.52945846 144.77090526 C147.26787678 144.77959138 145.00634803 144.78110041 142.74475098 144.78259277 C141.1252023 144.78722092 139.50565471 144.79224558 137.8861084 144.79763794 C133.48326574 144.81076221 129.08043833 144.81720668 124.67757916 144.8216486 C121.92819275 144.82457862 119.17881051 144.82868324 116.42942619 144.83315277 C107.83092345 144.84682632 99.23243025 144.85649429 90.63391739 144.86035466 C80.70086854 144.8648385 70.76795709 144.88240207 60.83495003 144.91135526 C53.16100231 144.93294915 45.48709332 144.94305768 37.81311554 144.94439578 C33.22765221 144.94544524 28.64231807 144.95138317 24.05688667 144.96921539 C19.74523011 144.98565703 15.4338004 144.98787071 11.12212372 144.97907639 C9.53865134 144.97830397 7.95516696 144.98267557 6.37172508 144.99253464 C4.21194566 145.00519496 2.05297694 144.99941048 -0.10679626 144.98895264 C-1.31597938 144.9904192 -2.52516249 144.99188576 -3.77098751 144.99339676 C-7.11465522 144.58707069 -8.4853603 143.9996775 -10.83166504 141.62145996 C-11.85273251 138.55825754 -11.96716168 136.45379102 -11.98556519 133.24514771 C-11.99416565 132.12916702 -12.00276611 131.01318634 -12.0116272 129.86338806 C-12.01588715 128.63838089 -12.02014709 127.41337372 -12.02453613 126.15124512 C-12.03271362 124.86161362 -12.04089111 123.57198212 -12.04931641 122.24327087 C-12.07550471 117.96570925 -12.09083819 113.68813798 -12.10510254 109.41052246 C-12.11046303 107.93745289 -12.11584054 106.46438338 -12.12123489 104.99131393 C-12.14285657 98.86454682 -12.16159404 92.73778231 -12.17285728 86.61098671 C-12.18910363 77.8317316 -12.22230554 69.05291853 -12.27925813 60.27383006 C-12.31794678 54.09964477 -12.3374885 47.92557779 -12.34277785 41.75127447 C-12.3464321 38.06380603 -12.35846047 34.37680941 -12.39088058 30.6894722 C-12.42652883 26.57620138 -12.42259322 22.46388241 -12.41516113 18.35046387 C-12.43156647 17.12950516 -12.4479718 15.90854645 -12.46487427 14.65058899 C-12.45655579 13.52896866 -12.4482373 12.40734833 -12.43966675 11.2517395 C-12.44463197 9.79331603 -12.44463197 9.79331603 -12.44969749 8.30542946 C-10.90195983 1.58396904 -6.32593466 -0.00373843 0 0 Z M4.16833496 16.62145996 C4.16833496 53.58145996 4.16833496 90.54145996 4.16833496 128.62145996 C6.80833496 128.62145996 9.44833496 128.62145996 12.16833496 128.62145996 C12.18291748 127.88621094 12.1975 127.15096191 12.21252441 126.39343262 C12.28772751 123.01062216 12.38414678 119.62872185 12.48083496 116.24645996 C12.50339355 115.0901709 12.52595215 113.93388184 12.54919434 112.74255371 C12.92704726 100.58255945 15.18106885 91.70713827 23.83239746 82.93395996 C32.20376623 75.28887432 40.64315466 73.2478867 51.80895996 73.33630371 C60.88179359 74.10643959 68.6917976 78.76683601 74.79333496 85.37145996 C85.83175873 98.4856935 83.47142219 110.50172791 84.16833496 128.62145996 C105.28833496 128.62145996 126.40833496 128.62145996 148.16833496 128.62145996 C148.16833496 91.66145996 148.16833496 54.70145996 148.16833496 16.62145996 C100.64833496 16.62145996 53.12833496 16.62145996 4.16833496 16.62145996 Z " fill="#000000" transform="translate(299.8316650390625,199.3785400390625)"/>
<path d="M0 0 C1.15202408 -0.01283524 2.30404816 -0.02567047 3.49098206 -0.03889465 C5.36897743 -0.04997505 5.36897743 -0.04997505 7.28491211 -0.0612793 C8.5703038 -0.06935104 9.8556955 -0.07742279 11.18003845 -0.08573914 C13.90794747 -0.10077334 16.63583043 -0.11060528 19.36376953 -0.11816406 C22.83822677 -0.12917709 26.3120344 -0.16351281 29.78626347 -0.20333576 C33.11911866 -0.23597762 36.45190952 -0.24029745 39.78491211 -0.2487793 C41.02273941 -0.26628738 42.26056671 -0.28379547 43.53590393 -0.30183411 C51.96980414 -0.28081871 58.52310853 0.78319148 65.05834961 6.3605957 C65.67838867 7.10438477 66.29842773 7.84817383 66.93725586 8.61450195 C67.5753418 9.35571289 68.21342773 10.09692383 68.87084961 10.8605957 C72.15799526 15.53512178 72.74883714 19.40973499 72.74026489 25.08027649 C72.74197374 25.76241831 72.74368259 26.44456012 72.74544322 27.1473729 C72.74872932 29.42599325 72.73774916 31.70431708 72.72680664 33.98291016 C72.72624234 35.61909478 72.72655946 37.25527991 72.72769165 38.89146423 C72.72826541 43.32908757 72.71650729 47.76660277 72.70254374 52.20420098 C72.69004031 56.84333768 72.68886618 61.48247686 72.68649292 66.12162781 C72.68027702 74.90464509 72.66386469 83.68761258 72.64379394 92.47060794 C72.62143839 102.47052664 72.61044237 112.47044772 72.60040307 122.47038519 C72.57949857 143.03928524 72.54432043 163.60814046 72.49975586 184.17700195 C68.35268879 184.23929774 64.20574405 184.27667206 60.05834961 184.30981445 C58.89315796 184.32761963 57.72796631 184.3454248 56.52746582 184.36376953 C46.90531395 184.42135678 39.31214709 183.06147921 30.49975586 179.17700195 C29.51362305 178.75418945 28.52749023 178.33137695 27.51147461 177.89575195 C11.46833854 170.08975647 0.43077933 155.4524428 -5.30029297 138.86083984 C-7.63347271 131.32800239 -7.85946862 124.33158658 -7.68774414 116.48950195 C-7.67420898 115.29905273 -7.66067383 114.10860352 -7.64672852 112.88208008 C-7.61176243 109.97989457 -7.5626911 107.07870387 -7.50024414 104.17700195 C-4.86024414 104.17700195 -2.22024414 104.17700195 0.49975586 104.17700195 C0.49975586 98.89700195 0.49975586 93.61700195 0.49975586 88.17700195 C-2.14024414 88.17700195 -4.78024414 88.17700195 -7.50024414 88.17700195 C-7.50024414 82.89700195 -7.50024414 77.61700195 -7.50024414 72.17700195 C-5.52185547 72.15718262 -3.5434668 72.13736328 -1.50512695 72.11694336 C5.03285884 72.04916118 11.57069064 71.97238496 18.10850143 71.88947487 C22.07221733 71.83953769 26.03590691 71.79320751 29.99975586 71.75512695 C33.82538576 71.71824143 37.65079411 71.67187277 41.47623444 71.61893845 C42.93541832 71.60041182 44.39464966 71.58529744 45.85390472 71.57365799 C47.89852057 71.55676557 49.94263096 71.52772442 51.98706055 71.49584961 C53.15066101 71.48252594 54.31426147 71.46920227 55.51312256 71.45547485 C58.42420386 71.1840464 60.12214975 70.85389669 62.49975586 69.17700195 C63.80543477 65.25996523 63.70186549 61.50094983 63.73803711 57.4152832 C63.75014473 56.11834785 63.75014473 56.11834785 63.76249695 54.79521179 C63.77632668 52.96359251 63.7870538 51.13194757 63.79492188 49.30029297 C63.81208534 46.51715283 63.85597468 43.73521628 63.90014648 40.95239258 C63.91027844 39.16919815 63.91879297 37.38599366 63.92553711 35.6027832 C63.95179924 34.36640862 63.95179924 34.36640862 63.97859192 33.10505676 C63.95334052 26.28165932 62.03758401 21.12581442 57.57006836 15.93481445 C56.92811523 15.39598633 56.28616211 14.8571582 55.62475586 14.30200195 C54.98795898 13.74770508 54.35116211 13.1934082 53.69506836 12.62231445 C48.04606248 8.90321805 42.3163937 8.85748949 35.78881836 8.84106445 C34.8618515 8.83440765 33.93488464 8.82775085 32.97982788 8.82089233 C31.02490209 8.81079812 29.06994206 8.80607431 27.11499023 8.80639648 C24.14109931 8.80202597 21.16869689 8.7656795 18.19506836 8.7277832 C16.28882339 8.72191364 14.38257143 8.71794518 12.47631836 8.71606445 C11.59585846 8.70169342 10.71539856 8.68732239 9.80825806 8.67251587 C4.4388939 8.711805 0.75040381 9.60205807 -3.90567017 12.31820679 C-5.50024414 13.17700195 -5.50024414 13.17700195 -7.50024414 13.17700195 C-7.50024414 9.21700195 -7.50024414 5.25700195 -7.50024414 1.17700195 C-4.88561538 -0.13031243 -2.92819325 0.02835668 0 0 Z " fill="#DA4A3F" transform="translate(71.500244140625,239.822998046875)"/>
<path d="M0 0 C63.36 0 126.72 0 192 0 C192 7.92 192 15.84 192 24 C186.14954956 24.01401855 186.14954956 24.01401855 180.1809082 24.02832031 C167.26474711 24.06215424 154.34875284 24.11754004 141.43272114 24.18390274 C133.60512796 24.22359899 125.77763395 24.25603902 117.94995117 24.27099609 C111.12200914 24.28406172 104.29428617 24.3111504 97.46646756 24.35461307 C93.85596635 24.37711844 90.2457342 24.39291732 86.63515663 24.39188385 C82.5902058 24.39099017 78.54603987 24.42142455 74.5012207 24.45410156 C72.73390846 24.44655602 72.73390846 24.44655602 70.93089294 24.43885803 C56.25620409 24.62112895 42.54268325 29.64645549 31.6875 39.6875 C26.15605234 45.62228239 21.83244731 52.85017563 19.5 60.625 C18.7575 62.295625 18.7575 62.295625 18 64 C14.4375 65.3125 14.4375 65.3125 11 66 C8.75926912 69.36109633 8.74907753 70.45482381 8.74603271 74.38304138 C8.74039307 75.50046722 8.73475342 76.61789307 8.72894287 77.7691803 C8.73299133 78.99575851 8.73703979 80.22233673 8.74121094 81.48608398 C8.7377063 82.77732178 8.73420166 84.06855957 8.73059082 85.39892578 C8.72146415 88.94233022 8.72501242 92.48561834 8.73134899 96.02902484 C8.73640863 99.73607369 8.73171754 103.44311251 8.72857666 107.15016174 C8.72493645 113.37690012 8.72973706 119.60359108 8.73925781 125.83032227 C8.75013771 133.02907981 8.74662042 140.22772402 8.735605 147.4264788 C8.72652797 153.60575373 8.72524903 159.78499455 8.73048234 165.96427399 C8.73360037 169.65544082 8.73401607 173.34655441 8.72740936 177.03771782 C8.72055769 181.15338725 8.73005548 185.2688615 8.74121094 189.38452148 C8.73716248 190.60907547 8.73311401 191.83362946 8.72894287 193.09529114 C8.73740234 194.77565964 8.73740234 194.77565964 8.74603271 196.48997498 C8.74716379 197.94978114 8.74716379 197.94978114 8.74831772 199.43907833 C9.02049893 202.20858101 9.36114899 203.7494095 11 206 C12.65 206.66 14.3 207.32 16 208 C16 247.6 16 287.2 16 328 C10.72 328 5.44 328 0 328 C0 219.76 0 111.52 0 0 Z " fill="#DEDEDF" transform="translate(280,136)"/>
<path d="M0 0 C0.92601013 -0.0066568 1.85202026 -0.0133136 2.80609131 -0.02017212 C4.76279725 -0.03027903 6.71953752 -0.03498975 8.67626953 -0.03466797 C11.6480497 -0.03902755 14.6183274 -0.07533022 17.58984375 -0.11328125 C19.4973908 -0.11915278 21.40494484 -0.12311992 23.3125 -0.125 C24.6301535 -0.14655655 24.6301535 -0.14655655 25.97442627 -0.16854858 C33.29458341 -0.11518499 39.3551395 1.71867774 44.98046875 6.51953125 C45.60050781 7.26332031 46.22054687 8.00710937 46.859375 8.7734375 C47.49746094 9.51464844 48.13554687 10.25585938 48.79296875 11.01953125 C52.54904831 16.36091057 52.72957263 21.07358255 52.72265625 27.3984375 C52.72694138 28.26734619 52.7312265 29.13625488 52.73564148 30.03149414 C52.74136988 31.86376069 52.74189604 33.69604997 52.73754883 35.52832031 C52.73438559 38.32656683 52.75787747 41.12375879 52.78320312 43.921875 C52.785476 45.70572784 52.78617967 47.48958351 52.78515625 49.2734375 C52.794366 50.10689697 52.80357574 50.94035645 52.81306458 51.79907227 C52.77628206 56.43063583 52.51631959 59.62568982 49.421875 63.3359375 C46.02053833 64.46971639 43.39783278 64.47677926 39.81079102 64.49707031 C39.14378174 64.50203522 38.47677246 64.50700012 37.78955078 64.51211548 C35.58495042 64.52671034 33.38042197 64.53353388 31.17578125 64.5390625 C29.6426544 64.54481527 28.10952757 64.55057299 26.57640076 64.55633545 C23.36269801 64.5668372 20.14902022 64.57268556 16.93530273 64.57617188 C12.81819483 64.58166108 8.7014169 64.60570139 4.58441257 64.63414383 C1.41797419 64.65276847 -1.74838459 64.65797566 -4.91487312 64.65950775 C-6.43272777 64.6625342 -7.95058101 64.6705625 -9.46838188 64.68369293 C-11.59172585 64.70075374 -13.71426173 64.6988739 -15.83764648 64.69238281 C-17.04549301 64.69602844 -18.25333954 64.69967407 -19.49778748 64.70343018 C-22.8564379 64.30273401 -24.22374641 63.72474778 -26.578125 61.3359375 C-27.88380391 57.41890078 -27.78023463 53.65988537 -27.81640625 49.57421875 C-27.824478 48.70959518 -27.83254974 47.84497162 -27.84086609 46.95414734 C-27.85469582 45.12252805 -27.86542295 43.29088311 -27.87329102 41.45922852 C-27.88479228 39.59424237 -27.90521466 37.72928866 -27.93481445 35.86450195 C-27.97768992 33.16334767 -27.9936893 30.46317199 -28.00390625 27.76171875 C-28.02141434 26.93746902 -28.03892242 26.1132193 -28.05696106 25.26399231 C-28.03112502 18.2826149 -26.04042572 13.11098124 -21.39453125 7.875 C-20.27884766 6.92753906 -20.27884766 6.92753906 -19.140625 5.9609375 C-18.39941406 5.31382812 -17.65820312 4.66671875 -16.89453125 4 C-11.44390269 0.08437139 -6.49367041 0.01630241 0 0 Z " fill="#000000" transform="translate(83.578125,247.6640625)"/>
<path d="M0 0 C0.73480019 0.00205532 1.46960039 0.00411064 2.22666726 0.00622824 C3.0038738 0.0044752 3.78108035 0.00272216 4.58183861 0.000916 C7.21970657 -0.0037835 9.85752036 -0.00126844 12.49539074 0.00114992 C14.39223704 -0.00071607 16.28908296 -0.00301591 18.18592826 -0.0057154 C23.42453599 -0.01186604 28.66312785 -0.011696 33.90173838 -0.01052102 C39.54121439 -0.01031784 45.18068519 -0.01582788 50.82015881 -0.02057859 C61.87852567 -0.02890348 72.9368872 -0.03163426 83.99525692 -0.03219097 C92.97881836 -0.03266525 101.96237803 -0.03471556 110.94593892 -0.0378916 C132.24175253 -0.04526789 153.53756466 -0.05141588 174.8333796 -0.05089304 C175.51497886 -0.05087746 176.19657813 -0.05086188 176.89883192 -0.05084583 C180.35375784 -0.05076272 183.80868375 -0.05066368 187.26360967 -0.05056112 C187.94981718 -0.05054118 188.63602469 -0.05052123 189.34302637 -0.05050068 C190.73070601 -0.05046025 192.11838564 -0.05041845 193.50606528 -0.05037529 C215.10273864 -0.04976235 236.69939631 -0.05727131 258.29606518 -0.07094786 C282.53822914 -0.08629325 306.78037951 -0.09490234 331.02254954 -0.09398463 C343.86643901 -0.09365188 356.71031078 -0.09643289 369.55419621 -0.10716268 C380.488082 -0.11623793 391.42194207 -0.11846757 402.35582998 -0.11165326 C407.93976245 -0.10837296 413.5236455 -0.10838533 419.10757336 -0.11700651 C424.21175175 -0.1248063 429.315841 -0.1235077 434.42001704 -0.11472238 C436.27398125 -0.11317287 438.1279519 -0.11505732 439.98190852 -0.12058245 C442.48735713 -0.12755903 444.99248569 -0.12241555 447.49792275 -0.11402628 C448.23038178 -0.11899446 448.9628408 -0.12396264 449.71749556 -0.12908137 C454.6969194 -0.09343348 454.6969194 -0.09343348 456.92521557 2.13486269 C456.36966002 6.69041825 456.36966002 6.69041825 454.92521557 8.13486269 C452.48220282 8.23548053 450.06737509 8.2703322 447.62376389 8.26349714 C446.84655734 8.26525018 446.0693508 8.26700322 445.26859254 8.26880938 C442.63072457 8.27350888 439.99291078 8.27099382 437.3550404 8.26857546 C435.4581941 8.27044145 433.56134819 8.2727413 431.66450289 8.27544078 C426.42589515 8.28159143 421.1873033 8.28142138 415.94869277 8.28024641 C410.30921675 8.28004322 404.66974595 8.28555326 399.03027233 8.29030398 C387.97190548 8.29862887 376.91354395 8.30135964 365.85517422 8.30191635 C356.87161278 8.30239063 347.88805311 8.30444094 338.90449223 8.30761698 C317.60867861 8.31499328 296.31286648 8.32114127 275.01705155 8.32061842 C274.33545228 8.32060284 273.65385301 8.32058726 272.95159922 8.32057121 C269.49667331 8.3204881 266.04174739 8.32038906 262.58682147 8.3202865 C261.90061396 8.32026656 261.21440645 8.32024661 260.50740477 8.32022606 C259.11972514 8.32018563 257.7320455 8.32014383 256.34436587 8.32010067 C234.74769251 8.31948773 213.15103483 8.32699669 191.55436596 8.34067324 C167.312202 8.35601863 143.07005164 8.36462772 118.8278816 8.36371002 C105.98399214 8.36337727 93.14012037 8.36615827 80.29623494 8.37688807 C69.36234915 8.38596331 58.42848908 8.38819295 47.49460117 8.38137864 C41.9106687 8.37809835 36.32678565 8.37811071 30.74285778 8.38673189 C25.63867939 8.39453168 20.53459015 8.39323308 15.4304141 8.38444776 C13.57644989 8.38289825 11.72247924 8.3847827 9.86852262 8.39030784 C7.36307402 8.39728441 4.85794546 8.39214093 2.3525084 8.38375166 C1.62004937 8.38871984 0.88759034 8.39368802 0.13293558 8.39880675 C-4.84648826 8.36315886 -4.84648826 8.36315886 -7.07478443 6.13486269 C-6.38119721 0.44744754 -5.6270841 0.02348987 0 0 Z " fill="#484848" transform="translate(31.07478442788124,479.865137308836)"/>
<path d="M0 0 C7.2545095 4.63903169 12.48007361 9.91503076 15.05859375 18.31640625 C15.42721275 22.09834141 15.3030794 25.50243016 15.05859375 29.31640625 C9.77859375 29.31640625 4.49859375 29.31640625 -0.94140625 29.31640625 C-1.16828125 27.93453125 -1.39515625 26.55265625 -1.62890625 25.12890625 C-2.62633798 20.57229369 -4.24071063 18.27696274 -7.94140625 15.31640625 C-10.80748754 13.88336561 -12.75441408 14.0099647 -15.94140625 14.31640625 C-19.90787421 16.45219669 -22.35947581 18.0818124 -23.94140625 22.31640625 C-24.31570127 26.43331873 -24.2707344 30.54600293 -24.25708008 34.67871094 C-24.25392772 36.67778981 -24.27823767 38.67684998 -24.30273438 40.67578125 C-24.30337891 41.94679687 -24.30402344 43.2178125 -24.3046875 44.52734375 C-24.30766846 45.68540527 -24.31064941 46.8434668 -24.3137207 48.03662109 C-23.80516972 52.51653839 -22.20313628 55.81203582 -19.31640625 59.25390625 C-15.47893904 60.9706679 -11.91773062 60.51213369 -7.94140625 59.31640625 C-4.89502047 56.94187063 -4.89502047 56.94187063 -2.94140625 54.31640625 C-9.87140625 53.82140625 -9.87140625 53.82140625 -16.94140625 53.31640625 C-16.94140625 48.03640625 -16.94140625 42.75640625 -16.94140625 37.31640625 C-12.54454942 37.18153334 -8.15182345 37.08232046 -3.75390625 37.00390625 C-2.50802734 36.96201172 -1.26214844 36.92011719 0.02148438 36.87695312 C9.17967818 36.75418913 9.17967818 36.75418913 13.38671875 39.4453125 C16.6919173 45.12129599 16.00417607 51.6620087 14.39453125 57.8828125 C11.18694104 65.90178804 5.75100872 72.10358918 -2.14453125 75.625 C-8.73424713 78.16060807 -15.91656511 78.46876999 -22.73828125 76.515625 C-30.41886324 73.04505146 -36.15835119 67.42016669 -39.51782227 59.68823242 C-41.10261945 55.3353989 -41.4088981 51.3945862 -41.41015625 46.79296875 C-41.41776978 46.0067514 -41.4253833 45.22053406 -41.43322754 44.41049194 C-41.44396143 42.75839387 -41.44690919 41.10622831 -41.44238281 39.45410156 C-41.44141111 36.9539035 -41.48309158 34.45678718 -41.52734375 31.95703125 C-41.60697802 21.50545642 -40.69929288 13.95693969 -33.73046875 5.6953125 C-23.82309321 -2.62044495 -12.21884534 -6.43451122 0 0 Z " fill="#030202" transform="translate(200.94140625,34.68359375)"/>
<path d="M0 0 C4.81807357 3.84720442 6.411097 7.81074861 8.234375 13.47265625 C8.51407135 14.30073792 8.7937677 15.12881958 9.0819397 15.98199463 C9.98594469 18.6708541 10.8683974 21.36622111 11.75 24.0625 C12.36691915 25.91531835 12.98492699 27.76777455 13.60400391 29.61987305 C15.13691551 34.21943727 16.65114226 38.82489035 18.15856934 43.43286133 C19.17671796 46.53915258 20.20542387 49.6418778 21.23461914 52.74452209 C22.28958757 55.93120057 23.3329421 59.12157416 24.375 62.3125 C24.74979492 63.45404541 25.12458984 64.59559082 25.51074219 65.77172852 C25.84493164 66.81256592 26.17912109 67.85340332 26.5234375 68.92578125 C26.81138184 69.81692627 27.09932617 70.70807129 27.39599609 71.6262207 C28 74 28 74 28 78 C26.06441401 78.67220351 24.12645628 79.33758077 22.1875 80 C21.10855469 80.37125 20.02960938 80.7425 18.91796875 81.125 C16 82 16 82 13 82 C10.03 73.585 10.03 73.585 7 65 C0.4 65 -6.2 65 -13 65 C-14.98 70.61 -16.96 76.22 -19 82 C-24.92243383 81.15393802 -28.64735202 80.15984041 -34 78 C-33.45552685 70.16279308 -30.93402805 63.05588358 -28.44921875 55.6484375 C-27.98901238 54.26189997 -27.52920584 52.87522967 -27.06977844 51.48843384 C-26.10884527 48.59380098 -25.14240946 45.70107949 -24.17211914 42.80957031 C-22.93363993 39.11704108 -21.71015784 35.41974246 -20.49089336 31.72083092 C-19.54587379 28.8601186 -18.59237165 26.00228823 -17.63639259 23.14522171 C-17.18198197 21.78346932 -16.73029345 20.42080525 -16.28146935 19.05720139 C-15.65167453 17.14770822 -15.00905124 15.24246089 -14.3659668 13.33740234 C-14.0048027 12.25566742 -13.64363861 11.1739325 -13.27153015 10.05941772 C-10.36431082 3.06438238 -7.93029912 -0.93297637 0 0 Z " fill="#050404" transform="translate(259,32)"/>
<path d="M0 0 C6.6 0 13.2 0 20 0 C20.515625 1.485 21.03125 2.97 21.5625 4.5 C28.00015387 22.11287697 36.33383345 37.31531483 48 52 C49.0055875 53.32912435 50.00826213 54.66050989 51 56 C49.24236328 56.11214844 49.24236328 56.11214844 47.44921875 56.2265625 C35.11506876 57.18706784 25.23205418 59.56208082 16.5 69.0078125 C11.10272691 76.17606582 8.98916863 83.31410961 8.68359375 92.17578125 C8.64169922 93.33271484 8.59980469 94.48964844 8.55664062 95.68164062 C8.51732422 96.87982422 8.47800781 98.07800781 8.4375 99.3125 C8.39431641 100.53001953 8.35113281 101.74753906 8.30664062 103.00195312 C8.20078504 106.0011947 8.09870274 109.00051591 8 112 C5.36 112 2.72 112 0 112 C0 75.04 0 38.08 0 0 Z " fill="#65C1EC" transform="translate(304,216)"/>
<path d="M0 0 C5.48516472 3.23658788 9.55200209 7.7215753 12.5625 13.3125 C13.1589336 16.34437079 13.37475463 19.21470138 13.5625 22.3125 C8.2825 22.3125 3.0025 22.3125 -2.4375 22.3125 C-3.0975 20.3325 -3.7575 18.3525 -4.4375 16.3125 C-5.87390171 16.11676392 -7.31169504 15.93122184 -8.75 15.75 C-9.55050781 15.64558594 -10.35101563 15.54117188 -11.17578125 15.43359375 C-13.60567116 15.16494822 -13.60567116 15.16494822 -16.4375 16.3125 C-16.623125 17.55 -16.80875 18.7875 -17 20.0625 C-17.10441406 20.75859375 -17.20882813 21.4546875 -17.31640625 22.171875 C-17.44464927 24.43888056 -17.09471297 26.15099957 -16.4375 28.3125 C-15.49648438 28.49425781 -14.55546875 28.67601563 -13.5859375 28.86328125 C-12.34070313 29.11464844 -11.09546875 29.36601563 -9.8125 29.625 C-8.58273437 29.86863281 -7.35296875 30.11226562 -6.0859375 30.36328125 C2.86681172 32.69252971 7.81879962 37.51927795 12.5625 45.3125 C14.7639476 51.91684281 14.2715963 59.25470607 11.46484375 65.60546875 C8.04404126 72.07685701 2.42977379 76.02340874 -4.4375 78.3125 C-11.95033174 78.99143739 -18.18666743 78.80437736 -24.4375 74.3125 C-29.4519797 69.85518471 -32.70481228 65.84339986 -34.4375 59.3125 C-34.4375 57.6625 -34.4375 56.0125 -34.4375 54.3125 C-29.1575 54.3125 -23.8775 54.3125 -18.4375 54.3125 C-17.7775 56.2925 -17.1175 58.2725 -16.4375 60.3125 C-14.58125 60.5909375 -14.58125 60.5909375 -12.6875 60.875 C-11.99140625 60.97941406 -11.2953125 61.08382812 -10.578125 61.19140625 C-8.31111944 61.31964927 -6.59900043 60.96971297 -4.4375 60.3125 C-4.24176392 58.87609829 -4.05622184 57.43830496 -3.875 56 C-3.77058594 55.19949219 -3.66617187 54.39898437 -3.55859375 53.57421875 C-3.28994822 51.14432884 -3.28994822 51.14432884 -4.4375 48.3125 C-5.9225 48.07466797 -5.9225 48.07466797 -7.4375 47.83203125 C-16.684003 46.24450807 -24.40562207 44.62044209 -30.3125 36.8125 C-34.70949081 30.29388425 -35.24789969 24.01629954 -34.4375 16.3125 C-32.03466292 8.38963178 -26.35818974 3.52509375 -19.4375 -0.6875 C-13.27966752 -2.74011083 -5.92760512 -2.80543143 0 0 Z " fill="#050303" transform="translate(330.4375,33.6875)"/>
<path d="M0 0 C1.91635217 -0.05423638 3.83314925 -0.09289963 5.75 -0.125 C7.35101563 -0.15980469 7.35101563 -0.15980469 8.984375 -0.1953125 C11.98109254 -0.00122458 13.54134409 0.32767098 16 2 C18.50922875 5.76384313 18.28147342 8.72198328 18.25878906 13.07983398 C18.2622937 13.90290039 18.26579834 14.7259668 18.26940918 15.57397461 C18.27822045 18.29809981 18.27237895 21.02196584 18.265625 23.74609375 C18.26697195 25.63794505 18.26891274 27.52979601 18.27142334 29.42164612 C18.27437389 33.38863416 18.27007964 37.35553218 18.26074219 41.32250977 C18.24935549 46.40809272 18.25590261 51.4934644 18.26788712 56.57903957 C18.2751142 60.48665458 18.27281374 64.3942195 18.26763153 68.30183601 C18.26629698 70.17693163 18.26793594 72.0520318 18.27259064 73.92712212 C18.27766891 76.54846104 18.26992697 79.16945803 18.25878906 81.79077148 C18.26283752 82.56649002 18.26688599 83.34220856 18.27105713 84.14143372 C18.24153256 87.89173911 18.18939255 90.86379763 16 94 C12.71310555 96.3541271 9.70115776 96.21089473 5.75 96.125 C4.67234375 96.10695313 3.5946875 96.08890625 2.484375 96.0703125 C1.66453125 96.04710938 0.8446875 96.02390625 0 96 C0.16008545 95.32815674 0.3201709 94.65631348 0.48510742 93.96411133 C1.45907148 88.35723714 1.26507809 82.64115643 1.29516602 76.96313477 C1.30668182 75.45132078 1.32712771 73.93954732 1.35668945 72.42797852 C1.62612833 60.65246053 1.62612833 60.65246053 -3 50 C-3.33990967 49.29576904 -3.67981934 48.59153809 -4.0300293 47.8659668 C-5.33388856 45.35768683 -6.37149162 45.0375691 -9 44 C-9.58007812 43.7525 -10.16015625 43.505 -10.7578125 43.25 C-14.29819341 41.80607994 -17.42873307 40.86192763 -21.25 40.5625 C-25 40 -25 40 -27.4375 38.375 C-29.58454787 35.11148724 -30.06854287 32.90694348 -30 29 C-28 26 -28 26 -25 24 C-20.90264497 23.92811658 -18.81828811 24.37054761 -15.5625 26.875 C-14 29 -14 29 -14 32 C-8.72 32 -3.44 32 2 32 C1.67 29.69 1.34 27.38 1 25 C0.93660864 23.20412269 0.9134263 21.40620951 0.9375 19.609375 C0.94523437 18.65289062 0.95296875 17.69640625 0.9609375 16.7109375 C0.97382813 15.73382813 0.98671875 14.75671875 1 13.75 C1.02549983 11.78651339 1.04653588 9.82296229 1.0625 7.859375 C1.07410156 6.99795898 1.08570313 6.13654297 1.09765625 5.24902344 C1.09578197 2.82938678 1.09578197 2.82938678 0 0 Z " fill="#D1D1D1" transform="translate(342,24)"/>
<path d="M0 0 C13.73429746 -0.06947946 27.46855318 -0.12280096 41.20299053 -0.15543652 C47.58029572 -0.17109913 53.95748076 -0.1923486 60.3347168 -0.22631836 C66.48793025 -0.25889007 72.64102806 -0.27684853 78.79432106 -0.28463173 C81.14309319 -0.29017913 83.49185893 -0.30101169 85.84058189 -0.31719017 C89.12782903 -0.33893492 92.41459693 -0.3419681 95.7019043 -0.34057617 C96.6751062 -0.351362 97.64830811 -0.36214783 98.65100098 -0.3732605 C103.55773028 -0.35074613 107.06191195 -0.29129651 111 3 C112.40457737 5.80915474 112.24895157 7.88810534 112 11 C110.22015595 14.1359157 109.47691793 14.84102736 106 16 C104.52783112 16.08878884 103.05194559 16.12198352 101.57710266 16.12025452 C100.67266418 16.12162918 99.76822571 16.12300385 98.83638 16.12442017 C97.84663681 16.12082489 96.85689362 16.11722961 95.8371582 16.11352539 C94.79308807 16.11367142 93.74901794 16.11381744 92.67330933 16.1139679 C89.21577897 16.11327018 85.75830222 16.10548431 82.30078125 16.09765625 C79.9061028 16.09579157 77.51142396 16.0943679 75.116745 16.09336853 C68.80877635 16.08954728 62.50083066 16.07972031 56.19287109 16.06866455 C49.75814118 16.05844202 43.32340756 16.0538691 36.88867188 16.04882812 C24.25910449 16.03809772 11.62955415 16.02102597 -1 16 C-0.67 10.72 -0.34 5.44 0 0 Z " fill="#76777B" transform="translate(376,104)"/>
<path d="M0 0 C0.96633362 -0.00073013 1.93266724 -0.00146027 2.92828369 -0.00221252 C6.11576877 0.00126517 9.30178453 0.04013621 12.48901367 0.0793457 C14.70146384 0.08867315 16.91392435 0.09578958 19.12638855 0.1007843 C24.94469806 0.11985928 30.76238178 0.1689653 36.58044434 0.2243042 C42.51928238 0.27548535 48.4582217 0.29829598 54.3972168 0.32348633 C66.04658003 0.37708281 77.69547915 0.46240239 89.34448242 0.56762695 C89.83948242 8.48762695 89.83948242 8.48762695 90.34448242 16.56762695 C77.39255149 16.68344036 64.44074359 16.77230191 51.48840046 16.82668781 C45.47417738 16.85278946 39.46030836 16.88819888 33.44628906 16.94482422 C27.64318038 16.99912223 21.84041241 17.02904321 16.03706932 17.04201317 C13.82223331 17.0512569 11.60741609 17.06930774 9.39272499 17.09627724 C6.29200465 17.13253715 3.19269487 17.13757344 0.09179688 17.13525391 C-1.28384933 17.16221848 -1.28384933 17.16221848 -2.68728638 17.18972778 C-7.17215789 17.15338878 -9.05928782 17.02360989 -12.72566223 14.21965027 C-14.65551758 11.56762695 -14.65551758 11.56762695 -15.28051758 8.56762695 C-13.51986528 0.11649594 -7.23951574 -0.14336629 0 0 Z " fill="#76777B" transform="translate(38.655517578125,103.432373046875)"/>
<path d="M0 0 C0.80232056 -0.00004028 1.60464111 -0.00008057 2.43127441 -0.00012207 C4.12239443 0.00522359 5.8135146 0.02276578 7.50439453 0.05175781 C10.08573724 0.09362006 12.66446867 0.09282315 15.24609375 0.0859375 C16.89324721 0.09643096 18.54038728 0.10936992 20.1875 0.125 C21.3392572 0.12530212 21.3392572 0.12530212 22.51428223 0.12561035 C27.02599744 0.22473308 30.01087988 0.78722566 33.59375 3.59375 C34.97683781 6.35992563 34.70585196 8.60393 34.69140625 11.6953125 C34.68890869 12.78666504 34.68641113 13.87801758 34.68383789 15.00244141 C34.67473389 16.39382324 34.66562988 17.78520508 34.65625 19.21875 C34.635625 23.6325 34.615 28.04625 34.59375 32.59375 C18.75375 32.59375 2.91375 32.59375 -13.40625 32.59375 C-13.509375 28.241875 -13.6125 23.89 -13.71875 19.40625 C-13.76427002 18.04218018 -13.80979004 16.67811035 -13.85668945 15.27270508 C-13.86917725 14.18884521 -13.88166504 13.10498535 -13.89453125 11.98828125 C-13.92071533 10.88331299 -13.94689941 9.77834473 -13.97387695 8.63989258 C-12.52432782 0.86095732 -6.97057184 -0.14883913 0 0 Z " fill="#75D7FE" transform="translate(85.40625,263.40625)"/>
<path d="M0 0 C4.46341087 3.02306065 7.39332313 7.3440319 9.08203125 12.41015625 C9.16469611 14.32922542 9.18943788 16.25105099 9.1796875 18.171875 C9.17718994 19.17951904 9.17469238 20.18716309 9.17211914 21.2253418 C9.16301514 22.50320557 9.15391113 23.78106934 9.14453125 25.09765625 C9.12390625 29.16078125 9.10328125 33.22390625 9.08203125 37.41015625 C-4.11796875 37.41015625 -17.31796875 37.41015625 -30.91796875 37.41015625 C-31.00046875 33.45015625 -31.08296875 29.49015625 -31.16796875 25.41015625 C-31.20438477 24.1778125 -31.24080078 22.94546875 -31.27832031 21.67578125 C-31.34495416 15.03819034 -30.93396568 9.86204035 -26.91796875 4.41015625 C-24.8828125 2.3515625 -24.8828125 2.3515625 -22.85546875 0.97265625 C-22.18386719 0.49957031 -21.51226562 0.02648437 -20.8203125 -0.4609375 C-14.22679951 -4.37372036 -6.61770816 -3.23352115 0 0 Z " fill="#76777B" transform="translate(358.91796875,290.58984375)"/>
<path d="M0 0 C4.11562898 1.246192 7.83209766 2.84511779 11.65722656 4.76708984 C29.27677856 13.56864393 47.45140838 16.71108187 67 18 C67 23.28 67 28.56 67 34 C45.88 34 24.76 34 3 34 C2.67 25.42 2.34 16.84 2 8 C1.34 5.36 0.68 2.72 0 0 Z " fill="#65C1EC" transform="translate(381,294)"/>
<path d="M0 0 C1.04183945 -0.00426498 2.08367889 -0.00852997 3.15708923 -0.01292419 C4.88622055 -0.01224442 4.88622055 -0.01224442 6.65028381 -0.0115509 C8.4598481 -0.01658882 8.4598481 -0.01658882 10.30596924 -0.02172852 C13.62413946 -0.02962428 16.94224713 -0.03290746 20.26042247 -0.0335443 C23.02645726 -0.0344918 25.792486 -0.03816826 28.55851847 -0.0417164 C35.08227408 -0.04986851 41.60601588 -0.05229995 48.129776 -0.05158997 C54.86841617 -0.05098899 61.60697634 -0.0615429 68.34559625 -0.07733363 C74.12309839 -0.09039172 79.90057432 -0.09577459 85.67809111 -0.09513456 C89.13225428 -0.09487905 92.58634639 -0.09775885 96.04049492 -0.10831261 C99.89092537 -0.11975524 103.74124534 -0.1152574 107.59169006 -0.10920715 C108.74242004 -0.11482666 109.89315002 -0.12044617 111.07875061 -0.12623596 C112.64573952 -0.11994423 112.64573952 -0.11994423 114.24438477 -0.11352539 C115.155661 -0.11407016 116.06693724 -0.11461493 117.0058279 -0.1151762 C119.1856842 0.13371277 119.1856842 0.13371277 121.1856842 2.13371277 C120.63012865 6.68926832 120.63012865 6.68926832 119.1856842 8.13371277 C117.58343237 8.23405516 115.97675646 8.26447199 114.37136841 8.26742554 C113.32952896 8.27169052 112.28768951 8.27595551 111.21427917 8.28034973 C109.48514786 8.27966995 109.48514786 8.27966995 107.72108459 8.27897644 C105.91152031 8.28401436 105.91152031 8.28401436 104.06539917 8.28915405 C100.74722895 8.29704982 97.42912128 8.30033299 94.11094594 8.30096984 C91.34491115 8.30191734 88.57888241 8.3055938 85.81284994 8.30914193 C79.28909433 8.31729405 72.76535252 8.31972548 66.24159241 8.3190155 C59.50295224 8.31841453 52.76439207 8.32896844 46.02577215 8.34475917 C40.24827002 8.35781726 34.47079409 8.36320013 28.6932773 8.36256009 C25.23911413 8.36230459 21.78502202 8.36518439 18.33087349 8.37573814 C14.48044304 8.38718078 10.63012307 8.38268294 6.77967834 8.37663269 C5.62894836 8.3822522 4.47821838 8.3878717 3.2926178 8.3936615 C1.72562889 8.38736977 1.72562889 8.38736977 0.12698364 8.38095093 C-0.78429259 8.3814957 -1.69556883 8.38204046 -2.6344595 8.38260174 C-4.8143158 8.13371277 -4.8143158 8.13371277 -6.8143158 6.13371277 C-6.13602869 0.57175853 -5.44117186 0.0100105 0 0 Z " fill="#ADAEB1" transform="translate(38.81431579589844,455.8662872314453)"/>
<path d="M0 0 C10.33790025 0 10.33790025 0 13.67285156 3.27050781 C16.39491819 6.81780729 18.11590361 10.78839173 19.875 14.875 C20.2771875 15.74769531 20.679375 16.62039063 21.09375 17.51953125 C23.85339196 23.76157855 25.25633318 28.67071708 22.75 35.3125 C21 38 21 38 17 40 C11.39 40 5.78 40 0 40 C0 26.8 0 13.6 0 0 Z " fill="#CACACA" transform="translate(160,288)"/>
<path d="M0 0 C2.64 0 5.28 0 8 0 C8 29.04 8 58.08 8 88 C5.36 88 2.72 88 0 88 C0 58.96 0 29.92 0 0 Z " fill="#DFDFDF" transform="translate(96,136)"/>
<path d="M0 0 C10.56 0 21.12 0 32 0 C32 5.28 32 10.56 32 16 C21.44 16 10.88 16 0 16 C0 10.72 0 5.44 0 0 Z " fill="#000000" transform="translate(80,328)"/>
<path d="M0 0 C3.64491119 1.12660891 5.19453808 2.01207179 7.4375 5.0625 C7.4375 6.0525 7.4375 7.0425 7.4375 8.0625 C12.7175 8.0625 17.9975 8.0625 23.4375 8.0625 C23.4375 16.3125 23.4375 24.5625 23.4375 33.0625 C22.4475 31.7425 21.4575 30.4225 20.4375 29.0625 C19.715625 28.19625 18.99375 27.33 18.25 26.4375 C16.4375 24.0625 16.4375 24.0625 16.4375 22.0625 C11.29003895 19.27429193 6.05006747 17.08438029 0.1875 16.625 C-3.5625 16.0625 -3.5625 16.0625 -6 14.4375 C-8.14704787 11.17398724 -8.63104287 8.96944348 -8.5625 5.0625 C-5.9635106 1.1640159 -4.73279886 0.08303156 0 0 Z " fill="#E8E7E7" transform="translate(320.5625,47.9375)"/>
<path d="M0 0 C5.28 0 10.56 0 16 0 C16 5.28 16 10.56 16 16 C10.72 16 5.44 16 0 16 C0 10.72 0 5.44 0 0 Z " fill="#000000" transform="translate(120,328)"/>
<path d="M0 0 C5.28 0 10.56 0 16 0 C16 5.28 16 10.56 16 16 C10.72 16 5.44 16 0 16 C0 10.72 0 5.44 0 0 Z " fill="#000000" transform="translate(56,328)"/>
<path d="M0 0 C6.4700995 0.4883094 6.4700995 0.4883094 8.7121582 2.65332031 C10.38465303 5.70090709 10.34202695 7.8300954 10.29296875 11.296875 C10.28330078 12.50214844 10.27363281 13.70742188 10.26367188 14.94921875 C10.23853516 16.20347656 10.21339844 17.45773437 10.1875 18.75 C10.17396484 20.01972656 10.16042969 21.28945313 10.14648438 22.59765625 C10.1111324 25.73219844 10.06178248 28.86588545 10 32 C7.36 32 4.72 32 2 32 C1.97494385 31.17274414 1.9498877 30.34548828 1.92407227 29.49316406 C1.80803651 25.74528808 1.685344 21.99765875 1.5625 18.25 C1.52318359 16.94804687 1.48386719 15.64609375 1.44335938 14.3046875 C1.40146484 13.05429687 1.35957031 11.80390625 1.31640625 10.515625 C1.27974854 9.36352539 1.24309082 8.21142578 1.20532227 7.02441406 C1.03547826 4.52259776 0.72031525 2.38908832 0 0 Z " fill="#65C0EB" transform="translate(110,264)"/>
<path d="M0 0 C0.66 0 1.32 0 2 0 C3.32 4.29 4.64 8.58 6 13 C2.7 13 -0.6 13 -4 13 C-2.68 8.71 -1.36 4.42 0 0 Z " fill="#E1DDDD" transform="translate(255,67)"/>
<path d="M0 0 C2.64 0 5.28 0 8 0 C6.69108934 2.91987762 5.29493021 4.796867 3 7 C2.01 8.32 1.02 9.64 0 11 C0 7.37 0 3.74 0 0 Z " fill="#CCCCCC" transform="translate(96,136)"/>
</svg>
